SplineFontDB: 1.0
FontName: Devanagari
FullName: Devanagari
FamilyName: Devanagari
Weight: Medium
Copyright: Created by manju with PfaEdit 1.0 (http://pfaedit.sf.net). This font is under GPL.
Comments: 2003-10-31: Created.
Version: 1
ItalicAngle: 0
UnderlinePosition: -150
UnderlineWidth: 20
Ascent: 800
Descent: 200
XUID: [1021 730 1184793738 12727681]
FSType: 0
PfmFamily: 81
TTFWeight: 400
TTFWidth: 5
Panose: 0 0 0 0 0 0 0 0 0 0
LineGap: 0
VLineGap: 0
ScriptLang: 4
 1 deva 1 dflt 
 1 deva 1 dflt 
 1 DFLT 1 dflt 
 1 latn 1 dflt 
ChainSub: class 0 0 'blws' 2 2 1 1
  Class: 55 uni0941 uni0942 uni0943 uni0944 uni094D uni0962 uni0963
  BClass: 271 uniE943 uniE944 uniE949 uniE94A uniE952 uniE953 uniE958 uniE959 uniE95A uniE969 uniE96A uniE96B uniE96C uniE96D uniE96E uniE980 uniE981 uniE982 uniE983 uniE984 uniE986 uniE987 uniE988 uniE989 uniE98A uniE98B uniE98C uniE98D uniE98E uniE9A3 uniE9B0 uniE9B1 uniE9B8 uniE9B9
 1 1 0
  ClsList: 1
  BClsList: 1
  FClsList:
 1
  SeqLookup: 0 'U100'
EndFPST
ChainSub: class 0 0 'blws' 2 2 1 1
  Class: 55 uni0941 uni0942 uni0943 uni0944 uni094D uni0962 uni0963
  BClass: 183 uni0939 uniE942 uniE945 uniE961 uniE962 uniE963 uniE964 uniE965 uniE968 uniE9A8 uniE9B2 uniE9B3 uniE9B8 uniE9B9 uni0939 uniE947 uniE948 uniE951 uniE94F uniE950 uniE93A uniE99E uniE9D7
 1 1 0
  ClsList: 1
  BClsList: 1
  FClsList:
 1
  SeqLookup: 0 'U101'
EndFPST
ChainSub: class 0 0 'abvs' 2 2 0 1
  Class: 7 uni0901
  BClass: 55 uni093F uni0940 uni0947 uni0948 uni094A uni094B uni094C
 1 1 0
  ClsList: 1
  BClsList: 1
  FClsList:
 1
  SeqLookup: 0 'U102'
EndFPST
ChainSub: class 0 0 'dist' 2 2 0 1
  Class: 7 uniEA04
  BClass: 71 uniE9FB uniE9FC uniE9FD uniE9FE uniE9FF uniEA00 uniEA01 uniEA02 uniEA03
 1 1 0
  ClsList: 1
  BClsList: 1
  FClsList:
 1
  SeqLookup: 0 'U103'
EndFPST
GenTags: 10 lg'U001' sb'L027' sb'L028' ps'DDU0' ps'blwm' sb'U100' sb'U101' ps'U102' pr'dist' ps'U103'
TableOrder: GSUB 14
	'akhn'
	'nukt'
	'rphf'
	'blwf'
	'half'
	'vatu'
	'pres'
	'blws'
	'abvs'

StartChar: uni0901
Encoding: 2305 2305 1
Width: 0
Flags: W
VStem: -71 58<856 901>
DStem: -73 934 -73 934 -76 931 -64 932
Fore
-171 951 m 1
 -115 896 l 0
 -115 895 l 0
 -170 841 l 0
 -171 841 l 0
 -225 895 l 0
 -225 896 l 0
 -171 951 l 1
-346 934 m 0
 -340 934 l 0
 -331 929 l 0
 -320 923 -309 913 -299 899 c 0
 -294 888 -294 888 -281 858 c 0
 -278 851 -274 844 -270 837 c 0
 -255 814 -223 801 -176 798 c 0
 -152 800 l 0
 -121 805 -98 823 -82 854 c 0
 -75 869 -71 884 -71 901 c 0
 -71 905 -72 912 -73 921 c 0
 -76 931 l 0
 -73 934 l 0
 -64 932 l 0
 -63 932 -61 931 -57 928 c 0
 -44 920 -33 908 -24 893 c 0
 -17 883 -13 871 -13 856 c 0
 -13 853 -13 853 -13 851 c 0
 -13 818 -25 790 -50 766 c 0
 -51 765 -53 764 -57 761 c 0
 -77 746 -99 739 -123 739 c 0
 -170 739 -219 762 -270 807 c 0
 -282 818 -292 828 -299 837 c 0
 -317 860 -331 884 -341 909 c 0
 -345 918 -347 925 -347 930 c 0
 -347 932 -347 933 -346 934 c 0
EndSplineSet
AnchorPoint: "Anchor-0" -320 596 mark 0
Position: 0 65534 'U102' dx=50 dy=0 dh=25 dv=0
Comment: "Anunasika (ChandraBindu) (Itrans: .N)" 
Colour: ffffff
EndChar
StartChar: uni0902
Encoding: 2306 2306 2
Width: 0
Flags: W
Fore
0 861 m 1
 56 807 l 0
 56 806 l 0
 1 751 l 0
 0 751 l 0
 -55 806 l 0
 -55 807 l 0
 0 861 l 1
EndSplineSet
AnchorPoint: "Anchor-0" 0 596 mark 0
Comment: "Anusvara (bindu) (Itrans: M)" 
Colour: ffffff
EndChar
StartChar: uni0903
Encoding: 2307 2307 3
Width: 250
Flags: W
Fore
150 191 m 1
 159 185 181 164 214 129 c 0
 231 111 l 0
 231 109 l 0
 151 30 l 0
 150 30 l 0
 70 109 l 0
 70 111 l 0
 150 191 l 1
150 526 m 1
 159 520 181 499 214 463 c 0
 230 446 l 0
 231 445 l 0
 151 365 l 0
 150 365 l 0
 70 445 l 0
 70 446 l 0
 150 526 l 1
EndSplineSet
Comment: "Visarga (Itrans: H)" 
Colour: ffffff
EndChar
StartChar: uni0904
Encoding: 2308 2308 4
Width: 836
Flags: W
HStem: 277 78<107 195> 499 79<184 258> 519 77<430 555 588 790>
VStem: 341 75<206 251> 554 77<98 519>
DStem: 777 598 777 598 673 596 797 595
Fore
586 596 m 1
 586 597 l 0
 576 645 557 674 529 683 c 0
 492 695 462 701 439 701 c 0
 364 699 l 0
 297 699 262 728 258 787 c 0
 257 790 257 794 257 801 c 0
 257 820 258 830 260 831 c 0
 264 824 l 0
 272 801 l 0
 279 783 299 771 330 766 c 0
 341 763 352 762 364 762 c 0
 407 762 458 757 515 746 c 0
 520 745 526 743 532 741 c 0
 566 724 586 705 592 684 c 0
 593 676 l 0
 593 647 592 626 590 615 c 0
 590 613 589 607 588 596 c 0
 673 596 l 0
 777 598 l 0
 790 596 790 596 797 595 c 0
 802 594 810 589 820 580 c 0
 848 559 865 539 870 520 c 0
 859 517 850 516 841 516 c 0
 790 519 l 0
 631 519 l 0
 631 -35 l 0
 621 -35 604 -23 579 0 c 0
 567 11 559 22 555 34 c 0
 552 43 551 51 551 58 c 0
 554 99 l 0
 554 229 l 0
 506 214 460 206 416 206 c 0
 416 171 415 149 412 142 c 0
 412 140 411 137 410 133 c 0
 395 96 374 71 345 58 c 0
 324 48 304 43 283 43 c 0
 215 43 146 89 76 181 c 0
 69 190 66 194 65 195 c 0
 45 225 28 254 14 282 c 0
 1 309 l 0
 1 317 l 0
 30 307 57 279 82 234 c 0
 107 186 l 0
 119 164 129 150 136 145 c 0
 147 136 163 129 185 125 c 0
 215 123 l 0
 257 125 291 143 316 176 c 0
 333 199 341 224 341 251 c 0
 339 276 l 0
 338 281 l 0
 334 293 331 299 330 300 c 0
 323 305 316 308 309 308 c 0
 287 303 l 0
 245 286 l 0
 221 280 204 277 195 277 c 0
 188 277 182 278 177 280 c 0
 170 283 157 293 137 312 c 0
 133 316 l 0
 116 333 107 346 107 355 c 0
 172 355 228 378 275 423 c 0
 278 426 l 0
 295 446 306 464 309 480 c 0
 309 490 l 0
 306 493 l 0
 301 497 285 499 258 499 c 0
 217 499 172 492 122 478 c 0
 80 463 l 0
 72 463 l 0
 56 465 36 482 12 514 c 0
 4 525 0 531 0 534 c 0
 0 537 1 539 4 540 c 0
 18 548 41 555 72 562 c 0
 117 573 154 578 184 578 c 0
 229 577 266 567 294 548 c 0
 356 503 387 460 387 418 c 0
 387 409 385 401 382 392 c 0
 372 367 356 347 335 331 c 0
 340 328 349 318 364 303 c 0
 372 293 377 288 380 287 c 0
 396 286 l 0
 415 290 l 0
 446 295 480 306 517 321 c 0
 538 330 550 337 553 342 c 0
 555 346 556 352 556 361 c 0
 554 395 l 0
 554 519 l 0
 488 519 l 0
 459 519 l 0
 458 519 457 519 456 520 c 0
 447 522 432 534 411 556 c 0
 397 569 388 582 385 594 c 0
 388 595 403 596 430 596 c 0
 586 596 l 1
EndSplineSet
Comment: "Short A" 
Colour: ffffff
EndChar
StartChar: uni0905
Encoding: 2309 2309 1
Width: 836
Flags: W
HStem: 43 80<208 283> 277 78<107 195> 499 79<184 258> 519 77<430 555 430 790> 519 79<748 790>
VStem: 341 75<206 251> 554 77<98 519>
Fore
385 596 m 1
 388 597 403 596 430 596 c 0
 673 596 l 2
 697 596 723 598 748 598 c 0
 765 598 782 597 797 595 c 0
 802 594 810 589 820 580 c 0
 848 559 865 539 870 520 c 0
 859 517 850 518 841 518 c 0
 790 519 l 0
 631 519 l 0
 631 -35 l 1
 617 -35 564 7 555 34 c 0
 552 43 551 51 551 58 c 0
 554 99 l 0
 554 229 l 0
 506 214 460 206 416 206 c 0
 416 171 415 149 412 142 c 0
 412 140 411 137 410 133 c 0
 395 96 374 71 345 58 c 0
 324 48 304 43 283 43 c 0
 215 43 146 89 76 181 c 0
 40 227 25 261 1 309 c 1
 1 317 l 0
 30 307 57 279 82 234 c 0
 96 208 119 157 136 145 c 0
 151 133 178 123 208 123 c 0
 211 123 213 123 215 123 c 0
 283 126 341 179 341 251 c 0
 340 261 341 273 338 281 c 0
 334 293 331 299 330 300 c 0
 323 305 316 308 309 308 c 0
 287 303 l 0
 245 286 l 0
 221 280 204 277 195 277 c 0
 188 277 182 278 177 280 c 0
 167 284 107 334 107 355 c 1
 172 355 228 378 275 423 c 0
 292 439 306 465 309 480 c 0
 309 481 309 483 309 484 c 0
 309 488 309 491 306 493 c 0
 301 497 285 499 258 499 c 0
 217 499 172 492 122 478 c 0
 80 463 l 0
 72 463 l 0
 56 465 36 482 12 514 c 0
 4 525 0 531 0 534 c 0
 0 537 1 539 4 540 c 0
 36 558 141 578 184 578 c 0
 229 577 266 567 294 548 c 0
 356 503 387 460 387 418 c 0
 387 381 358 349 335 331 c 1
 340 328 349 318 364 303 c 0
 372 293 377 288 380 287 c 0
 383 286 386 286 389 286 c 0
 398 286 408 289 415 290 c 0
 446 295 480 306 517 321 c 0
 538 330 550 337 553 342 c 0
 555 346 556 352 556 361 c 0
 554 395 l 0
 554 519 l 1
 554 519 l 0
 459 519 l 0
 443 519 391 572 385 596 c 1
EndSplineSet
Comment: "A (Itrans: a)" 
Colour: ffffff
EndChar
StartChar: uni0906
Encoding: 2310 2310 2
Width: 972
Flags: W
HStem: 277 78<144 231> 499 78<220 294> 516 78<716 784.138 716 800 716 948> 519 77<467 556 715 715>
VStem: 346 77<420 488> 588 79<49 519> 592 75<353 519> 800 77<82 517>
DStem: 703 596 703 596 628 594 715 594
Fore
716 594 m 1
 921 594 l 0
 943 594 955 594 956 593 c 0
 961 591 969 586 979 579 c 0
 1008 556 1024 535 1028 518 c 0
 1019 515 1009 514 999 514 c 0
 948 517 l 0
 877 517 l 0
 877 -37 l 0
 861 -37 840 -21 815 12 c 0
 808 19 803 27 801 34 c 0
 799 61 l 0
 800 83 l 0
 800 518 l 0
 797 518 794 518 793 519 c 0
 788 517 778 516 765 516 c 0
 715 518 l 0
 714 518 l 0
 667 519 l 0
 667 -38 l 0
 656 -37 640 -26 620 -4 c 0
 616 0 l 0
 601 13 593 24 592 31 c 0
 589 40 588 50 588 59 c 0
 590 99 l 0
 590 229 l 0
 543 214 498 206 453 206 c 0
 453 169 451 145 446 133 c 0
 439 113 429 97 418 84 c 0
 406 72 394 63 381 58 c 0
 359 48 339 43 321 43 c 0
 307 43 291 46 273 51 c 0
 215 70 158 118 102 195 c 0
 81 226 64 255 51 282 c 0
 38 309 l 0
 38 317 l 0
 67 307 94 279 117 234 c 0
 144 186 l 0
 154 166 164 152 173 145 c 0
 184 136 200 129 221 125 c 0
 253 123 l 0
 297 125 331 144 355 180 c 0
 365 194 371 209 374 226 c 0
 377 256 l 0
 377 265 376 273 374 281 c 0
 373 290 371 296 367 300 c 0
 360 305 353 308 346 308 c 0
 324 303 l 0
 282 286 l 0
 258 280 241 277 231 277 c 0
 224 277 218 278 213 280 c 0
 206 283 191 295 170 316 c 0
 155 329 147 342 144 355 c 0
 209 355 263 376 307 418 c 0
 314 426 l 0
 330 442 340 458 343 475 c 0
 346 488 l 0
 346 489 345 491 343 493 c 0
 338 497 322 499 294 499 c 0
 254 499 209 492 158 478 c 0
 117 463 l 0
 108 463 l 0
 93 465 73 482 49 514 c 0
 41 523 37 530 37 533 c 0
 39 539 l 0
 41 540 l 0
 50 546 72 553 108 562 c 0
 150 572 187 577 220 577 c 0
 266 577 303 567 331 547 c 0
 391 506 422 464 423 420 c 0
 420 396 l 0
 419 395 418 393 418 392 c 0
 415 382 408 371 399 359 c 0
 388 346 379 336 372 331 c 0
 378 326 387 317 400 303 c 0
 414 288 l 0
 415 287 415 287 416 287 c 0
 432 286 l 0
 435 286 441 287 451 290 c 0
 484 296 519 306 554 321 c 0
 582 334 l 0
 585 336 588 339 589 342 c 0
 591 346 592 352 592 361 c 0
 590 395 l 0
 590 519 l 0
 524 519 l 0
 496 519 l 0
 492 520 l 0
 485 521 470 533 447 556 c 0
 432 573 424 586 422 594 c 0
 425 595 440 596 467 596 c 0
 556 596 l 0
 628 594 l 0
 703 596 l 0
 715 594 l 0
 716 594 l 1
EndSplineSet
Comment: "AA (Itrans: aa or A)" 
Colour: ffffff
EndChar
StartChar: uni0907
Encoding: 2311 2311 3
Width: 536
Flags: W
HStem: 39 105<184 226> 375 76<105 198> 375 77<180 198> 520 76<31 36.1138 -38 259 -38 502>
DStem: 491 598 491 598 425 596 506 595
Fore
-38 596 m 1
 425 596 l 0
 491 598 l 0
 506 595 l 0
 511 594 519 589 529 580 c 0
 558 557 574 537 579 520 c 0
 570 517 560 516 551 516 c 0
 502 519 l 0
 336 519 l 0
 336 373 l 0
 198 375 l 0
 182 375 170 374 163 373 c 0
 114 367 85 344 77 305 c 0
 204 313 l 0
 242 313 272 305 293 290 c 0
 338 259 365 223 373 182 c 0
 374 156 l 0
 373 143 369 131 362 119 c 0
 347 93 328 76 305 67 c 0
 340 23 l 0
 378 -28 402 -74 412 -116 c 0
 400 -115 l 0
 392 -111 381 -102 366 -87 c 0
 351 -71 341 -59 337 -50 c 0
 304 27 l 0
 297 38 291 47 285 53 c 0
 279 55 l 0
 268 52 l 0
 236 43 208 39 184 39 c 0
 157 39 132 44 111 55 c 0
 94 65 78 78 62 94 c 0
 43 114 33 127 31 133 c 0
 30 146 l 0
 31 147 31 148 31 149 c 0
 36 158 46 167 62 174 c 0
 78 182 95 186 113 186 c 0
 137 186 159 181 178 170 c 0
 182 168 l 0
 218 146 l 0
 222 145 225 144 226 144 c 0
 236 146 l 0
 239 147 244 151 251 157 c 0
 276 176 291 201 297 234 c 0
 172 227 l 0
 143 227 119 231 102 238 c 0
 87 244 67 260 42 285 c 0
 13 316 -2 346 -2 375 c 0
 -2 386 0 395 4 402 c 0
 17 433 51 449 105 451 c 0
 180 452 l 0
 259 450 l 0
 259 519 l 0
 102 519 l 0
 45 517 l 0
 36 519 32 520 31 520 c 0
 16 526 -3 542 -24 568 c 0
 -32 577 -37 587 -38 596 c 1
EndSplineSet
Comment: "I (Itrans: i)" 
Colour: ffffff
EndChar
StartChar: uni0908
Encoding: 2312 2312 4
Width: 536
Flags: W
HStem: 39 105<184 226> 375 76<105 198> 375 77<180 198> 520 76<31 36.1138 -38 259 317 502> 646 188<223 255>
Fore
287 597 m 1
 271 602 251 617 227 643 c 0
 225 645 224 646 223 646 c 0
 204 666 190 684 182 701 c 0
 175 716 172 730 172 742 c 0
 172 777 186 803 213 820 c 0
 227 829 241 834 255 834 c 0
 285 832 l 0
 321 823 355 803 388 770 c 0
 407 750 418 738 421 734 c 0
 429 719 l 0
 430 718 430 715 430 712 c 0
 420 713 408 721 393 736 c 0
 385 743 l 0
 376 750 363 754 345 756 c 0
 320 756 l 0
 298 752 281 742 268 725 c 0
 256 705 l 0
 251 696 249 686 249 676 c 0
 249 672 250 666 251 658 c 0
 252 655 258 648 269 638 c 0
 297 600 l 0
 298 599 298 599 299 598 c 0
 300 597 306 596 317 596 c 0
 464 596 l 0
 504 596 l 0
 507 595 508 594 509 594 c 0
 518 591 532 579 552 559 c 0
 567 542 576 529 579 520 c 0
 570 517 560 516 551 516 c 0
 502 519 l 0
 336 519 l 0
 336 373 l 0
 198 375 l 0
 182 375 170 374 163 373 c 0
 114 367 85 344 77 305 c 0
 204 313 l 0
 242 313 272 305 293 290 c 0
 338 259 365 223 373 182 c 0
 374 156 l 0
 373 143 369 131 362 119 c 0
 347 93 328 76 305 67 c 0
 340 23 l 0
 378 -28 402 -74 412 -116 c 0
 400 -115 l 0
 392 -111 381 -102 366 -87 c 0
 351 -71 341 -59 337 -50 c 0
 304 27 l 0
 297 38 291 47 285 53 c 0
 279 55 l 0
 268 52 l 0
 236 43 208 39 184 39 c 0
 157 39 132 44 111 55 c 0
 94 65 78 78 62 94 c 0
 43 114 33 127 31 133 c 0
 30 146 l 0
 31 147 31 148 31 149 c 0
 36 158 46 167 62 174 c 0
 78 182 95 186 113 186 c 0
 137 186 159 181 178 170 c 0
 182 168 l 0
 218 146 l 0
 222 145 225 144 226 144 c 0
 236 146 l 0
 239 147 244 151 251 157 c 0
 276 176 291 201 297 234 c 0
 172 227 l 0
 143 227 119 231 102 238 c 0
 87 244 67 260 42 285 c 0
 13 316 -2 346 -2 375 c 0
 -2 386 0 395 4 402 c 0
 17 433 51 449 105 451 c 0
 180 452 l 0
 259 450 l 0
 259 519 l 0
 102 519 l 0
 45 517 l 0
 36 519 32 520 31 520 c 0
 16 526 -3 542 -24 568 c 0
 -32 577 -37 587 -38 596 c 0
 287 596 l 0
 287 597 l 1
EndSplineSet
Comment: "II (Itrans: ii or I)" 
Colour: ffffff
EndChar
StartChar: uni0909
Encoding: 2313 2313 5
Width: 578
Flags: W
HStem: 0 78<229 300> 517 79<-38 356 -38 551>
VStem: 357 80<416 494>
Fore
-38 596 m 5
 457 596 l 4
 532 598 l 4
 537 597 542 596 549 595 c 4
 552 594 560 589 572 580 c 4
 599 560 616 540 623 520 c 4
 596 517 l 4
 551 519 l 4
 400 519 l 4
 425 487 437 453 437 416 c 4
 437 383 428 354 409 327 c 4
 394 304 379 289 362 283 c 4
 407 240 432 200 438 163 c 4
 440 129 l 4
 438 84 417 48 377 21 c 4
 354 7 328 0 300 0 c 4
 290 0 l 4
 219 5 152 46 89 121 c 4
 73 141 59 160 48 179 c 4
 30 208 16 241 7 278 c 4
 2 296 0 307 0 311 c 4
 0 314 0 316 1 317 c 4
 24 309 45 293 64 268 c 4
 75 247 l 4
 86 201 l 4
 100 155 115 124 132 107 c 4
 143 98 157 92 174 87 c 4
 191 81 210 78 229 78 c 4
 278 78 315 97 340 135 c 4
 348 146 354 160 357 175 c 4
 360 187 362 198 362 209 c 4
 362 218 361 227 359 236 c 4
 352 257 l 4
 345 264 330 268 307 268 c 4
 282 268 l 4
 213 266 l 4
 202 268 l 4
 201 268 l 4
 195 269 187 274 177 283 c 4
 147 307 131 327 128 343 c 4
 132 344 144 345 163 345 c 4
 234 344 l 4
 242 345 248 346 251 347 c 4
 296 355 328 383 347 432 c 4
 354 450 357 471 357 494 c 4
 357 505 357 514 356 519 c 4
 140 519 l 4
 54 517 l 4
 49 517 43 518 35 519 c 4
 28 521 20 525 12 532 c 4
 -21 557 -37 579 -38 596 c 5
EndSplineSet
Comment: "U (Itrans: u)" 
Colour: ffffff
EndChar
StartChar: uni090A
Encoding: 2314 2314 6
Width: 823
Flags: W
HStem: -2 80<227 301> 517 79<-38 356 -38 791 793 867> 519 75<728 796>
VStem: 357 80<416 494> 622 78<137 209>
Fore
-38 596 m 1
 749 596 l 0
 791 596 l 0
 794 595 795 594 796 594 c 0
 805 590 819 578 840 559 c 0
 856 542 865 529 867 520 c 0
 728 519 l 0
 721 519 l 0
 400 519 l 0
 425 487 437 453 437 416 c 0
 437 383 428 354 409 327 c 0
 394 304 379 289 362 283 c 0
 380 266 l 0
 397 303 430 324 479 330 c 0
 514 329 l 0
 530 327 546 322 562 315 c 0
 609 292 646 260 672 221 c 0
 691 192 700 164 700 137 c 0
 700 129 l 0
 697 102 686 75 667 46 c 0
 654 23 643 9 636 3 c 0
 627 0 l 0
 622 3 616 6 610 11 c 0
 594 23 580 37 568 53 c 0
 561 62 558 69 558 73 c 0
 559 81 567 92 580 107 c 0
 581 108 582 109 584 112 c 0
 609 149 622 181 622 209 c 0
 622 226 620 237 615 243 c 0
 610 247 598 250 580 253 c 0
 555 253 l 0
 544 251 l 0
 505 244 476 223 457 190 c 0
 451 182 447 174 445 165 c 0
 443 160 441 142 438 109 c 0
 430 70 411 41 381 21 c 0
 356 6 329 -2 301 -2 c 0
 248 -2 195 22 141 70 c 0
 96 109 62 149 40 192 c 0
 23 221 12 250 6 281 c 0
 2 295 0 305 0 310 c 0
 0 313 0 315 1 317 c 0
 24 309 45 293 64 268 c 0
 75 247 l 0
 84 207 l 0
 101 147 123 110 150 96 c 0
 157 93 162 90 165 89 c 0
 187 82 208 78 227 78 c 0
 277 78 315 97 342 135 c 0
 349 146 354 159 357 172 c 0
 360 185 361 197 361 210 c 0
 361 222 360 231 359 236 c 0
 352 257 l 0
 345 264 330 268 307 268 c 0
 282 268 l 0
 213 266 l 0
 202 268 l 0
 201 268 l 0
 193 271 185 275 178 282 c 0
 147 307 131 327 128 343 c 0
 132 344 144 345 163 345 c 0
 234 344 l 0
 242 345 248 346 251 347 c 0
 296 355 328 383 347 432 c 0
 354 450 357 471 357 494 c 0
 357 505 357 514 356 519 c 0
 140 519 l 0
 54 517 l 0
 49 517 43 518 35 519 c 0
 28 521 20 525 12 532 c 0
 -21 557 -37 579 -38 596 c 1
EndSplineSet
Comment: "UU (Itrans: uu or U)" 
Colour: ffffff
EndChar
StartChar: uni090B
Encoding: 2315 2315 7
Width: 940
Flags: W
HStem: -59 78<652 725> 282 150<634 649> 519 77<-38 351 -38 913>
VStem: 352 77<83 240 342 519> 593 43<400 431>
DStem: 649 282 701 296 676 207 754 129 656 209 656 209 629 206 676 207 738 37 738 37 698 24 750 36
Fore
-38 596 m 1
 857 596 l 0
 904 596 l 0
 908 596 911 596 913 595 c 0
 919 592 926 587 935 580 c 0
 964 556 980 536 984 520 c 0
 821 519 l 0
 812 519 l 0
 429 519 l 0
 429 332 l 0
 604 367 l 0
 597 382 593 393 593 400 c 0
 593 417 601 428 617 432 c 0
 634 432 l 0
 635 432 636 432 636 431 c 0
 663 424 688 403 712 369 c 0
 715 366 719 359 724 350 c 0
 727 343 729 337 729 330 c 0
 727 314 l 0
 722 305 714 299 701 296 c 0
 716 251 734 195 754 129 c 0
 713 130 l 0
 708 129 l 0
 707 129 l 0
 664 120 633 96 613 55 c 0
 609 48 606 38 603 25 c 0
 618 21 635 19 652 19 c 0
 667 19 683 21 698 24 c 0
 738 37 l 0
 750 36 l 0
 767 28 785 11 806 -15 c 0
 812 -23 815 -30 815 -37 c 0
 812 -42 798 -48 771 -54 c 0
 754 -57 739 -59 725 -59 c 0
 694 -59 666 -53 641 -41 c 0
 634 -37 630 -34 627 -33 c 0
 580 -5 548 26 533 61 c 0
 531 65 528 72 525 83 c 0
 525 105 l 0
 529 138 550 165 587 188 c 0
 602 197 616 203 629 206 c 0
 656 209 l 0
 676 207 l 0
 649 282 l 0
 646 282 627 279 593 273 c 0
 429 240 l 0
 429 -38 l 0
 418 -37 402 -26 383 -7 c 0
 364 12 354 24 353 31 c 0
 350 55 l 0
 352 84 l 0
 352 201 l 0
 334 194 292 173 227 139 c 0
 223 136 217 133 209 129 c 0
 166 104 l 0
 152 101 l 0
 147 101 140 105 129 114 c 0
 99 138 82 159 77 177 c 0
 348 313 l 0
 341 324 324 336 297 347 c 0
 268 358 239 363 209 363 c 0
 186 363 161 359 136 352 c 0
 119 346 105 340 94 334 c 0
 77 324 l 0
 72 323 l 0
 69 324 62 328 52 336 c 0
 39 345 25 359 8 380 c 0
 4 385 2 390 2 395 c 0
 2 401 11 408 28 416 c 0
 58 430 90 438 123 440 c 0
 165 439 l 0
 230 432 292 400 352 342 c 0
 352 519 l 0
 67 519 l 0
 34 519 l 0
 27 521 19 526 11 533 c 0
 -20 559 -36 580 -38 596 c 1
EndSplineSet
Comment: "Vocalic R (Itrans: RRi or R^i)" 
Colour: ffffff
EndChar
StartChar: uni090C
Encoding: 2316 2316 8
Width: 803
Flags: W
HStem: -124 117<579 606> 185 224<358 480> 519 75<759 777> 519 77<-38 41 -38 480 -38 771 775 848>
VStem: 480 78<409 519>
Fore
-38 596 m 1
 731 596 l 0
 771 596 l 0
 774 595 776 594 777 594 c 0
 789 589 803 578 820 559 c 0
 837 542 846 529 848 520 c 0
 759 519 l 0
 756 519 l 0
 558 519 l 0
 558 423 l 0
 557 391 l 0
 559 386 l 0
 560 383 567 378 578 369 c 0
 634 324 668 275 679 223 c 0
 682 190 l 0
 682 186 681 180 680 172 c 0
 674 138 651 111 611 90 c 0
 537 50 l 0
 510 33 492 12 484 -11 c 0
 481 -22 480 -33 480 -46 c 0
 523 -45 l 0
 537 -43 549 -40 558 -35 c 0
 589 -18 l 0
 597 -11 603 -7 606 -7 c 0
 615 -10 l 0
 616 -10 620 -12 625 -17 c 0
 636 -24 651 -38 668 -59 c 0
 676 -68 680 -74 680 -79 c 0
 680 -81 680 -82 679 -83 c 0
 675 -90 659 -100 631 -113 c 0
 628 -114 l 0
 613 -121 596 -124 579 -124 c 0
 566 -124 550 -121 533 -116 c 0
 488 -103 451 -72 422 -24 c 0
 419 -19 417 -15 415 -12 c 0
 407 4 403 19 403 34 c 0
 403 67 419 95 451 118 c 0
 453 119 476 132 521 157 c 0
 566 182 593 208 600 234 c 0
 603 242 604 251 604 262 c 0
 604 271 603 278 602 283 c 0
 599 302 595 315 591 322 c 0
 586 329 576 333 559 333 c 0
 533 331 l 0
 460 324 410 298 382 255 c 0
 369 236 363 218 363 201 c 0
 363 190 361 185 358 185 c 0
 354 185 347 189 336 198 c 0
 305 225 288 245 285 258 c 0
 283 297 l 0
 281 304 277 308 271 311 c 0
 252 321 225 328 191 331 c 0
 154 330 l 0
 139 328 125 323 114 314 c 0
 89 295 76 268 76 233 c 0
 76 191 92 147 124 100 c 0
 125 99 128 94 134 86 c 0
 142 75 155 59 172 39 c 0
 217 -7 l 0
 226 -18 232 -28 233 -38 c 0
 225 -37 213 -30 196 -17 c 0
 171 8 149 32 130 55 c 0
 67 126 27 188 12 241 c 0
 8 253 5 267 2 282 c 0
 0 324 l 0
 0 328 0 331 1 332 c 0
 3 343 7 352 12 360 c 0
 29 393 60 410 105 410 c 0
 139 410 174 402 209 386 c 0
 243 369 273 347 300 320 c 0
 304 334 317 349 338 365 c 0
 374 394 421 409 480 409 c 0
 480 519 l 0
 188 519 l 0
 49 518 l 0
 40 519 l 0
 39 519 l 0
 32 519 23 523 14 531 c 0
 -20 558 -37 579 -38 596 c 1
EndSplineSet
Comment: "Vocalic L (Itrans: LLi or L^i)" 
Colour: ffffff
EndChar
StartChar: uni090D
Encoding: 2317 2317 9
Width: 641
Flags: W
HStem: 519 77<-38 352 -38 598>
VStem: 38 77<191 519> 311 58<778 828> 352 77<316 519>
DStem: 158 82 209 82 436 -109 426 -68
Fore
-38 596 m 1
 572 596 l 0
 593 596 605 595 607 594 c 0
 616 591 631 579 652 558 c 0
 667 543 676 530 678 520 c 0
 667 517 657 516 648 516 c 0
 598 519 l 0
 429 519 l 0
 429 303 l 0
 430 229 l 0
 427 212 424 200 421 192 c 0
 411 170 395 154 373 143 c 0
 362 138 353 135 344 135 c 0
 337 135 333 136 330 137 c 0
 322 138 308 149 288 168 c 0
 287 169 286 171 285 172 c 0
 269 190 260 203 258 212 c 0
 286 220 302 225 307 227 c 0
 314 231 322 237 329 245 c 0
 344 264 352 293 352 331 c 0
 352 345 l 0
 352 519 l 0
 115 519 l 0
 115 174 l 0
 115 158 116 149 117 146 c 0
 118 143 128 136 147 124 c 0
 209 82 l 0
 426 -68 l 0
 477 -102 510 -131 525 -154 c 0
 534 -167 541 -181 544 -195 c 0
 545 -217 l 0
 542 -242 529 -259 506 -270 c 0
 496 -273 487 -275 479 -275 c 0
 472 -275 l 0
 456 -273 437 -261 416 -240 c 0
 412 -236 l 0
 396 -220 387 -206 385 -195 c 0
 411 -198 l 0
 412 -198 l 0
 434 -196 451 -183 463 -160 c 0
 467 -152 469 -145 469 -139 c 0
 469 -137 468 -135 467 -132 c 0
 465 -129 455 -121 436 -109 c 0
 158 82 l 0
 113 113 87 131 82 137 c 0
 65 149 52 164 42 182 c 0
 39 185 38 196 38 214 c 0
 38 519 l 0
 23 521 2 537 -24 568 c 0
 -32 577 -37 587 -38 596 c 1
35 861 m 0
 42 861 l 0
 51 856 l 0
 64 847 75 837 82 826 c 0
 87 819 94 805 101 783 c 0
 104 775 108 769 111 764 c 0
 127 741 158 728 205 725 c 0
 229 727 l 0
 260 732 284 750 300 781 c 0
 307 798 311 813 311 828 c 0
 311 837 310 843 309 848 c 0
 307 858 l 0
 307 860 308 861 309 861 c 0
 317 859 l 0
 324 855 l 0
 339 846 350 835 357 820 c 0
 365 809 369 795 369 778 c 0
 369 746 356 718 330 693 c 0
 325 689 l 0
 324 688 l 0
 304 673 282 666 258 666 c 0
 211 666 162 689 111 734 c 0
 104 741 95 751 83 764 c 0
 67 781 53 805 40 836 c 0
 35 845 33 852 33 857 c 0
 33 858 34 860 35 861 c 0
EndSplineSet
Comment: "Candra E (Itrans: e.C)" 
Colour: ffffff
EndChar
StartChar: uni090E
Encoding: 2318 2318 10
Width: 634
Flags: W
HStem: 519 77<-38 352 390 598>
VStem: 38 77<191 519> 352 77<316 519> 352 78<229 331>
DStem: 59 801 66 824 59 787 74 801 158 82 209 82 359 -57 426 -68 359 -57 209 82 436 -109 426 -68
Fore
388 596 m 1
 387 597 l 0
 377 645 358 674 331 683 c 0
 293 695 263 701 240 701 c 0
 166 699 l 0
 99 699 63 728 59 787 c 0
 59 801 l 0
 59 820 60 830 62 831 c 0
 66 824 l 0
 74 801 l 0
 81 782 101 771 133 766 c 0
 142 763 153 762 166 762 c 0
 209 762 259 757 316 746 c 0
 325 744 331 742 334 741 c 0
 367 725 387 706 393 684 c 0
 395 676 l 0
 395 650 394 630 393 615 c 0
 391 605 390 599 390 596 c 0
 572 596 l 0
 593 596 605 595 607 594 c 0
 616 591 631 579 652 558 c 0
 667 543 676 530 678 520 c 0
 667 517 657 516 648 516 c 0
 598 519 l 0
 429 519 l 0
 429 303 l 0
 430 229 l 0
 427 212 424 200 421 192 c 0
 411 170 395 154 373 143 c 0
 362 138 353 135 344 135 c 0
 337 135 333 136 330 137 c 0
 322 138 308 149 288 168 c 0
 287 169 286 171 285 172 c 0
 269 190 260 203 258 212 c 0
 286 220 302 225 307 227 c 0
 314 231 322 237 329 245 c 0
 344 264 352 293 352 331 c 0
 352 345 l 0
 352 519 l 0
 115 519 l 0
 115 174 l 0
 115 158 116 149 117 146 c 0
 118 143 128 136 147 124 c 0
 209 82 l 0
 426 -68 l 0
 477 -102 510 -131 525 -154 c 0
 534 -167 541 -181 544 -195 c 0
 545 -217 l 0
 542 -242 529 -259 506 -270 c 0
 496 -273 487 -275 479 -275 c 0
 472 -275 l 0
 456 -273 437 -261 416 -240 c 0
 412 -236 l 0
 396 -220 387 -206 385 -195 c 0
 411 -198 l 0
 412 -198 l 0
 433 -198 450 -187 461 -164 c 0
 463 -161 l 0
 463 -160 l 0
 467 -152 469 -145 469 -139 c 0
 469 -137 468 -135 467 -132 c 0
 465 -129 455 -121 436 -109 c 0
 359 -57 l 0
 158 82 l 0
 113 113 87 131 82 137 c 0
 65 149 52 164 42 182 c 0
 39 185 38 196 38 214 c 0
 38 519 l 0
 23 521 2 537 -24 568 c 0
 -33 579 -38 588 -38 596 c 0
 388 596 l 1
EndSplineSet
Comment: "Short E (Itrans: ??)" 
Colour: ffffff
EndChar
StartChar: uni090F
Encoding: 2319 2319 11
Width: 675
Flags: W
HStem: 519 77<13 402 13 648>
VStem: 89 77<191 519> 402 77<316 519>
DStem: 209 82 260 82 486 -109 477 -68
Fore
13 596 m 1
 623 596 l 0
 644 596 655 595 658 594 c 0
 667 591 682 579 703 558 c 0
 718 543 727 530 729 520 c 0
 718 517 708 516 699 516 c 0
 648 519 l 0
 479 519 l 0
 479 303 l 0
 479 229 l 0
 479 217 477 205 472 192 c 0
 462 170 446 154 424 143 c 0
 413 138 404 135 395 135 c 0
 388 135 384 136 381 137 c 0
 372 139 358 149 339 168 c 0
 338 169 337 171 336 172 c 0
 321 187 312 201 309 212 c 0
 338 220 354 225 357 227 c 0
 365 230 373 236 380 245 c 0
 395 264 402 292 402 331 c 0
 402 345 l 0
 402 519 l 0
 166 519 l 0
 166 174 l 0
 166 158 167 149 168 146 c 0
 169 143 179 136 198 124 c 0
 260 82 l 0
 477 -68 l 0
 528 -103 561 -131 576 -154 c 0
 585 -167 592 -181 595 -195 c 0
 596 -217 l 0
 592 -242 578 -260 555 -270 c 0
 535 -275 l 0
 522 -275 l 0
 505 -272 487 -261 467 -240 c 0
 463 -236 l 0
 447 -221 438 -208 436 -195 c 0
 462 -198 l 0
 463 -198 l 0
 485 -196 502 -183 514 -160 c 0
 518 -152 520 -145 520 -139 c 0
 520 -137 519 -135 518 -132 c 0
 516 -129 505 -121 486 -109 c 0
 209 82 l 0
 164 113 139 131 133 137 c 0
 116 149 103 164 93 182 c 0
 90 185 89 196 89 214 c 0
 89 519 l 0
 74 521 53 537 26 568 c 0
 19 577 14 587 13 596 c 1
EndSplineSet
Comment: "E (Itrans: e)" 
Colour: ffffff
EndChar
StartChar: uni0910
Encoding: 2320 2320 12
Width: 634
Flags: W
HStem: 519 77<-38 352 388 598>
VStem: 38 77<191 519> 352 77<316 519> 352 78<229 331>
DStem: 158 82 209 82 436 -109 426 -68
Fore
381 596 m 1
 372 598 360 607 343 624 c 0
 273 703 l 0
 267 710 261 715 255 720 c 0
 211 754 161 777 105 789 c 0
 102 790 84 793 53 796 c 0
 30 798 l 0
 16 804 -2 820 -24 847 c 0
 -33 854 -37 863 -38 873 c 0
 77 873 191 816 305 701 c 0
 330 676 351 652 367 629 c 0
 380 613 387 602 388 596 c 0
 572 596 l 0
 593 596 605 595 607 594 c 0
 616 591 631 579 652 558 c 0
 667 543 676 530 678 520 c 0
 667 517 657 516 648 516 c 0
 598 519 l 0
 429 519 l 0
 429 303 l 0
 430 229 l 0
 427 212 424 200 421 192 c 0
 411 170 395 154 373 143 c 0
 362 138 353 135 344 135 c 0
 337 135 333 136 330 137 c 0
 322 138 308 149 288 168 c 0
 287 169 286 171 285 172 c 0
 269 190 260 203 258 212 c 0
 286 220 302 225 307 227 c 0
 314 231 322 237 329 245 c 0
 344 264 352 293 352 331 c 0
 352 345 l 0
 352 519 l 0
 115 519 l 0
 115 174 l 0
 115 158 116 149 117 146 c 0
 118 143 128 136 147 124 c 0
 209 82 l 0
 426 -68 l 0
 477 -102 510 -131 525 -154 c 0
 534 -167 541 -181 544 -195 c 0
 545 -217 l 0
 542 -242 529 -259 506 -270 c 0
 496 -273 487 -275 479 -275 c 0
 472 -275 l 0
 456 -273 437 -261 416 -240 c 0
 412 -236 l 0
 396 -220 387 -206 385 -195 c 0
 411 -198 l 0
 412 -198 l 0
 434 -196 451 -183 463 -160 c 0
 467 -152 469 -145 469 -139 c 0
 469 -137 468 -135 467 -132 c 0
 465 -129 455 -121 436 -109 c 0
 158 82 l 0
 113 113 87 131 82 137 c 0
 65 149 52 164 42 182 c 0
 39 185 38 196 38 214 c 0
 38 519 l 0
 23 521 2 537 -24 568 c 0
 -32 577 -37 587 -38 596 c 0
 381 596 l 1
EndSplineSet
Comment: "AI (Itrans: ai)" 
Colour: ffffff
EndChar
StartChar: uni0911
Encoding: 2321 2321 13
Width: 972
Flags: W
HStem: 277 78<144 231> 499 78<220 294> 516 78<716 784.138 716 800 716 948> 519 77<467 556 715 715>
VStem: 346 77<420 488> 588 79<49 519> 592 75<353 519> 800 77<82 517>
DStem: 703 596 703 596 628 594 715 594 819 838 819 838 816 835 827 837
Fore
546 837 m 0
 553 837 l 0
 557 835 560 833 562 832 c 0
 576 821 586 811 593 802 c 0
 596 799 602 785 611 760 c 0
 622 739 l 0
 639 716 671 703 716 700 c 0
 742 702 l 0
 774 709 797 729 812 762 c 0
 818 780 l 0
 821 805 l 0
 818 823 l 0
 816 835 l 0
 819 838 l 0
 827 837 l 0
 840 831 853 818 868 797 c 0
 875 784 879 771 879 756 c 0
 879 745 877 734 874 722 c 0
 866 698 853 679 835 664 c 0
 816 650 794 643 770 643 c 0
 724 643 678 662 633 701 c 0
 629 704 626 706 625 707 c 0
 591 737 566 772 551 812 c 0
 546 824 544 831 544 832 c 0
 546 837 l 0
716 594 m 1
 921 594 l 0
 943 594 955 594 956 593 c 0
 961 591 969 586 979 579 c 0
 1008 556 1024 535 1028 518 c 0
 1019 515 1009 514 999 514 c 0
 948 517 l 0
 877 517 l 0
 877 -37 l 0
 861 -37 840 -21 815 12 c 0
 808 19 803 27 801 34 c 0
 799 61 l 0
 800 83 l 0
 800 518 l 0
 797 518 794 518 793 519 c 0
 788 517 778 516 765 516 c 0
 715 518 l 0
 714 518 l 0
 667 519 l 0
 667 -38 l 0
 656 -37 640 -26 620 -4 c 0
 616 0 l 0
 601 13 593 24 592 31 c 0
 589 40 588 50 588 59 c 0
 590 99 l 0
 590 229 l 0
 543 214 498 206 453 206 c 0
 453 169 451 145 446 133 c 0
 439 113 429 97 418 84 c 0
 406 72 394 63 381 58 c 0
 359 48 339 43 321 43 c 0
 307 43 291 46 273 51 c 0
 215 70 158 118 102 195 c 0
 81 226 64 255 51 282 c 0
 38 309 l 0
 38 317 l 0
 67 307 94 279 117 234 c 0
 144 186 l 0
 154 166 164 152 173 145 c 0
 184 136 200 129 221 125 c 0
 253 123 l 0
 297 125 331 144 355 180 c 0
 365 194 371 209 374 226 c 0
 377 256 l 0
 377 265 376 273 374 281 c 0
 373 290 371 296 367 300 c 0
 360 305 353 308 346 308 c 0
 324 303 l 0
 282 286 l 0
 258 280 241 277 231 277 c 0
 224 277 218 278 213 280 c 0
 206 283 191 295 170 316 c 0
 155 329 147 342 144 355 c 0
 209 355 263 376 307 418 c 0
 314 426 l 0
 330 442 340 458 343 475 c 0
 346 488 l 0
 346 489 345 491 343 493 c 0
 338 497 322 499 294 499 c 0
 254 499 209 492 158 478 c 0
 117 463 l 0
 108 463 l 0
 93 465 73 482 49 514 c 0
 41 523 37 530 37 533 c 0
 39 539 l 0
 41 540 l 0
 50 546 72 553 108 562 c 0
 150 572 187 577 220 577 c 0
 266 577 303 567 331 547 c 0
 391 506 422 464 423 420 c 0
 420 396 l 0
 419 395 418 393 418 392 c 0
 415 382 408 371 399 359 c 0
 388 346 379 336 372 331 c 0
 378 326 387 317 400 303 c 0
 414 288 l 0
 415 287 415 287 416 287 c 0
 432 286 l 0
 435 286 441 287 451 290 c 0
 484 296 519 306 554 321 c 0
 582 334 l 0
 585 336 588 339 589 342 c 0
 591 346 592 352 592 361 c 0
 590 395 l 0
 590 519 l 0
 524 519 l 0
 496 519 l 0
 492 520 l 0
 485 521 470 533 447 556 c 0
 432 573 424 586 422 594 c 0
 425 595 440 596 467 596 c 0
 556 596 l 0
 628 594 l 0
 703 596 l 0
 715 594 l 0
 716 594 l 1
EndSplineSet
Comment: "Chandra O (Itrans: A.c)" 
Colour: ffffff
EndChar
StartChar: uni0912
Encoding: 2322 2322 14
Width: 972
Flags: W
HStem: 277 78<144 231> 499 78<220 294> 516 78<716 784.138 716 800 841 948> 519 77<467 556 715 715> 699 63<597.679 618>
VStem: 346 77<420 488> 588 79<49 519> 592 75<353 519> 800 77<82 517> 839 2<594 596>
DStem: 510 801 518 824 510 787 525 801 703 596 703 596 628 594 715 594
Fore
839 594 m 1
 839 596 l 0
 832 637 816 664 791 679 c 0
 782 683 l 0
 744 695 714 701 691 701 c 0
 617 699 l 0
 551 699 515 728 510 787 c 0
 510 801 l 0
 510 820 511 830 513 831 c 0
 518 824 l 0
 525 801 l 0
 532 782 552 771 584 766 c 0
 593 763 604 762 617 762 c 0
 660 762 711 757 768 746 c 0
 777 744 782 742 785 741 c 0
 818 725 838 706 844 684 c 0
 846 676 l 0
 846 650 845 630 844 615 c 0
 843 605 842 599 841 596 c 0
 841 594 l 0
 921 594 l 0
 943 594 955 594 956 593 c 0
 961 591 969 586 979 579 c 0
 1008 556 1024 535 1028 518 c 0
 1019 515 1009 514 999 514 c 0
 948 517 l 0
 877 517 l 0
 877 -37 l 0
 861 -37 840 -21 815 12 c 0
 808 19 803 27 801 34 c 0
 799 61 l 0
 800 83 l 0
 800 518 l 0
 797 518 794 518 793 519 c 0
 788 517 778 516 765 516 c 0
 715 518 l 0
 714 518 l 0
 667 519 l 0
 667 -38 l 0
 656 -37 640 -26 620 -4 c 0
 616 0 l 0
 601 13 593 24 592 31 c 0
 589 40 588 50 588 59 c 0
 590 99 l 0
 590 229 l 0
 543 214 498 206 453 206 c 0
 453 169 451 145 446 133 c 0
 439 113 429 97 418 84 c 0
 406 72 394 63 381 58 c 0
 359 48 339 43 321 43 c 0
 307 43 291 46 273 51 c 0
 215 70 158 118 102 195 c 0
 81 226 64 255 51 282 c 0
 38 309 l 0
 38 317 l 0
 67 307 94 279 117 234 c 0
 144 186 l 0
 154 166 164 152 173 145 c 0
 184 136 200 129 221 125 c 0
 253 123 l 0
 297 125 331 144 355 180 c 0
 365 194 371 209 374 226 c 0
 377 256 l 0
 377 265 376 273 374 281 c 0
 373 290 371 296 367 300 c 0
 360 305 353 308 346 308 c 0
 324 303 l 0
 282 286 l 0
 258 280 241 277 231 277 c 0
 224 277 218 278 213 280 c 0
 206 283 191 295 170 316 c 0
 155 329 147 342 144 355 c 0
 209 355 263 376 307 418 c 0
 314 426 l 0
 330 442 340 458 343 475 c 0
 346 488 l 0
 346 489 345 491 343 493 c 0
 338 497 322 499 294 499 c 0
 254 499 209 492 158 478 c 0
 117 463 l 0
 108 463 l 0
 93 465 73 482 49 514 c 0
 41 523 37 530 37 533 c 0
 39 539 l 0
 41 540 l 0
 50 546 72 553 108 562 c 0
 150 572 187 577 220 577 c 0
 266 577 303 567 331 547 c 0
 391 506 422 464 423 420 c 0
 420 396 l 0
 419 395 418 393 418 392 c 0
 415 382 408 371 399 359 c 0
 388 346 379 336 372 331 c 0
 378 326 387 317 400 303 c 0
 414 288 l 0
 415 287 415 287 416 287 c 0
 432 286 l 0
 435 286 441 287 451 290 c 0
 484 296 519 306 554 321 c 0
 582 334 l 0
 585 336 588 339 589 342 c 0
 591 346 592 352 592 361 c 0
 590 395 l 0
 590 519 l 0
 524 519 l 0
 496 519 l 0
 492 520 l 0
 485 521 470 533 447 556 c 0
 432 573 424 586 422 594 c 0
 425 595 440 596 467 596 c 0
 556 596 l 0
 628 594 l 0
 703 596 l 0
 715 594 l 0
 716 594 l 0
 839 594 l 1
EndSplineSet
Comment: "Short O (Itrans: ??)" 
Colour: ffffff
EndChar
StartChar: uni0913
Encoding: 2323 2323 15
Width: 972
Flags: W
HStem: 277 78<144 231> 499 78<220 294> 516 78<716 784.138 716 800 841 948> 519 77<467 556 715 715>
VStem: 346 77<420 488> 588 79<49 519> 592 75<353 519> 800 77<82 517>
DStem: 703 596 703 596 628 594 715 594
Fore
841 594 m 1
 921 594 l 0
 943 594 955 594 956 593 c 0
 961 591 969 586 979 579 c 0
 1008 556 1024 535 1028 518 c 0
 1019 515 1009 514 999 514 c 0
 948 517 l 0
 877 517 l 0
 877 -37 l 0
 861 -37 840 -21 815 12 c 0
 808 19 803 27 801 34 c 0
 799 61 l 0
 800 83 l 0
 800 518 l 0
 797 518 794 518 793 519 c 0
 788 517 778 516 765 516 c 0
 715 518 l 0
 714 518 l 0
 667 519 l 0
 667 -38 l 0
 656 -37 640 -26 620 -4 c 0
 616 0 l 0
 601 13 593 24 592 31 c 0
 589 40 588 50 588 59 c 0
 590 99 l 0
 590 229 l 0
 543 214 498 206 453 206 c 0
 453 169 451 145 446 133 c 0
 439 113 429 97 418 84 c 0
 406 72 394 63 381 58 c 0
 359 48 339 43 321 43 c 0
 307 43 291 46 273 51 c 0
 215 70 158 118 102 195 c 0
 81 226 64 255 51 282 c 0
 38 309 l 0
 38 317 l 0
 67 307 94 279 117 234 c 0
 144 186 l 0
 154 166 164 152 173 145 c 0
 184 136 200 129 221 125 c 0
 253 123 l 0
 297 125 331 144 355 180 c 0
 365 194 371 209 374 226 c 0
 377 256 l 0
 377 265 376 273 374 281 c 0
 373 290 371 296 367 300 c 0
 360 305 353 308 346 308 c 0
 324 303 l 0
 282 286 l 0
 258 280 241 277 231 277 c 0
 224 277 218 278 213 280 c 0
 206 283 191 295 170 316 c 0
 155 329 147 342 144 355 c 0
 209 355 263 376 307 418 c 0
 314 426 l 0
 330 442 340 458 343 475 c 0
 346 488 l 0
 346 489 345 491 343 493 c 0
 338 497 322 499 294 499 c 0
 254 499 209 492 158 478 c 0
 117 463 l 0
 108 463 l 0
 93 465 73 482 49 514 c 0
 41 523 37 530 37 533 c 0
 39 539 l 0
 41 540 l 0
 50 546 72 553 108 562 c 0
 150 572 187 577 220 577 c 0
 266 577 303 567 331 547 c 0
 391 506 422 464 423 420 c 0
 420 396 l 0
 419 395 418 393 418 392 c 0
 415 382 408 371 399 359 c 0
 388 346 379 336 372 331 c 0
 378 326 387 317 400 303 c 0
 414 288 l 0
 415 287 415 287 416 287 c 0
 432 286 l 0
 435 286 441 287 451 290 c 0
 484 296 519 306 554 321 c 0
 582 334 l 0
 585 336 588 339 589 342 c 0
 591 346 592 352 592 361 c 0
 590 395 l 0
 590 519 l 0
 524 519 l 0
 496 519 l 0
 492 520 l 0
 485 521 470 533 447 556 c 0
 432 573 424 586 422 594 c 0
 425 595 440 596 467 596 c 0
 556 596 l 0
 628 594 l 0
 703 596 l 0
 715 594 l 0
 716 594 l 0
 841 594 l 1
841 594 m 1
 801 619 l 0
 796 624 l 0
 727 703 l 0
 719 711 713 717 708 720 c 0
 664 754 614 777 559 789 c 0
 554 790 537 793 506 796 c 0
 483 798 l 0
 468 804 450 820 429 847 c 0
 420 854 416 863 415 873 c 0
 531 873 645 816 758 701 c 0
 783 676 804 652 820 629 c 0
 841 594 l 1
EndSplineSet
Comment: "O (Itrans: o)" 
Colour: ffffff
EndChar
StartChar: uni0914
Encoding: 2324 2324 16
Width: 972
Flags: W
HStem: 277 78<144 231> 499 78<220 294> 516 78<716 784.138 716 800 846 948> 519 77<467 556 715 715>
VStem: 346 77<420 488> 588 79<49 519> 592 75<353 519> 800 77<82 517>
DStem: 703 596 703 596 628 594 715 594
Fore
846 594 m 1
 921 594 l 0
 943 594 955 594 956 593 c 0
 961 591 969 586 979 579 c 0
 1008 556 1024 535 1028 518 c 0
 1019 515 1009 514 999 514 c 0
 948 517 l 0
 877 517 l 0
 877 -37 l 0
 861 -37 840 -21 815 12 c 0
 808 19 803 27 801 34 c 0
 799 61 l 0
 800 83 l 0
 800 518 l 0
 797 518 794 518 793 519 c 0
 788 517 778 516 765 516 c 0
 715 518 l 0
 714 518 l 0
 667 519 l 0
 667 -38 l 0
 656 -37 640 -26 620 -4 c 0
 616 0 l 0
 601 13 593 24 592 31 c 0
 589 40 588 50 588 59 c 0
 590 99 l 0
 590 229 l 0
 543 214 498 206 453 206 c 0
 453 169 451 145 446 133 c 0
 439 113 429 97 418 84 c 0
 406 72 394 63 381 58 c 0
 359 48 339 43 321 43 c 0
 307 43 291 46 273 51 c 0
 215 70 158 118 102 195 c 0
 81 226 64 255 51 282 c 0
 38 309 l 0
 38 317 l 0
 67 307 94 279 117 234 c 0
 144 186 l 0
 154 166 164 152 173 145 c 0
 184 136 200 129 221 125 c 0
 253 123 l 0
 297 125 331 144 355 180 c 0
 365 194 371 209 374 226 c 0
 377 256 l 0
 377 265 376 273 374 281 c 0
 373 290 371 296 367 300 c 0
 360 305 353 308 346 308 c 0
 324 303 l 0
 282 286 l 0
 258 280 241 277 231 277 c 0
 224 277 218 278 213 280 c 0
 206 283 191 295 170 316 c 0
 155 329 147 342 144 355 c 0
 209 355 263 376 307 418 c 0
 314 426 l 0
 330 442 340 458 343 475 c 0
 346 488 l 0
 346 489 345 491 343 493 c 0
 338 497 322 499 294 499 c 0
 254 499 209 492 158 478 c 0
 117 463 l 0
 108 463 l 0
 93 465 73 482 49 514 c 0
 41 523 37 530 37 533 c 0
 39 539 l 0
 41 540 l 0
 50 546 72 553 108 562 c 0
 150 572 187 577 220 577 c 0
 266 577 303 567 331 547 c 0
 391 506 422 464 423 420 c 0
 420 396 l 0
 419 395 418 393 418 392 c 0
 415 382 408 371 399 359 c 0
 388 346 379 336 372 331 c 0
 378 326 387 317 400 303 c 0
 414 288 l 0
 415 287 415 287 416 287 c 0
 432 286 l 0
 435 286 441 287 451 290 c 0
 484 296 519 306 554 321 c 0
 582 334 l 0
 585 336 588 339 589 342 c 0
 591 346 592 352 592 361 c 0
 590 395 l 0
 590 519 l 0
 524 519 l 0
 496 519 l 0
 492 520 l 0
 485 521 470 533 447 556 c 0
 432 573 424 586 422 594 c 0
 425 595 440 596 467 596 c 0
 556 596 l 0
 628 594 l 0
 703 596 l 0
 715 594 l 0
 716 594 l 0
 846 594 l 1
846 594 m 1
 794 622 l 0
 703 676 610 706 513 712 c 0
 487 714 l 0
 472 720 454 736 433 763 c 0
 426 773 421 782 419 789 c 0
 529 789 644 752 764 678 c 0
 751 719 733 751 710 774 c 0
 695 789 674 801 647 810 c 0
 626 817 609 820 596 821 c 0
 564 824 l 0
 555 828 541 840 520 861 c 0
 504 879 496 892 495 900 c 0
 584 900 668 855 747 766 c 0
 760 753 775 733 792 707 c 0
 825 659 843 621 846 594 c 1
EndSplineSet
Comment: "AU (Itrans: au)" 
Colour: ffffff
EndChar
StartChar: uni0915
Encoding: 2325 2325 17
Width: 721
Flags: W
HStem: 158 78<147 219> 375 78<145 215> 519 77<-38 32 -38 269 -38 683>
VStem: 0 75<269 342> 269 77<30 165 405 519>
Fore
269 369 m 1
 250 373 232 375 215 375 c 0
 163 375 124 358 98 325 c 0
 83 308 75 289 75 269 c 0
 75 260 77 254 80 250 c 0
 81 249 87 246 98 242 c 0
 122 234 130 236 147 236 c 0
 194 236 230 251 254 280 c 0
 259 286 264 294 267 305 c 0
 269 312 270 321 270 332 c 0
 269 369 l 1
-38 596 m 1
 653 596 l 0
 678 596 691 595 694 594 c 0
 705 591 720 579 739 558 c 0
 754 541 763 528 765 520 c 0
 639 519 l 0
 634 519 l 0
 346 519 l 0
 346 409 l 0
 367 418 383 423 395 423 c 0
 426 423 l 0
 463 416 502 392 541 353 c 0
 572 321 590 292 596 266 c 0
 599 232 l 0
 595 182 l 0
 590 137 579 83 564 18 c 0
 549 18 529 33 503 64 c 0
 500 67 l 0
 491 80 487 88 487 92 c 0
 487 97 491 114 499 143 c 0
 501 149 l 0
 501 150 l 0
 509 188 515 228 519 270 c 0
 523 312 l 0
 522 325 520 334 517 337 c 0
 514 343 501 346 478 346 c 0
 435 346 398 326 368 286 c 0
 353 265 346 236 346 198 c 0
 346 165 l 0
 346 -38 l 0
 334 -37 320 -27 303 -10 c 0
 283 10 271 24 269 31 c 0
 269 54 l 0
 269 74 l 0
 269 165 l 0
 253 160 236 158 219 158 c 0
 158 158 100 187 47 246 c 0
 46 247 45 249 43 251 c 0
 14 282 0 313 0 342 c 0
 0 350 1 356 2 360 c 0
 8 394 31 420 72 438 c 0
 96 448 120 453 145 453 c 0
 193 453 233 437 269 405 c 0
 269 519 l 0
 104 519 l 0
 46 519 l 0
 37 520 32 518 31 519 c 0
 16 525 -3 542 -24 568 c 0
 -32 577 -37 587 -38 596 c 1
EndSplineSet
AnchorPoint: "Virama" 310 -10 basechar 0
AnchorPoint: "Anchor-0" 316 610 basechar 0
Position: 0 0 ' RQD' dx=0 dy=0 dh=0 dv=0
Comment: "KA (Itrans: ka)" 
Colour: ffffff
EndChar
StartChar: uni0916
Encoding: 2326 2326 18
Width: 774
Flags: W
HStem: 131 78<369 439> 348 76<367 440> 519 77<-38 132 -38 491 -38 738>
VStem: 132 77<454 519> 221 76<244 314> 492 76<28 519>
Fore
425 347 m 0
 381 341 347 327 324 305 c 0
 306 286 297 265 297 244 c 0
 297 233 298 226 301 223 c 0
 303 221 311 218 324 214 c 0
 342 211 357 209 369 209 c 0
 381 209 390 210 395 211 c 0
 434 216 462 231 477 255 c 0
 486 270 491 291 491 317 c 0
 491 330 490 337 489 340 c 0
 474 344 l 0
 459 347 448 348 440 348 c 0
 433 348 428 348 425 347 c 0
-38 596 m 1
 702 596 l 0
 742 596 l 0
 745 595 746 594 747 594 c 0
 756 590 770 578 791 559 c 0
 807 543 816 530 818 520 c 0
 809 517 799 516 789 516 c 0
 738 519 l 0
 568 519 l 0
 568 -38 l 0
 558 -37 544 -28 526 -11 c 0
 507 9 496 22 494 27 c 0
 493 28 492 30 492 31 c 0
 490 50 l 0
 491 66 l 0
 491 139 l 0
 474 134 456 131 439 131 c 0
 382 131 326 159 271 214 c 0
 238 247 221 281 221 314 c 0
 221 322 221 328 222 332 c 0
 229 367 252 392 290 408 c 0
 313 419 339 424 367 424 c 0
 413 424 454 408 491 377 c 0
 491 519 l 0
 203 519 l 0
 207 506 209 485 209 454 c 0
 209 387 199 335 178 296 c 0
 158 259 131 239 97 237 c 0
 129 180 l 0
 132 177 l 0
 157 143 197 104 252 61 c 0
 291 31 312 14 316 9 c 0
 329 -4 l 0
 341 -17 348 -28 350 -38 c 0
 344 -38 333 -32 318 -21 c 0
 259 25 l 0
 159 106 89 181 49 248 c 0
 37 269 l 0
 18 308 6 340 2 365 c 0
 -1 393 l 0
 1 397 l 0
 6 398 l 0
 10 398 16 395 23 389 c 0
 48 370 65 352 74 335 c 0
 102 372 l 0
 102 373 102 373 103 374 c 0
 122 413 132 461 132 519 c 0
 63 519 l 0
 31 520 l 0
 31 520 l 0
 20 523 6 535 -12 555 c 0
 -28 570 -37 583 -38 596 c 1
EndSplineSet
AnchorPoint: "Ra_Vattu2" 535 15 basechar 0
AnchorPoint: "Virama" 539 -11 basechar 0
AnchorPoint: "Anchor-0" 544 610 basechar 0
Comment: "KHA (Itrans: kha)" 
Colour: ffffff
EndChar
StartChar: uni0917
Encoding: 2327 2327 19
Width: 673
Flags: W
HStem: 518 78<-38 90 -38 391 -38 638>
VStem: 113 75<220 291> 391 77<82 519>
Fore
188 220 m 0
 188 179 184 154 176 145 c 0
 167 134 155 129 138 129 c 0
 132 129 128 129 125 130 c 0
 114 131 105 134 99 137 c 0
 78 146 53 165 25 196 c 0
 13 211 5 223 2 234 c 0
 0 259 l 0
 0 285 8 299 24 301 c 0
 41 299 l 0
 50 296 61 289 74 279 c 0
 82 273 93 263 108 248 c 0
 111 261 113 276 113 291 c 0
 113 296 112 313 109 342 c 0
 104 430 l 0
 104 436 l 0
 90 519 l 0
 42 518 l 0
 39 518 35 519 31 520 c 0
 22 523 7 535 -14 556 c 0
 -29 572 -37 585 -38 596 c 0
 609 596 l 0
 632 596 644 595 646 594 c 0
 657 591 672 579 691 558 c 0
 706 543 715 531 718 520 c 0
 707 517 697 516 688 516 c 0
 638 519 l 0
 468 519 l 0
 468 -38 l 0
 454 -37 434 -22 408 7 c 0
 407 8 406 9 405 11 c 0
 398 19 393 27 392 34 c 0
 390 61 l 0
 391 83 l 0
 391 519 l 0
 146 519 l 0
 153 499 161 472 169 438 c 0
 182 381 188 308 188 220 c 0
EndSplineSet
AnchorPoint: "Virama" 438 -14 basechar 0
AnchorPoint: "Ra_Vattu" 440 216 basechar 0
AnchorPoint: "Anchor-0" 445 610 basechar 0
Comment: "GA (Itrans: ga)" 
Colour: ffffff
EndChar
StartChar: uni0918
Encoding: 2328 2328 20
Width: 673
Flags: W
HStem: 135 78<189 237> 519 77<-38 391 -38 638>
VStem: 391 77<78 519>
DStem: 230 401 230 401 160 397 242 399
Fore
391 519 m 1
 214 519 l 0
 148 520 l 0
 127 515 l 0
 126 515 l 0
 102 506 86 488 79 463 c 0
 78 455 77 450 77 447 c 0
 77 434 78 426 81 423 c 0
 85 419 97 414 118 407 c 0
 135 402 149 398 160 397 c 0
 230 401 l 0
 242 399 l 0
 243 399 l 0
 253 398 267 388 285 367 c 0
 290 362 l 0
 303 350 311 339 315 330 c 0
 314 324 l 0
 304 323 l 0
 301 323 286 322 258 321 c 0
 205 318 169 311 152 302 c 0
 139 295 129 286 122 273 c 0
 119 268 117 262 116 255 c 0
 115 230 l 0
 115 229 116 226 117 222 c 0
 118 219 124 217 136 214 c 0
 173 211 l 0
 180 212 185 213 189 213 c 0
 244 219 297 240 348 277 c 0
 371 296 385 308 389 313 c 0
 392 316 393 323 393 334 c 0
 391 370 l 0
 391 519 l 1
-38 596 m 1
 609 596 l 0
 632 596 644 595 646 594 c 0
 657 591 672 579 691 558 c 0
 706 543 715 531 718 520 c 0
 707 517 697 516 688 516 c 0
 638 519 l 0
 468 519 l 0
 468 -38 l 0
 457 -37 442 -27 423 -8 c 0
 405 10 395 23 392 31 c 0
 389 53 l 0
 391 79 l 0
 391 179 l 0
 330 150 278 135 237 135 c 0
 205 135 175 143 147 159 c 0
 137 166 126 174 115 185 c 0
 65 228 39 270 37 309 c 0
 39 332 l 0
 41 341 45 350 52 358 c 0
 56 363 68 371 88 384 c 0
 83 387 73 395 59 409 c 0
 26 443 6 473 1 500 c 0
 0 523 l 0
 1 540 l 0
 -1 545 -8 553 -21 566 c 0
 -31 575 -37 585 -38 596 c 1
EndSplineSet
AnchorPoint: "Virama" 433 -8 basechar 0
AnchorPoint: "Ra_Vattu" 432 216 basechar 0
AnchorPoint: "Anchor-0" 445 610 basechar 0
Comment: "GHA (Itrans: gha)" 
Colour: ffffff
EndChar
StartChar: uni0919
Encoding: 2329 2329 21
Width: 708
Flags: W
HStem: 375 78<265 295> 517 79<-38 356 -38 667>
Fore
547 366 m 1
 603 312 l 0
 603 311 l 0
 548 256 l 0
 547 256 l 0
 492 311 l 0
 492 312 l 0
 547 366 l 1
-38 596 m 1
 643 596 l 0
 667 596 680 595 683 594 c 0
 692 591 706 579 727 558 c 0
 742 542 750 529 753 520 c 0
 656 519 l 0
 652 519 l 0
 434 519 l 0
 434 373 l 0
 295 375 l 0
 279 375 268 374 261 373 c 0
 220 369 194 356 183 334 c 0
 180 327 177 317 174 304 c 0
 302 313 l 0
 314 313 323 313 328 312 c 0
 368 307 404 287 436 252 c 0
 461 223 473 195 473 166 c 0
 473 151 468 134 458 116 c 0
 439 84 405 62 356 50 c 0
 329 44 308 41 292 41 c 0
 211 42 137 80 69 156 c 0
 23 207 0 251 0 289 c 0
 7 288 16 283 27 274 c 0
 54 254 70 235 76 217 c 0
 92 167 l 0
 103 151 l 0
 104 150 l 0
 122 133 150 123 189 119 c 0
 234 119 l 0
 299 123 345 144 374 183 c 0
 386 200 393 217 395 235 c 0
 266 225 l 0
 241 225 220 229 201 236 c 0
 191 239 179 246 164 259 c 0
 127 290 105 318 99 343 c 0
 96 371 l 0
 97 401 109 422 130 434 c 0
 145 442 170 448 203 452 c 0
 265 453 l 0
 356 450 l 0
 356 519 l 0
 140 519 l 0
 54 517 l 0
 49 517 43 518 35 519 c 0
 28 522 20 526 12 532 c 0
 -21 557 -37 579 -38 596 c 1
EndSplineSet
AnchorPoint: "Virama" 292 41 basechar 0
AnchorPoint: "Anchor-0" 405 610 basechar 0
Comment: "NGA (Itrans: +AH4A-Na or N^a)" 
Colour: ffffff
EndChar
StartChar: uni091A
Encoding: 2330 2330 22
Width: 712
Flags: W
HStem: 322 78<0 129 0 356> 519 77<-38 429 -38 677>
VStem: 127 78<236 304> 430 77<41 519>
Fore
430 323 m 1
 269 323 l 0
 256 323 247 322 243 321 c 0
 240 320 234 314 226 303 c 0
 212 281 205 259 205 236 c 0
 205 221 207 211 210 208 c 0
 213 205 219 204 228 204 c 0
 237 204 248 205 262 208 c 0
 305 213 347 223 390 240 c 0
 422 255 l 0
 425 257 428 259 429 261 c 0
 430 262 430 268 430 279 c 0
 430 323 l 1
-38 596 m 1
 646 596 l 0
 671 596 684 595 687 594 c 0
 698 589 712 577 731 558 c 0
 745 543 754 531 757 520 c 0
 746 517 737 516 728 516 c 0
 677 519 l 0
 507 519 l 0
 507 -38 l 0
 497 -37 483 -28 465 -11 c 0
 446 9 435 23 432 31 c 0
 431 34 430 46 430 69 c 0
 430 150 l 0
 382 135 342 128 309 128 c 0
 296 128 285 129 274 131 c 0
 253 135 230 147 207 168 c 0
 154 215 127 261 127 304 c 0
 127 312 128 318 129 323 c 0
 80 322 l 0
 77 322 73 323 69 324 c 0
 60 328 45 340 24 360 c 0
 8 378 0 391 0 400 c 0
 318 400 l 0
 342 400 355 400 356 399 c 0
 364 398 372 393 380 386 c 0
 410 360 426 341 429 328 c 0
 430 328 l 0
 430 519 l 0
 168 519 l 0
 54 518 l 0
 47 518 41 518 38 519 c 0
 33 519 25 523 14 531 c 0
 -20 558 -37 579 -38 596 c 1
EndSplineSet
AnchorPoint: "Virama" 465 -11 basechar 0
AnchorPoint: "Ra_Vattu" 478 188 basechar 0
AnchorPoint: "Anchor-0" 482 610 basechar 0
Comment: "CA (Itrans: cha)" 
Colour: ffffff
EndChar
StartChar: uni091B
Encoding: 2331 2331 23
Width: 862
Flags: W
HStem: -35 74<232 276> 520 76<-38 487 -38 828>
VStem: 487 77<438 519> 598 78<242 301>
Fore
559 186 m 1
 572 203 582 225 589 250 c 0
 595 270 598 287 598 301 c 0
 598 338 l 0
 596 347 594 353 591 356 c 0
 588 361 581 363 568 363 c 0
 557 363 546 362 536 359 c 0
 503 352 481 332 471 299 c 0
 467 288 465 277 465 266 c 0
 465 244 469 230 476 225 c 0
 479 222 488 218 505 211 c 0
 556 187 l 0
 557 186 558 186 559 186 c 1
-38 596 m 1
 785 596 l 0
 826 596 l 0
 830 596 833 595 836 594 c 0
 844 591 858 580 878 561 c 0
 895 544 904 530 906 520 c 0
 803 519 l 0
 799 519 l 0
 564 519 l 0
 564 445 l 0
 564 418 l 0
 564 417 564 416 565 415 c 0
 568 412 577 404 593 391 c 0
 597 388 600 386 601 385 c 0
 639 347 662 312 671 279 c 0
 674 267 676 255 676 242 c 0
 676 223 667 187 649 135 c 0
 646 126 l 0
 653 123 667 111 690 88 c 0
 736 43 764 6 773 -22 c 0
 776 -31 778 -42 778 -53 c 0
 775 -74 l 0
 770 -90 751 -107 718 -125 c 0
 700 -133 l 0
 672 -146 l 0
 660 -147 l 0
 646 -142 627 -125 604 -97 c 0
 597 -89 593 -81 593 -73 c 0
 597 -68 610 -61 631 -53 c 0
 664 -36 684 -23 691 -12 c 0
 698 -2 701 8 701 18 c 0
 701 23 701 26 700 28 c 0
 695 48 685 64 672 77 c 0
 655 90 643 99 635 102 c 0
 627 99 l 0
 604 72 l 0
 552 16 478 -19 383 -33 c 0
 374 -34 359 -36 339 -37 c 0
 284 -37 l 0
 280 -36 277 -35 276 -35 c 0
 253 -30 230 -17 207 4 c 0
 156 49 129 93 125 136 c 0
 126 162 l 0
 140 210 l 0
 125 217 103 236 74 265 c 0
 69 270 l 0
 36 304 15 336 5 365 c 0
 3 370 1 378 0 389 c 0
 0 396 2 403 6 410 c 0
 21 443 70 461 151 463 c 0
 206 461 l 0
 229 459 244 457 250 454 c 0
 257 451 270 441 289 422 c 0
 304 407 313 396 316 387 c 0
 316 381 l 0
 309 379 l 0
 305 380 l 0
 287 383 272 385 259 385 c 0
 193 386 l 0
 158 383 128 374 105 361 c 0
 88 351 78 335 77 314 c 0
 80 295 l 0
 84 287 89 280 94 275 c 0
 112 259 132 250 154 248 c 0
 171 249 l 0
 174 250 183 255 200 266 c 0
 206 269 l 0
 239 284 269 291 295 291 c 0
 299 291 306 290 316 288 c 0
 325 286 340 275 359 256 c 0
 362 252 l 0
 377 237 387 224 390 213 c 0
 387 212 371 210 342 208 c 0
 332 207 l 0
 331 207 l 0
 271 195 232 168 213 125 c 0
 212 121 211 117 209 114 c 0
 204 101 202 88 202 76 c 0
 202 69 202 64 203 61 c 0
 205 50 207 44 208 43 c 0
 212 40 220 39 232 39 c 0
 248 39 269 40 294 43 c 0
 394 56 474 93 533 153 c 0
 523 156 507 166 485 185 c 0
 429 230 398 273 391 314 c 0
 389 344 l 0
 391 381 407 409 438 427 c 0
 451 435 468 439 487 439 c 0
 487 519 l 0
 69 519 l 0
 37 519 l 0
 36 519 35 519 32 520 c 0
 30 520 23 524 11 533 c 0
 -20 559 -36 580 -38 596 c 1
EndSplineSet
AnchorPoint: "Virama" 284 -37 basechar 0
AnchorPoint: "Anchor-0" 540 610 basechar 0
Comment: "CHA (Itrans: Cha or chha)" 
Colour: ffffff
EndChar
StartChar: uni091C
Encoding: 2332 2332 24
Width: 789
Flags: W
HStem: 328 77<301 507> 520 76<-38 32 -38 39 39.0117 506 -38 754>
VStem: 504 81<54 519> 507 78<128 519>
Fore
-38 596 m 1
 719 596 l 0
 758 596 l 0
 761 595 763 594 764 594 c 0
 775 589 790 577 807 559 c 0
 823 542 832 529 834 520 c 0
 823 517 814 516 805 516 c 0
 754 519 l 0
 585 519 l 0
 585 -38 l 0
 570 -37 549 -21 522 11 c 0
 515 20 510 28 508 34 c 0
 505 46 504 57 504 68 c 0
 507 129 l 0
 507 328 l 0
 308 328 l 0
 368 269 398 209 398 146 c 0
 398 110 385 83 360 66 c 0
 349 60 339 57 328 56 c 0
 297 57 l 0
 264 62 229 79 191 108 c 0
 114 169 58 237 24 313 c 0
 8 350 0 380 0 405 c 0
 6 404 14 399 25 392 c 0
 51 371 68 352 75 336 c 0
 79 320 82 306 84 293 c 0
 86 286 l 0
 107 221 136 177 175 154 c 0
 190 145 205 139 220 136 c 0
 250 133 l 0
 253 133 254 133 255 134 c 0
 294 139 316 164 320 209 c 0
 318 243 l 0
 316 264 311 282 302 297 c 0
 294 310 278 327 254 346 c 0
 227 367 211 386 206 404 c 0
 297 405 l 0
 301 405 l 0
 507 405 l 0
 507 519 l 0
 79 519 l 0
 39 518 l 0
 37 518 35 519 32 520 c 0
 30 520 23 524 11 533 c 0
 -20 559 -36 580 -38 596 c 1
EndSplineSet
AnchorPoint: "Virama" 552 -15 basechar 0
AnchorPoint: "Anchor-0" 560 610 basechar 0
Comment: "JA (Itrans: ja)" 
Colour: ffffff
EndChar
StartChar: uni091D
Encoding: 2333 2333 25
Width: 809
Flags: W
HStem: 40 103<190 226> 40 129<179 190> 520 76<31 36.1138 -38 259 -38 526 -38 773>
VStem: -2 80<311 375> -2 338<375 388.04> 525 79<38 519>
Fore
336 519 m 1
 336 373 l 0
 199 377 l 0
 128 375 88 353 78 311 c 0
 78 308 78 306 77 305 c 0
 205 312 l 0
 228 312 l 0
 241 309 257 304 275 297 c 0
 285 294 295 292 304 292 c 0
 308 292 l 0
 354 294 402 301 453 312 c 0
 525 334 l 0
 526 335 l 0
 526 519 l 0
 336 519 l 1
-38 596 m 1
 736 596 l 0
 777 596 l 0
 780 595 781 594 782 594 c 0
 793 591 807 579 826 559 c 0
 843 542 852 529 854 520 c 0
 843 517 833 516 824 516 c 0
 773 519 l 0
 604 519 l 0
 604 -38 l 0
 595 -37 586 -32 576 -24 c 0
 553 -5 537 13 528 30 c 0
 526 34 525 42 525 55 c 0
 526 92 l 0
 526 234 l 0
 398 215 l 0
 364 214 l 0
 363 214 l 0
 371 201 375 186 375 170 c 0
 375 160 373 149 370 138 c 0
 359 105 339 82 312 70 c 0
 305 67 l 0
 369 -23 l 0
 377 -35 385 -50 394 -67 c 0
 412 -112 l 0
 412 -118 l 0
 405 -117 394 -110 379 -98 c 0
 376 -96 l 0
 358 -81 339 -52 320 -10 c 0
 320 -9 319 -7 318 -4 c 0
 305 25 295 43 289 49 c 0
 284 54 l 0
 275 55 l 0
 262 50 l 0
 237 43 213 40 190 40 c 0
 141 40 99 57 65 91 c 0
 44 112 32 128 31 139 c 0
 32 149 l 0
 35 155 44 163 61 173 c 0
 78 182 96 186 115 186 c 0
 136 186 155 181 174 172 c 0
 180 169 l 0
 181 169 l 0
 219 145 l 0
 222 144 224 143 226 143 c 0
 227 143 233 146 244 152 c 0
 275 172 292 199 297 234 c 0
 172 227 l 0
 143 227 119 231 102 238 c 0
 87 244 67 260 42 285 c 0
 13 316 -2 346 -2 375 c 0
 -2 409 17 432 56 443 c 0
 75 448 91 451 105 451 c 0
 180 452 l 0
 259 450 l 0
 259 519 l 0
 102 519 l 0
 45 517 l 0
 36 519 32 520 31 520 c 0
 16 526 -3 542 -24 568 c 0
 -32 577 -37 587 -38 596 c 1
EndSplineSet
AnchorPoint: "Ra_Vattu2" 579 19 basechar 0
AnchorPoint: "Virama" 576 -24 basechar 0
AnchorPoint: "Anchor-0" 579 610 basechar 0
Comment: "JHA (Itrans: jha)" 
Colour: ffffff
EndChar
StartChar: uni091E
Encoding: 2334 2334 26
Width: 712
Flags: W
HStem: 354 82<72 111> 519 77<-38 431 -38 677>
VStem: 430 77<91 519>
Fore
-38 596 m 1
 646 596 l 0
 671 596 684 595 687 594 c 0
 698 589 712 577 731 558 c 0
 745 543 754 531 757 520 c 0
 746 517 737 516 728 516 c 0
 677 519 l 0
 507 519 l 0
 507 -38 l 0
 495 -37 479 -26 460 -6 c 0
 457 -3 l 0
 443 10 434 22 431 32 c 0
 428 59 l 0
 430 92 l 0
 430 221 l 0
 383 219 l 0
 359 220 334 224 309 229 c 0
 272 237 l 0
 272 190 260 148 236 112 c 0
 216 84 191 70 162 70 c 0
 157 70 148 71 135 74 c 0
 121 78 108 85 95 96 c 0
 32 145 0 200 0 261 c 0
 9 260 17 255 25 247 c 0
 53 224 70 204 76 189 c 0
 80 154 l 0
 84 147 l 0
 85 146 86 146 87 146 c 0
 102 146 l 0
 118 148 133 158 147 175 c 0
 172 202 188 241 194 294 c 0
 195 328 l 0
 195 335 193 342 189 349 c 0
 188 352 180 354 165 356 c 0
 141 355 l 0
 111 354 l 0
 104 354 98 356 94 359 c 0
 75 373 59 389 46 407 c 0
 40 414 37 420 37 423 c 0
 37 426 38 428 40 429 c 0
 47 434 57 436 72 436 c 0
 82 436 90 436 95 435 c 0
 137 428 181 399 228 346 c 0
 239 333 246 323 249 317 c 0
 255 308 259 302 261 301 c 0
 262 300 272 299 292 297 c 0
 340 297 l 0
 354 298 371 300 391 305 c 0
 414 310 426 315 429 318 c 0
 431 329 l 0
 430 343 l 0
 430 519 l 0
 168 519 l 0
 54 518 l 0
 47 518 41 518 38 519 c 0
 33 519 25 523 14 531 c 0
 -20 558 -37 579 -38 596 c 1
EndSplineSet
AnchorPoint: "Virama" 460 -6 basechar 0
AnchorPoint: "Anchor-0" 480 610 basechar 0
Comment: "NYA (Itrans: +AH4A-na or JNa)" 
Colour: ffffff
EndChar
StartChar: uni091F
Encoding: 2335 2335 27
Width: 609
Flags: W
HStem: 18 78<208 283> 519 77<-38 275 -38 571>
VStem: 275 78<404 519>
DStem: 408 148 409 148 396 146 420 146
Fore
-38 596 m 1
 551 596 l 0
 570 596 581 595 583 594 c 0
 593 591 608 578 629 556 c 0
 643 541 651 529 653 520 c 0
 563 519 l 0
 559 519 l 0
 353 519 l 0
 353 342 l 0
 353 335 352 331 351 330 c 0
 349 328 345 327 340 327 c 0
 327 328 l 0
 307 327 288 325 269 322 c 0
 196 312 142 288 107 251 c 0
 87 228 77 203 76 174 c 0
 77 165 l 0
 77 164 l 0
 78 145 81 132 88 125 c 0
 98 113 122 105 160 100 c 0
 174 97 190 96 208 96 c 0
 248 96 292 104 339 121 c 0
 396 146 l 0
 408 148 l 0
 409 148 l 0
 420 146 l 0
 422 146 426 144 433 139 c 0
 448 126 462 112 474 98 c 0
 481 87 485 80 485 75 c 0
 483 70 472 65 453 60 c 0
 418 45 384 33 350 25 c 0
 323 20 301 18 283 18 c 0
 196 19 120 54 57 122 c 0
 25 157 6 192 1 227 c 0
 0 258 l 0
 6 307 39 346 99 373 c 0
 107 378 119 382 135 387 c 0
 183 399 230 405 275 405 c 0
 275 519 l 0
 105 519 l 0
 47 516 l 0
 39 517 34 519 31 520 c 0
 16 526 -3 542 -24 568 c 0
 -32 577 -37 587 -38 596 c 1
EndSplineSet
AnchorPoint: "Virama" 283 18 basechar 0
AnchorPoint: "Anchor-0" 322 610 basechar 0
Comment: "TTA (Itrans: Ta)" 
Colour: ffffff
EndChar
StartChar: uni0920
Encoding: 2336 2336 28
Width: 609
Flags: W
HStem: 327 79<282 373> 520 76<-38 32 -38 297 -38 565>
VStem: 0 77<171 248> 297 77<405 519> 408 77<166 252>
Fore
373 328 m 1
 290 327 l 0
 270 326 252 323 237 320 c 0
 156 305 105 271 86 219 c 0
 80 203 77 187 77 171 c 0
 77 146 81 130 90 123 c 0
 103 112 130 103 171 98 c 0
 217 96 l 0
 286 98 337 117 371 152 c 0
 390 172 402 196 407 223 c 0
 408 252 l 0
 408 263 405 274 398 286 c 0
 375 321 l 0
 373 327 l 0
 373 328 l 1
-38 596 m 1
 551 596 l 0
 570 596 581 595 583 594 c 0
 593 591 608 578 629 556 c 0
 643 541 651 529 653 520 c 0
 642 517 632 516 623 516 c 0
 565 519 l 0
 374 519 l 0
 374 330 l 0
 386 328 404 314 429 289 c 0
 430 288 431 286 432 285 c 0
 467 244 485 204 485 166 c 0
 485 143 479 121 466 102 c 0
 433 49 378 21 303 18 c 0
 254 20 l 0
 217 23 184 32 154 47 c 0
 104 71 64 106 33 151 c 0
 11 184 0 216 0 248 c 0
 0 274 8 298 23 321 c 0
 57 370 127 398 233 405 c 0
 282 406 l 0
 289 406 294 406 297 405 c 0
 297 519 l 0
 115 519 l 0
 51 516 l 0
 42 517 35 519 32 520 c 0
 30 520 23 524 11 533 c 0
 -20 559 -36 580 -38 596 c 1
EndSplineSet
AnchorPoint: "Virama" 303 18 basechar 0
AnchorPoint: "Anchor-0" 344 610 basechar 0
Comment: "TTHA (Itrans: Tha)" 
Colour: ffffff
EndChar
StartChar: uni0921
Encoding: 2337 2337 29
Width: 632
Flags: W
HStem: 375 78<265 295> 517 79<-38 356 -38 600>
Fore
-38 596 m 1
 571 596 l 0
 593 596 605 595 606 594 c 0
 617 591 632 579 651 558 c 0
 665 543 674 531 677 520 c 0
 668 517 658 516 648 516 c 0
 600 519 l 0
 434 519 l 0
 434 373 l 0
 295 375 l 0
 279 375 268 374 261 373 c 0
 220 369 194 356 183 334 c 0
 180 328 177 318 174 304 c 0
 302 312 l 0
 328 312 l 0
 368 307 404 287 436 252 c 0
 461 223 473 195 473 166 c 0
 473 151 468 134 458 116 c 0
 439 84 405 62 356 50 c 0
 329 44 308 41 292 41 c 0
 211 42 137 80 69 156 c 0
 23 207 0 251 0 289 c 0
 8 288 17 282 27 273 c 0
 53 254 69 236 76 217 c 0
 92 167 l 0
 103 150 l 0
 104 149 l 0
 122 133 150 123 189 119 c 0
 234 119 l 0
 299 123 345 144 374 183 c 0
 386 198 393 215 395 234 c 0
 266 225 l 0
 243 225 221 228 201 235 c 0
 190 239 178 247 164 259 c 0
 127 290 105 318 99 343 c 0
 96 371 l 0
 97 401 109 422 130 434 c 0
 148 443 172 449 203 452 c 0
 265 453 l 0
 356 450 l 0
 356 519 l 0
 140 519 l 0
 54 517 l 0
 49 517 43 518 35 519 c 0
 28 521 20 525 12 532 c 0
 -21 557 -37 579 -38 596 c 1
EndSplineSet
AnchorPoint: "Virama" 292 41 basechar 0
AnchorPoint: "Anchor-0" 405 610 basechar 0
Comment: "DDA or (Itrans: Da)" 
Colour: ffffff
EndChar
StartChar: uni0922
Encoding: 2338 2338 30
Width: 589
Flags: W
HStem: -1 78<261 334> 362 77<253 324> 519 77<-38 324 -38 559>
VStem: 0 77<225 297> 324 77<438 519>
Fore
261 77 m 1
 317 77 355 92 376 123 c 0
 380 128 383 133 385 140 c 0
 388 148 389 156 389 165 c 0
 388 194 l 0
 349 193 317 177 291 148 c 0
 271 127 261 103 261 77 c 1
-38 596 m 1
 531 596 l 0
 550 596 560 595 562 594 c 0
 575 589 590 577 609 556 c 0
 622 544 631 532 634 520 c 0
 625 517 615 516 605 516 c 0
 559 519 l 0
 401 519 l 0
 401 362 l 0
 315 362 253 360 216 355 c 0
 171 350 136 337 112 315 c 0
 89 295 77 265 77 225 c 0
 77 206 79 186 84 167 c 0
 90 143 97 126 105 117 c 0
 111 110 121 105 136 101 c 0
 170 87 198 80 221 80 c 0
 198 103 186 126 184 149 c 0
 186 174 l 0
 193 207 215 233 252 254 c 0
 272 265 293 271 315 271 c 0
 324 271 l 0
 344 270 366 259 391 237 c 0
 432 201 457 163 466 122 c 0
 469 94 l 0
 467 75 460 58 449 43 c 0
 426 14 387 -1 334 -1 c 0
 304 -1 274 3 244 10 c 0
 179 25 121 60 72 117 c 0
 37 158 14 201 5 247 c 0
 2 266 0 282 0 297 c 0
 0 336 11 367 32 390 c 0
 53 409 83 422 123 430 c 0
 151 436 194 439 253 439 c 0
 324 439 l 0
 324 519 l 0
 128 519 l 0
 53 516 l 0
 50 516 44 517 34 519 c 0
 27 521 19 526 11 533 c 0
 -20 559 -36 580 -38 596 c 1
EndSplineSet
AnchorPoint: "Virama" 334 -1 basechar 0
AnchorPoint: "Anchor-0" 372 610 basechar 0
Comment: "DDHA (Itrans: Dha)" 
Colour: ffffff
EndChar
StartChar: uni0923
Encoding: 2339 2339 31
Width: 673
Flags: W
HStem: 519 77<-38 214 -38 391 -38 638>
VStem: 0 77<345 519> 214 78<345 519> 391 77<82 519>
Fore
77 519 m 1
 77 293 l 0
 77 263 79 242 82 230 c 0
 84 219 86 212 89 210 c 0
 92 207 101 206 116 206 c 0
 147 208 171 224 190 255 c 0
 206 279 214 316 214 367 c 0
 214 380 l 0
 214 519 l 0
 77 519 l 1
-38 596 m 1
 609 596 l 0
 632 596 644 595 646 594 c 0
 657 591 672 579 691 558 c 0
 706 543 715 531 718 520 c 0
 707 517 697 516 688 516 c 0
 638 519 l 0
 468 519 l 0
 468 -38 l 0
 454 -37 434 -22 408 7 c 0
 407 8 406 9 405 11 c 0
 398 19 393 27 392 34 c 0
 390 61 l 0
 391 83 l 0
 391 519 l 0
 292 519 l 0
 292 297 l 0
 292 234 279 189 254 162 c 0
 243 151 l 0
 225 136 206 129 186 129 c 0
 175 129 164 131 152 135 c 0
 129 143 104 160 77 185 c 0
 44 218 23 247 14 271 c 0
 5 292 0 330 0 383 c 0
 0 536 l 0
 0 541 -5 547 -14 556 c 0
 -29 572 -37 585 -38 596 c 1
EndSplineSet
AnchorPoint: "Virama" 468 -38 basechar 0
AnchorPoint: "Anchor-0" 440 610 basechar 0
Comment: "NNA (Itrans: Na)" 
Colour: ffffff
EndChar
StartChar: uni0924
Encoding: 2340 2340 32
Width: 634
Flags: W
HStem: 332 77<136 351> 519 77<-38 351 -38 598>
VStem: -7 79<218 289> 349 80<57 519> 352 77<129 519>
Fore
-38 596 m 1
 572 596 l 0
 593 596 605 595 607 594 c 0
 616 591 631 579 652 558 c 0
 667 543 676 530 678 520 c 0
 667 517 657 516 648 516 c 0
 598 519 l 0
 429 519 l 0
 429 -38 l 0
 414 -37 394 -22 371 6 c 0
 366 11 l 0
 359 18 355 26 352 34 c 0
 350 43 349 53 349 64 c 0
 352 130 l 0
 352 332 l 0
 216 332 l 0
 178 332 155 331 146 328 c 0
 145 328 143 327 139 326 c 0
 94 311 72 275 72 218 c 0
 72 202 74 184 78 165 c 0
 86 138 96 116 108 97 c 0
 118 82 141 63 176 41 c 0
 200 25 216 13 223 6 c 0
 238 -10 247 -22 251 -31 c 0
 252 -32 252 -35 252 -38 c 0
 242 -37 231 -31 219 -22 c 0
 179 1 138 33 97 76 c 0
 85 87 73 101 61 118 c 0
 16 179 -7 236 -7 289 c 0
 -7 324 4 354 26 378 c 0
 45 398 74 408 115 409 c 0
 136 409 l 0
 352 409 l 0
 352 519 l 0
 67 519 l 0
 34 519 l 0
 27 521 19 526 11 533 c 0
 -20 559 -36 580 -38 596 c 1
EndSplineSet
AnchorPoint: "Virama" 429 -38 basechar 0
AnchorPoint: "Anchor-0" 400 610 basechar 0
Comment: "TA (Itrans: ta)" 
Colour: ffffff
EndChar
StartChar: uni0925
Encoding: 2341 2341 33
Width: 673
Flags: W
HStem: 268 156<79 98> 518 78<305 391 305 638>
VStem: 0 239<345 406> 391 77<72 519>
Fore
158 517 m 1
 136 518 l 0
 111 514 94 499 84 473 c 0
 81 461 l 0
 80 436 l 0
 80 435 81 432 83 428 c 0
 87 425 92 424 98 424 c 0
 105 424 113 425 121 426 c 0
 138 428 148 430 151 433 c 0
 153 434 156 441 160 454 c 0
 162 485 l 0
 158 517 l 1
104 370 m 1
 71 396 46 420 28 443 c 0
 15 462 8 479 5 496 c 0
 3 523 l 0
 6 556 19 578 44 590 c 0
 50 593 56 594 62 595 c 0
 86 595 l 0
 90 594 100 591 115 586 c 0
 136 574 156 558 177 538 c 0
 218 497 239 453 239 406 c 0
 239 384 234 363 223 342 c 0
 200 299 161 275 104 270 c 0
 99 269 90 268 79 268 c 0
 84 250 91 237 98 230 c 0
 113 215 140 205 178 202 c 0
 217 202 l 0
 269 208 312 230 346 269 c 0
 370 297 385 322 390 343 c 0
 393 369 l 0
 391 400 l 0
 391 519 l 0
 350 518 l 0
 345 519 l 0
 336 521 321 532 301 553 c 0
 296 559 l 0
 287 566 281 574 276 583 c 0
 274 594 l 0
 277 596 281 597 287 597 c 0
 305 596 l 0
 564 596 l 0
 630 598 l 0
 633 598 638 597 646 595 c 0
 653 592 660 587 667 580 c 0
 696 558 713 538 718 520 c 0
 707 517 697 516 688 516 c 0
 638 519 l 0
 468 519 l 0
 468 -38 l 0
 456 -37 442 -28 425 -10 c 0
 406 11 395 24 392 31 c 0
 390 53 l 0
 391 73 l 0
 391 163 l 0
 355 144 329 132 313 128 c 0
 298 125 284 123 271 123 c 0
 198 123 129 161 63 236 c 0
 38 265 22 289 13 310 c 0
 4 325 0 337 0 345 c 0
 23 345 55 352 96 367 c 0
 100 368 103 369 104 370 c 1
EndSplineSet
AnchorPoint: "Virama" 468 -38 basechar 0
AnchorPoint: "Anchor-0" 440 610 basechar 0
Comment: "THA (Itrans: tha)" 
Colour: ffffff
EndChar
StartChar: uni0926
Encoding: 2342 2342 34
Width: 570
Flags: W
HStem: 0 21G<373 430> 84 176<265 303> 362 77<136 363> 520 76<-38 34 -38 286 -38 533>
VStem: 0 77<259 335> 286 77<438 519>
Fore
286 439 m 1
 286 519 l 0
 112 519 l 0
 49 517 l 0
 38 519 33 520 32 520 c 0
 30 520 23 524 11 533 c 0
 -20 559 -36 580 -38 596 c 0
 450 596 l 0
 523 598 l 0
 531 597 537 596 540 595 c 0
 544 594 551 589 562 580 c 0
 592 558 609 538 613 520 c 0
 602 517 593 516 584 516 c 0
 533 519 l 0
 363 519 l 0
 363 362 l 0
 210 362 l 0
 166 359 135 351 116 340 c 0
 90 323 77 296 77 259 c 0
 77 246 78 235 81 224 c 0
 84 203 89 190 96 184 c 0
 101 179 109 175 121 172 c 0
 139 165 162 161 189 161 c 0
 203 161 211 162 214 165 c 0
 215 168 216 173 216 181 c 0
 219 213 235 236 266 250 c 0
 278 257 290 260 303 260 c 0
 312 260 322 258 332 254 c 0
 361 242 379 221 386 191 c 0
 388 166 l 0
 387 157 385 150 384 146 c 0
 377 125 367 112 354 108 c 0
 430 0 l 0
 373 0 l 0
 354 -1 l 0
 351 0 l 0
 344 7 331 24 314 51 c 0
 313 56 310 60 307 63 c 0
 300 75 294 82 290 85 c 0
 275 86 l 0
 272 85 268 84 265 84 c 0
 243 84 224 86 209 90 c 0
 150 104 96 143 45 206 c 0
 15 247 0 290 0 335 c 0
 0 370 10 395 31 410 c 0
 56 429 91 438 136 439 c 0
 286 439 l 1
EndSplineSet
AnchorPoint: "Virama" 373 0 basechar 0
AnchorPoint: "Anchor-0" 333 610 basechar 0
Comment: "DA or (Itrans: da)" 
Colour: ffffff
EndChar
StartChar: uni0927
Encoding: 2343 2343 35
Width: 673
Flags: W
HStem: 321 81<227 254> 518 78<305 391 305 638>
VStem: 391 77<78 519>
Fore
88 384 m 1
 76 390 59 406 37 433 c 0
 14 460 2 484 0 507 c 0
 2 531 l 0
 8 561 22 581 45 590 c 0
 53 594 61 596 68 596 c 0
 74 596 l 0
 80 596 89 591 101 580 c 0
 129 557 145 537 150 520 c 0
 122 512 l 0
 121 512 l 0
 98 502 84 484 79 457 c 0
 78 434 l 0
 82 423 l 0
 84 421 l 0
 109 406 134 398 161 397 c 0
 227 402 l 0
 229 402 235 401 245 399 c 0
 256 395 270 384 286 367 c 0
 301 354 310 344 313 337 c 0
 316 328 l 0
 314 324 l 0
 303 323 l 0
 255 321 l 0
 254 321 l 0
 209 321 174 313 147 298 c 0
 126 284 115 265 115 242 c 0
 117 224 l 0
 118 220 124 217 136 215 c 0
 169 211 l 0
 189 213 l 0
 243 217 295 238 346 277 c 0
 388 313 l 0
 391 318 393 325 393 336 c 0
 391 369 l 0
 391 519 l 0
 350 518 l 0
 345 519 l 0
 336 521 321 532 301 553 c 0
 296 559 l 0
 287 566 281 574 276 583 c 0
 274 594 l 0
 277 596 281 597 287 597 c 0
 305 596 l 0
 564 596 l 0
 630 598 l 0
 633 598 638 597 646 595 c 0
 653 592 660 587 667 580 c 0
 696 558 713 538 718 520 c 0
 707 517 697 516 688 516 c 0
 638 519 l 0
 468 519 l 0
 468 -38 l 0
 457 -37 442 -27 423 -8 c 0
 405 10 395 23 392 31 c 0
 389 53 l 0
 391 79 l 0
 391 179 l 0
 330 150 278 135 237 135 c 0
 205 135 175 143 147 159 c 0
 137 166 126 174 115 185 c 0
 65 228 39 270 37 309 c 0
 39 332 l 0
 41 341 45 350 52 358 c 0
 56 363 68 371 88 384 c 1
EndSplineSet
AnchorPoint: "Virama" 468 -38 basechar 0
AnchorPoint: "Anchor-0" 440 610 basechar 0
Comment: "DHA (Itrans: dha)" 
Colour: ffffff
EndChar
StartChar: uni0928
Encoding: 2344 2344 36
Width: 634
Flags: W
HStem: 286 77<136 352> 519 77<-38 352 -38 598>
VStem: 350 79<41 519>
Fore
-38 596 m 1
 572 596 l 0
 593 596 605 595 607 594 c 0
 616 591 631 579 652 558 c 0
 667 543 676 530 678 520 c 0
 667 517 657 516 648 516 c 0
 598 519 l 0
 429 519 l 0
 429 -38 l 0
 422 -37 413 -32 402 -25 c 0
 373 -4 357 15 353 32 c 0
 351 37 350 47 350 62 c 0
 352 112 l 0
 352 286 l 0
 170 286 l 0
 184 266 191 249 191 236 c 0
 189 215 l 0
 183 195 170 182 149 176 c 0
 129 172 l 0
 128 172 122 173 112 175 c 0
 81 186 52 209 25 242 c 0
 18 253 11 265 5 278 c 0
 2 287 0 295 0 303 c 0
 0 312 2 320 6 328 c 0
 13 344 23 354 37 359 c 0
 47 363 61 365 78 365 c 0
 136 363 l 0
 352 363 l 0
 352 519 l 0
 67 519 l 0
 34 519 l 0
 27 521 19 526 11 533 c 0
 -20 559 -36 580 -38 596 c 1
EndSplineSet
AnchorPoint: "Virama" 429 -38 basechar 0
AnchorPoint: "Anchor-0" 400 610 basechar 0
Comment: "NA (Itrans: na)" 
Colour: ffffff
EndChar
StartChar: uni0929
Encoding: 2345 2345 37
Width: 634
Flags: W
HStem: 286 77<136 352> 519 77<-38 352 -38 598>
VStem: 350 79<41 519>
Fore
195 94 m 1
 251 39 l 0
 251 38 l 0
 203 -8 l 0
 200 -11 198 -13 196 -14 c 0
 184 -3 166 14 141 39 c 0
 195 94 l 1
-38 596 m 1
 500 596 l 0
 572 596 l 0
 593 596 605 595 607 594 c 0
 616 591 631 579 652 558 c 0
 667 543 676 530 678 520 c 0
 667 517 657 516 648 516 c 0
 598 519 l 0
 429 519 l 0
 429 -38 l 0
 422 -37 413 -32 402 -25 c 0
 373 -4 357 15 353 32 c 0
 351 37 350 47 350 62 c 0
 352 112 l 0
 352 286 l 0
 170 286 l 0
 184 266 191 249 191 236 c 0
 189 215 l 0
 183 195 170 182 149 176 c 0
 129 172 l 0
 128 172 122 173 112 175 c 0
 81 186 52 209 25 242 c 0
 18 253 11 265 5 278 c 0
 2 287 0 295 0 303 c 0
 0 312 2 320 6 328 c 0
 13 344 23 354 37 359 c 0
 47 363 61 365 78 365 c 0
 136 363 l 0
 352 363 l 0
 352 519 l 0
 136 519 l 0
 67 519 l 0
 34 519 l 0
 27 521 19 526 11 533 c 0
 -20 559 -36 580 -38 596 c 1
EndSplineSet
AnchorPoint: "Virama" 429 -38 basechar 0
AnchorPoint: "Anchor-0" 400 610 basechar 0
Comment: "NNNA" 
Colour: ffffff
EndChar
StartChar: uni092A
Encoding: 2346 2346 38
Width: 595
Flags: W
HStem: 519 77<-38 313 -38 559>
VStem: 311 79<41 519>
Fore
312 519 m 1
 130 519 l 0
 122 519 117 518 114 517 c 0
 113 516 110 511 107 502 c 0
 104 490 102 475 101 458 c 0
 100 404 l 0
 102 373 107 343 116 314 c 0
 123 291 128 276 131 271 c 0
 135 267 l 0
 137 265 144 263 157 261 c 0
 191 260 l 0
 204 261 214 263 221 265 c 0
 268 276 298 297 311 330 c 0
 312 338 313 345 313 352 c 0
 312 388 l 0
 312 519 l 1
-38 596 m 1
 537 596 l 0
 556 596 566 595 568 594 c 0
 580 589 595 577 614 556 c 0
 629 541 637 529 639 520 c 0
 628 517 618 516 609 516 c 0
 559 519 l 0
 390 519 l 0
 390 -38 l 0
 379 -37 365 -28 346 -10 c 0
 343 -7 l 0
 326 10 316 23 313 31 c 0
 312 39 311 47 311 55 c 0
 312 83 l 0
 312 192 l 0
 285 185 264 182 247 182 c 0
 236 182 l 0
 173 188 119 227 76 299 c 0
 57 332 44 364 35 396 c 0
 28 423 23 452 21 484 c 0
 21 520 l 0
 21 522 l 0
 21 524 15 530 3 540 c 0
 -18 559 -30 573 -35 584 c 0
 -37 588 -38 592 -38 596 c 1
EndSplineSet
AnchorPoint: "Virama" 390 -38 basechar 0
AnchorPoint: "Anchor-0" 359 610 basechar 0
Comment: "PA (Itrans: pa)" 
Colour: ffffff
EndChar
StartChar: uni092B
Encoding: 2347 2347 39
Width: 765
Flags: W
HStem: 182 77<181 250> 348 76<447 520> 519 75<682 738> 519 77<-38 312 -38 733 736 809>
VStem: 311 79<41 178 384 519>
Fore
312 519 m 1
 130 519 l 0
 122 519 117 518 114 517 c 0
 113 516 110 511 107 502 c 0
 104 490 102 475 101 458 c 0
 100 404 l 0
 102 373 107 343 116 313 c 0
 123 288 129 273 135 267 c 0
 142 262 157 259 181 259 c 0
 224 259 259 272 286 297 c 0
 297 306 305 316 310 327 c 0
 311 330 312 338 312 350 c 0
 312 384 l 0
 312 519 l 1
-38 596 m 1
 694 596 l 0
 732 596 l 0
 735 595 737 594 738 594 c 0
 750 589 764 578 781 559 c 0
 798 542 807 529 809 520 c 0
 682 519 l 0
 677 519 l 0
 390 519 l 0
 390 412 l 0
 408 420 427 424 447 424 c 0
 492 424 538 401 585 354 c 0
 617 319 635 290 640 265 c 0
 642 229 l 0
 638 184 l 0
 635 148 623 93 604 18 c 0
 590 18 570 33 544 64 c 0
 541 67 l 0
 532 80 528 88 528 92 c 0
 528 95 532 113 541 146 c 0
 544 157 l 0
 551 187 557 225 562 271 c 0
 566 316 l 0
 566 326 564 334 561 339 c 0
 557 345 543 348 520 348 c 0
 477 348 441 330 412 295 c 0
 407 287 l 0
 399 276 393 267 390 258 c 0
 387 229 l 0
 390 178 l 0
 390 -38 l 0
 379 -37 365 -28 346 -10 c 0
 343 -7 l 0
 326 10 316 23 313 31 c 0
 312 39 311 47 311 55 c 0
 312 83 l 0
 312 192 l 0
 287 185 266 182 250 182 c 0
 238 182 l 0
 175 186 121 224 78 297 c 0
 59 327 45 360 35 396 c 0
 28 423 23 452 21 484 c 0
 21 520 l 0
 21 522 l 0
 21 524 15 530 3 540 c 0
 -18 559 -30 573 -35 584 c 0
 -37 588 -38 592 -38 596 c 1
EndSplineSet
AnchorPoint: "Virama" 390 -38 basechar 0
AnchorPoint: "Anchor-0" 359 610 basechar 0
Comment: "PHA (Itrans: pha)" 
Colour: ffffff
EndChar
StartChar: uni092C
Encoding: 2348 2348 40
Width: 602
Flags: W
HStem: 115 78<162 240> 517 79<-38 50 -38 318 -38 565>
VStem: 318 78<41 519>
DStem: 168 311 171 354 218 240 265 219
Fore
171 354 m 1
 265 219 l 0
 292 229 309 253 316 291 c 0
 317 302 318 309 318 313 c 0
 318 334 316 346 312 350 c 0
 304 356 291 359 272 360 c 0
 236 362 l 0
 214 360 192 357 171 354 c 1
240 205 m 1
 239 207 233 217 222 234 c 0
 219 239 l 0
 218 240 l 0
 168 311 l 0
 156 330 148 340 143 341 c 0
 136 340 128 335 118 326 c 0
 91 305 77 277 77 244 c 0
 77 222 82 209 92 205 c 0
 97 202 107 200 122 197 c 0
 133 194 147 193 162 193 c 0
 182 193 208 197 240 205 c 1
-38 596 m 1
 543 596 l 0
 562 596 573 595 575 594 c 0
 586 590 602 577 621 556 c 0
 634 543 643 531 646 520 c 0
 637 517 627 516 617 516 c 0
 565 519 l 0
 396 519 l 0
 396 -38 l 0
 386 -37 372 -28 355 -12 c 0
 336 6 324 20 320 31 c 0
 319 34 318 44 318 63 c 0
 318 130 l 0
 293 120 267 115 240 115 c 0
 176 115 116 142 61 196 c 0
 27 230 7 262 2 292 c 0
 0 324 l 0
 4 372 32 406 85 427 c 0
 108 436 132 440 157 440 c 0
 160 440 160 440 164 440 c 0
 184 440 203 438 221 434 c 0
 246 428 277 412 312 385 c 0
 318 380 l 0
 318 519 l 0
 125 519 l 0
 50 517 l 0
 46 517 41 518 34 519 c 0
 27 521 19 526 11 533 c 0
 -20 559 -36 580 -38 596 c 1
EndSplineSet
AnchorPoint: "Virama" 396 -38 basechar 0
AnchorPoint: "Anchor-0" 366 610 basechar 0
Comment: "BA (Itrans: ba)" 
Colour: ffffff
EndChar
StartChar: uni092D
Encoding: 2349 2349 41
Width: 673
Flags: W
HStem: 227 77<191 391> 518 78<305 391 305 638>
VStem: 114 79<304 393.594> 391 77<94 519>
Fore
-38 596 m 1
 19 596 73 570 126 519 c 0
 159 486 179 455 187 426 c 0
 191 410 193 390 193 367 c 0
 191 304 l 0
 391 304 l 0
 391 519 l 0
 350 518 l 0
 345 519 l 0
 336 521 321 532 301 553 c 0
 296 559 l 0
 287 566 281 574 276 583 c 0
 274 594 l 0
 277 596 281 597 287 597 c 0
 305 596 l 0
 564 596 l 0
 630 598 l 0
 633 598 638 597 646 595 c 0
 653 592 660 587 667 580 c 0
 696 558 713 538 718 520 c 0
 707 517 697 516 688 516 c 0
 638 519 l 0
 468 519 l 0
 468 -38 l 0
 456 -37 440 -26 421 -6 c 0
 418 -3 l 0
 405 10 396 22 392 32 c 0
 389 61 l 0
 391 95 l 0
 391 227 l 0
 191 227 l 0
 191 172 l 0
 191 158 190 150 189 149 c 0
 183 140 171 135 154 135 c 0
 131 138 l 0
 131 139 130 139 129 139 c 0
 97 151 70 174 47 207 c 0
 40 215 33 225 28 237 c 0
 25 247 23 257 23 267 c 0
 23 281 26 291 33 297 c 0
 35 300 38 302 41 303 c 0
 61 304 l 0
 63 304 l 0
 114 304 l 0
 114 445 l 0
 114 476 111 496 105 503 c 0
 99 511 81 516 51 518 c 0
 43 518 38 518 35 519 c 0
 28 521 20 525 12 532 c 0
 -21 557 -37 579 -38 596 c 1
EndSplineSet
AnchorPoint: "Virama" 468 -38 basechar 0
AnchorPoint: "Anchor-0" 440 610 basechar 0
Comment: "BHA (Itrans: bha)" 
Colour: ffffff
EndChar
StartChar: uni092E
Encoding: 2350 2350 42
Width: 673
Flags: W
HStem: 232 78<153 391> 520 76<-38 34 -38 391 -38 638>
VStem: 76 77<310 519> 391 77<90 519>
Fore
153 519 m 1
 153 310 l 0
 391 310 l 0
 391 519 l 0
 153 519 l 1
-38 596 m 1
 609 596 l 0
 632 596 644 595 646 594 c 0
 657 591 672 579 691 558 c 0
 706 543 715 531 718 520 c 0
 707 517 697 516 688 516 c 0
 638 519 l 0
 468 519 l 0
 468 -38 l 0
 455 -37 435 -22 409 7 c 0
 399 18 393 27 392 32 c 0
 389 59 l 0
 391 91 l 0
 391 232 l 0
 153 232 l 0
 153 181 l 0
 152 158 l 0
 152 158 l 0
 147 147 136 141 117 141 c 0
 107 141 97 143 87 146 c 0
 58 156 31 177 8 210 c 0
 -1 222 -8 234 -12 247 c 0
 -15 253 -16 261 -16 271 c 0
 -16 276 -15 284 -12 295 c 0
 -7 302 -4 306 -1 307 c 0
 2 309 10 310 21 310 c 0
 76 310 l 0
 76 519 l 0
 37 518 l 0
 34 519 33 520 32 520 c 0
 30 520 23 524 11 533 c 0
 -20 559 -36 580 -38 596 c 1
EndSplineSet
AnchorPoint: "Virama" 468 -38 basechar 0
AnchorPoint: "Anchor-0" 440 610 basechar 0
Comment: "MA (Itrans: ma)" 
Colour: ffffff
EndChar
StartChar: uni092F
Encoding: 2351 2351 43
Width: 673
Flags: W
HStem: 123 78<197 271> 268 77<0 79> 518 78<-38 125 -38 391 -38 638>
VStem: 391 77<72 519>
Fore
179 519 m 1
 215 454 l 0
 221 432 l 0
 223 400 l 0
 219 355 198 319 160 293 c 0
 137 276 110 268 79 268 c 0
 88 236 114 215 157 205 c 0
 174 202 188 201 197 201 c 0
 250 201 296 219 334 255 c 0
 365 284 383 313 390 342 c 0
 393 367 l 0
 391 398 l 0
 391 519 l 0
 179 519 l 1
144 498 m 0
 144 509 140 516 133 518 c 0
 124 519 l 0
 123 519 l 0
 84 519 l 0
 37 518 l 0
 34 519 l 0
 27 521 19 526 11 533 c 0
 -20 559 -36 580 -38 596 c 0
 609 596 l 0
 632 596 644 595 646 594 c 0
 657 591 672 579 691 558 c 0
 706 543 715 531 718 520 c 0
 707 517 697 516 688 516 c 0
 638 519 l 0
 468 519 l 0
 468 -38 l 0
 456 -37 442 -28 425 -10 c 0
 406 11 395 24 392 31 c 0
 390 53 l 0
 391 73 l 0
 391 163 l 0
 355 144 329 132 313 128 c 0
 298 125 284 123 271 123 c 0
 198 123 129 161 63 236 c 0
 38 265 22 289 13 310 c 0
 4 325 0 337 0 345 c 0
 47 345 84 362 113 395 c 0
 134 418 145 446 145 479 c 0
 145 488 145 494 144 498 c 0
EndSplineSet
AnchorPoint: "Virama" 468 -38 basechar 0
AnchorPoint: "Anchor-0" 440 610 basechar 0
Comment: "YA (Itrans: ya)" 
Colour: ffffff
EndChar
StartChar: uni0930
Encoding: 2352 2352 44
Width: 556
Flags: W
HStem: 518 78<-38 219 -38 503>
DStem: 327 38 324 69 401 -21 393 18 512 598 512 598 440 596 527 595
Fore
-38 596 m 1
 440 596 l 0
 512 598 l 0
 527 595 l 0
 532 594 540 589 551 580 c 0
 579 558 596 538 601 520 c 0
 507 519 l 0
 503 519 l 0
 293 519 l 0
 293 445 292 401 289 387 c 0
 286 362 280 336 270 311 c 0
 249 264 218 239 179 237 c 0
 212 177 260 121 324 69 c 0
 393 18 l 0
 414 0 428 -18 434 -37 c 0
 423 -36 l 0
 401 -21 l 0
 327 38 l 0
 230 119 164 189 131 248 c 0
 120 264 112 279 107 293 c 0
 94 324 86 351 84 372 c 0
 83 395 l 0
 84 396 l 0
 84 397 85 398 88 398 c 0
 94 398 100 395 105 389 c 0
 131 370 148 351 156 334 c 0
 198 376 219 438 219 519 c 0
 90 519 l 0
 42 518 l 0
 39 518 35 519 31 520 c 0
 24 522 12 531 -4 547 c 0
 -20 563 -30 575 -35 583 c 0
 -37 588 -38 592 -38 596 c 1
EndSplineSet
AnchorPoint: "Virama" 434 -37 basechar 0
AnchorPoint: "Anchor-0" 260 610 basechar 0
Comment: "RA (Itrans: ra)" 
Colour: ffffff
EndChar
StartChar: uni0931
Encoding: 2353 2353 45
Width: 556
Flags: W
HStem: 518 78<-38 219 -38 503>
DStem: 327 38 324 69 401 -21 393 18 512 598 512 598 440 596 527 595
Fore
195 94 m 1
 251 39 l 0
 251 38 l 0
 203 -8 l 0
 200 -11 198 -13 196 -14 c 0
 184 -3 166 14 141 39 c 0
 195 94 l 1
-38 596 m 1
 440 596 l 0
 512 598 l 0
 527 595 l 0
 532 594 540 589 551 580 c 0
 579 558 596 538 601 520 c 0
 567 519 l 0
 503 519 l 0
 293 519 l 0
 293 445 292 401 289 387 c 0
 286 362 280 336 270 311 c 0
 249 264 218 239 179 237 c 0
 212 177 260 121 324 69 c 0
 393 18 l 0
 414 0 428 -18 434 -37 c 0
 423 -36 l 0
 401 -21 l 0
 327 38 l 0
 230 119 164 189 131 248 c 0
 120 264 112 279 107 293 c 0
 94 324 86 351 84 372 c 0
 83 395 l 0
 84 396 l 0
 84 397 85 398 88 398 c 0
 94 398 100 395 105 389 c 0
 131 370 148 351 156 334 c 0
 198 376 219 438 219 519 c 0
 90 519 l 0
 42 518 l 0
 39 518 35 519 31 520 c 0
 24 522 12 531 -4 547 c 0
 -20 563 -30 575 -35 583 c 0
 -37 588 -38 592 -38 596 c 1
EndSplineSet
AnchorPoint: "Virama" 434 -37 basechar 0
AnchorPoint: "Anchor-0" 260 610 basechar 0
Comment: "RRA" 
Colour: ffffff
EndChar
StartChar: uni0932
Encoding: 2354 2354 46
Width: 764
Flags: W
HStem: 297 112<404 469> 520 76<-38 481 -38 729>
VStem: 0 76<236 310> 479 80<53 519>
Fore
0 310 m 0
 0 374 35 407 104 409 c 0
 138 406 l 0
 184 397 223 376 255 342 c 0
 260 337 265 331 269 325 c 0
 289 357 328 381 386 398 c 0
 414 405 442 409 469 409 c 0
 475 409 475 409 481 409 c 0
 481 519 l 0
 392 520 242 520 32 520 c 0
 30 520 23 524 11 533 c 0
 -20 559 -36 580 -38 596 c 0
 732 596 l 0
 735 595 737 594 738 594 c 0
 751 589 768 574 790 548 c 0
 801 536 808 527 809 520 c 0
 802 518 793 517 781 517 c 0
 729 519 l 0
 559 519 l 0
 559 -38 l 0
 550 -36 l 0
 539 -31 521 -15 496 11 c 0
 485 23 479 42 479 67 c 0
 481 128 l 0
 481 325 l 0
 430 306 405 297 404 297 c 0
 368 278 343 253 328 220 c 0
 325 214 323 208 321 201 c 0
 317 190 313 184 310 184 c 0
 300 188 l 0
 287 198 l 0
 255 222 238 242 237 259 c 0
 247 298 l 0
 245 312 l 0
 236 325 210 332 166 332 c 0
 129 332 103 316 87 284 c 0
 80 270 76 254 76 236 c 0
 76 219 81 196 90 168 c 0
 102 129 139 76 200 10 c 0
 207 3 213 -4 219 -10 c 0
 227 -19 232 -29 233 -38 c 0
 213 -31 191 -14 167 13 c 0
 144 40 131 54 130 55 c 0
 68 121 28 184 10 245 c 0
 3 269 0 291 0 310 c 0
EndSplineSet
AnchorPoint: "Virama" 559 -38 basechar 0
AnchorPoint: "Anchor-0" 533 610 basechar 0
Comment: "LA (Itrans: la)" 
Colour: ffffff
EndChar
StartChar: uni0933
Encoding: 2355 2355 47
Width: 823
Flags: W
HStem: 2 74<123 206> 312 78<123 205> 519 75<767 796> 519 77<-38 457 -38 791 793 867>
VStem: 457 77<390 519>
Fore
189 312 m 0
 141 305 107 274 88 221 c 0
 83 208 80 191 77 171 c 0
 78 138 l 0
 81 121 84 110 85 105 c 0
 88 93 92 86 95 84 c 0
 100 79 110 76 123 76 c 0
 127 76 133 77 141 78 c 0
 188 84 230 118 267 180 c 0
 306 258 l 0
 310 266 312 271 312 273 c 0
 311 276 302 283 285 292 c 0
 258 305 232 312 205 312 c 0
 189 312 l 0
349 114 m 1
 381 94 412 82 442 78 c 0
 477 78 l 0
 524 82 562 104 592 143 c 0
 613 168 623 196 623 229 c 0
 623 237 623 243 622 247 c 0
 619 264 615 278 610 289 c 0
 605 297 592 303 569 308 c 0
 559 311 548 312 535 312 c 0
 489 312 449 288 416 240 c 0
 389 197 l 0
 366 150 l 0
 349 114 l 1
-38 596 m 1
 749 596 l 0
 791 596 l 0
 794 595 795 594 796 594 c 0
 805 590 819 578 840 559 c 0
 856 542 865 529 867 520 c 0
 767 519 l 0
 763 519 l 0
 534 519 l 0
 534 415 l 0
 533 381 l 0
 536 375 l 0
 537 373 545 368 558 361 c 0
 570 353 583 344 596 334 c 0
 660 282 694 228 699 171 c 0
 699 138 l 0
 693 89 666 51 619 23 c 0
 589 6 558 -2 527 -2 c 0
 522 -2 514 -1 505 0 c 0
 452 6 396 39 338 98 c 0
 331 77 314 56 289 34 c 0
 265 13 237 2 206 2 c 0
 169 2 133 17 98 47 c 0
 33 104 0 164 0 229 c 0
 0 244 l 0
 6 299 25 339 58 365 c 0
 75 380 97 389 123 390 c 0
 156 390 184 384 207 373 c 0
 228 364 257 345 293 315 c 0
 312 301 322 293 324 292 c 0
 336 325 360 352 396 373 c 0
 419 384 439 389 457 390 c 0
 457 519 l 0
 178 519 l 0
 55 518 l 0
 47 518 41 518 38 519 c 0
 33 519 25 523 14 531 c 0
 -20 558 -37 579 -38 596 c 1
EndSplineSet
AnchorPoint: "Virama" 527 -2 basechar 0
AnchorPoint: "Anchor-0" 508 610 basechar 0
Comment: "LLA (Itrans: lda or La)" 
Colour: ffffff
EndChar
StartChar: uni0935
Encoding: 2357 2357 49
Width: 602
Flags: W
HStem: 115 78<166 240> 517 79<-38 50 -38 318 -38 565>
VStem: 318 78<41 519>
Fore
221 363 m 0
 168 355 130 339 107 316 c 0
 87 294 77 268 77 238 c 0
 77 219 83 208 96 203 c 0
 115 198 l 0
 129 195 146 193 166 193 c 0
 179 193 188 193 194 194 c 0
 241 200 275 217 297 245 c 0
 311 264 318 286 318 312 c 0
 318 321 l 0
 318 336 316 345 312 349 c 0
 311 351 303 354 290 357 c 0
 267 362 249 364 237 364 c 0
 222 363 l 0
 221 363 l 0
-38 596 m 1
 543 596 l 0
 562 596 573 595 575 594 c 0
 586 590 602 577 621 556 c 0
 634 543 643 531 646 520 c 0
 637 517 627 516 617 516 c 0
 565 519 l 0
 396 519 l 0
 396 -38 l 0
 386 -37 372 -28 355 -12 c 0
 336 6 324 20 320 31 c 0
 319 34 318 44 318 63 c 0
 318 130 l 0
 293 120 267 115 240 115 c 0
 176 115 116 142 61 196 c 0
 27 230 7 262 2 292 c 0
 0 324 l 0
 4 372 32 406 85 427 c 0
 108 436 132 440 157 440 c 0
 160 440 160 440 164 440 c 0
 184 440 203 438 221 434 c 0
 246 428 277 412 312 385 c 0
 318 380 l 0
 318 519 l 0
 125 519 l 0
 50 517 l 0
 46 517 41 518 34 519 c 0
 27 521 19 526 11 533 c 0
 -20 559 -36 580 -38 596 c 1
EndSplineSet
AnchorPoint: "Virama" 396 -38 basechar 0
AnchorPoint: "Anchor-0" 366 610 basechar 0
Comment: "VA (Itrans: va or wa)" 
Colour: ffffff
EndChar
StartChar: uni0936
Encoding: 2358 2358 50
Width: 764
Flags: W
HStem: 518 78<-38 281 -38 481 -38 729>
VStem: 314 81<361 402> 481 78<82 519>
Fore
293 324 m 1
 312 389 l 0
 314 401 l 0
 314 402 l 0
 315 449 l 0
 314 452 314 455 314 460 c 0
 307 502 l 0
 305 507 303 510 300 513 c 0
 299 514 292 516 281 518 c 0
 256 518 l 0
 220 512 193 487 174 443 c 0
 169 433 165 419 161 400 c 0
 157 359 l 0
 158 352 159 347 162 344 c 0
 164 341 175 337 196 332 c 0
 218 327 250 324 293 324 c 1
-38 596 m 1
 694 596 l 0
 732 596 l 0
 735 595 737 594 738 594 c 0
 750 589 764 578 781 559 c 0
 798 542 807 529 809 520 c 0
 798 517 788 516 779 516 c 0
 729 519 l 0
 559 519 l 0
 559 -38 l 0
 544 -37 525 -22 500 7 c 0
 496 11 l 0
 487 22 483 29 482 34 c 0
 480 61 l 0
 481 83 l 0
 481 519 l 0
 331 519 l 0
 358 478 374 454 377 445 c 0
 382 432 386 424 387 419 c 0
 392 399 395 380 395 361 c 0
 395 294 373 237 328 188 c 0
 327 186 324 183 320 179 c 0
 294 153 271 137 251 132 c 0
 253 129 265 116 287 94 c 0
 293 88 l 0
 318 59 339 35 354 14 c 0
 371 -11 381 -28 383 -38 c 0
 372 -37 358 -27 339 -10 c 0
 335 -6 l 0
 330 -1 313 21 283 62 c 0
 268 83 253 99 238 111 c 0
 233 115 228 117 223 117 c 0
 198 111 l 0
 185 107 167 104 146 102 c 0
 105 100 l 0
 104 101 101 102 98 102 c 0
 78 107 55 125 29 156 c 0
 14 175 6 191 6 203 c 0
 6 210 8 217 12 224 c 0
 22 237 35 244 52 244 c 0
 79 240 l 0
 95 236 114 228 135 217 c 0
 158 203 l 0
 160 202 l 0
 172 205 l 0
 185 212 l 0
 207 225 228 241 248 261 c 0
 204 271 162 300 121 349 c 0
 101 370 88 392 83 415 c 0
 81 446 l 0
 82 461 87 485 97 519 c 0
 44 517 l 0
 36 518 32 519 31 520 c 0
 22 523 7 535 -14 556 c 0
 -29 572 -37 585 -38 596 c 1
EndSplineSet
AnchorPoint: "Virama" 559 -38 basechar 0
AnchorPoint: "Anchor-0" 533 610 basechar 0
Comment: "SHA (Itrans: sha)" 
Colour: ffffff
EndChar
StartChar: uni0937
Encoding: 2359 2359 51
Width: 595
Flags: W
HStem: 519 77<-38 312 -38 559>
VStem: 311 79<41 519>
DStem: 129 432 223 416 265 301 262 378 129 432 262 378 265 301 300 340
Fore
116 519 m 1
 116 517 l 0
 137 501 172 467 223 416 c 0
 234 405 247 392 262 378 c 0
 300 340 l 0
 303 337 307 335 312 332 c 0
 312 519 l 0
 116 519 l 1
101 458 m 1
 100 413 l 0
 101 378 107 345 116 313 c 0
 123 288 129 273 135 267 c 0
 138 264 146 262 160 260 c 0
 191 260 l 0
 228 264 255 272 270 283 c 0
 273 289 l 0
 271 296 l 0
 269 298 267 300 265 301 c 0
 129 432 l 0
 103 457 l 0
 102 457 102 457 101 458 c 1
-38 596 m 1
 537 596 l 0
 556 596 566 595 568 594 c 0
 580 589 595 577 614 556 c 0
 629 541 637 529 639 520 c 0
 628 517 618 516 609 516 c 0
 559 519 l 0
 390 519 l 0
 390 -38 l 0
 379 -37 365 -28 346 -10 c 0
 343 -7 l 0
 326 10 316 23 313 31 c 0
 312 39 311 47 311 55 c 0
 312 83 l 0
 312 192 l 0
 285 185 264 182 247 182 c 0
 236 182 l 0
 173 188 119 227 76 299 c 0
 57 332 44 364 35 396 c 0
 28 423 23 452 21 484 c 0
 21 520 l 0
 21 522 l 0
 21 524 15 530 3 540 c 0
 -18 559 -30 573 -35 584 c 0
 -37 588 -38 592 -38 596 c 1
EndSplineSet
AnchorPoint: "Virama" 390 -38 basechar 0
AnchorPoint: "Anchor-0" 359 610 basechar 0
Comment: "SSA (Itrans: Sha or ssha)" 
Colour: ffffff
EndChar
StartChar: uni0938
Encoding: 2360 2360 52
Width: 712
Flags: W
HStem: 248 77<245 334> 519 77<-38 129 -38 430 -38 677>
VStem: 428 79<41 519>
Fore
203 519 m 1
 206 504 207 486 207 465 c 0
 207 423 200 379 186 334 c 0
 245 325 l 0
 291 326 l 0
 333 330 374 342 414 361 c 0
 422 364 427 368 429 371 c 0
 432 387 l 0
 430 412 l 0
 430 519 l 0
 203 519 l 1
-38 596 m 1
 646 596 l 0
 671 596 684 595 687 594 c 0
 698 589 712 577 731 558 c 0
 745 543 754 531 757 520 c 0
 746 517 737 516 728 516 c 0
 677 519 l 0
 507 519 l 0
 507 -38 l 0
 500 -37 492 -33 481 -25 c 0
 455 -4 439 15 432 31 c 0
 429 37 428 47 428 60 c 0
 430 104 l 0
 430 262 l 0
 402 253 370 248 334 248 c 0
 305 248 276 252 247 259 c 0
 222 267 203 274 191 279 c 0
 170 289 l 0
 167 289 l 0
 164 289 157 282 146 268 c 0
 127 254 109 246 91 245 c 0
 94 232 102 212 116 185 c 0
 135 146 167 99 211 45 c 0
 258 -10 l 0
 266 -21 271 -30 272 -37 c 0
 262 -36 l 0
 246 -25 l 0
 244 -23 l 0
 235 -17 216 4 186 39 c 0
 114 126 67 192 44 239 c 0
 33 261 24 282 18 301 c 0
 9 328 4 352 1 373 c 0
 0 396 l 0
 1 397 l 0
 8 398 l 0
 15 395 20 393 21 390 c 0
 42 375 57 359 67 343 c 0
 69 343 l 0
 97 381 l 0
 98 382 98 383 99 384 c 0
 113 412 123 457 129 519 c 0
 63 519 l 0
 31 520 l 0
 31 520 l 0
 20 523 6 535 -12 555 c 0
 -28 570 -37 583 -38 596 c 1
EndSplineSet
AnchorPoint: "Virama" 507 -38 basechar 0
AnchorPoint: "Anchor-0" 480 610 basechar 0
Comment: "SA (Itrans: sa)" 
Colour: ffffff
EndChar
StartChar: uni0939
Encoding: 2361 2361 53
Width: 589
Flags: W
HStem: 377 79<213 304> 520 76<-38 32 -38 304 -38 554>
VStem: 0 77<73 146>
Fore
-38 596 m 1
 531 596 l 0
 550 596 560 595 562 594 c 0
 575 589 590 577 609 556 c 0
 622 544 631 532 634 520 c 0
 623 517 613 516 604 516 c 0
 554 519 l 0
 381 519 l 0
 381 379 l 0
 256 377 l 0
 254 377 l 0
 180 377 127 368 95 350 c 0
 84 342 78 331 78 316 c 0
 81 294 l 0
 84 281 89 273 95 270 c 0
 106 265 116 263 127 263 c 0
 132 263 153 267 191 274 c 0
 196 275 203 277 214 278 c 0
 272 279 l 0
 304 277 331 271 352 260 c 0
 373 248 395 230 419 206 c 0
 449 176 465 148 467 122 c 0
 465 93 l 0
 458 53 436 25 400 8 c 0
 385 -1 367 -6 346 -6 c 0
 315 -6 287 10 260 42 c 0
 247 57 240 67 240 72 c 0
 240 75 241 76 243 76 c 0
 248 75 l 0
 277 72 l 0
 318 74 350 92 373 127 c 0
 378 138 382 145 384 150 c 0
 389 162 391 173 391 182 c 0
 391 187 390 190 387 193 c 0
 385 195 377 197 363 199 c 0
 314 202 l 0
 298 201 l 0
 297 201 l 0
 226 194 170 177 129 150 c 0
 94 131 77 106 77 73 c 0
 78 38 98 9 139 -16 c 0
 157 -26 l 0
 219 -61 299 -92 397 -119 c 0
 420 -124 434 -127 439 -130 c 0
 454 -137 471 -150 488 -171 c 0
 501 -186 508 -196 508 -201 c 0
 507 -206 l 0
 364 -169 256 -128 182 -81 c 0
 136 -54 97 -21 64 18 c 0
 21 67 0 110 0 146 c 0
 0 169 7 187 20 201 c 0
 38 222 60 236 86 243 c 0
 65 262 48 282 33 301 c 0
 23 316 16 330 12 341 c 0
 4 360 0 377 0 391 c 0
 0 400 1 406 4 411 c 0
 12 426 38 438 83 445 c 0
 122 452 179 456 255 456 c 0
 297 456 l 0
 304 456 l 0
 304 519 l 0
 118 519 l 0
 51 516 l 0
 42 517 36 519 32 520 c 0
 30 520 23 524 11 533 c 0
 -20 559 -36 580 -38 596 c 1
EndSplineSet
AnchorPoint: "Virama" 400 -201 basechar 0
AnchorPoint: "Anchor-0" 349 610 basechar 0
Comment: "HA (Itrans: ha)" 
Colour: ffffff
EndChar
StartChar: uni093C
Encoding: 2364 2364 54
Width: 384
Flags: W
Fore
195 94 m 1
 251 39 l 0
 251 38 l 0
 203 -8 l 0
 200 -11 198 -13 196 -14 c 0
 184 -3 166 14 141 39 c 0
 195 94 l 1
EndSplineSet
Comment: "Nukta" 
Colour: ffffff
EndChar
StartChar: uni093D
Encoding: 2365 2365 55
Width: 329
Flags: W
HStem: 518 78<174 314>
VStem: 254 77<100 174>
Fore
-39 261 m 1
 -28 260 -15 250 2 233 c 0
 21 214 32 200 35 193 c 0
 36 190 37 189 37 188 c 0
 40 149 l 0
 42 123 48 100 57 80 c 0
 61 65 66 56 71 51 c 0
 80 43 94 39 115 39 c 0
 124 39 131 39 136 40 c 0
 178 46 211 68 234 105 c 0
 247 126 254 149 254 174 c 0
 254 184 l 0
 252 203 248 218 241 227 c 0
 232 236 214 248 186 265 c 0
 172 273 l 0
 171 273 l 0
 126 304 l 0
 91 333 l 0
 31 385 0 435 -2 482 c 0
 1 510 l 0
 3 517 6 524 10 533 c 0
 21 556 32 571 43 579 c 0
 48 582 55 585 64 588 c 0
 87 593 124 596 174 596 c 0
 240 596 l 0
 243 596 l 0
 295 596 l 0
 309 596 317 595 320 594 c 0
 340 586 359 570 377 545 c 0
 384 536 388 527 390 520 c 0
 367 517 l 0
 330 519 l 0
 212 518 l 0
 209 518 l 0
 166 517 141 515 134 514 c 0
 107 508 91 491 86 463 c 0
 88 418 l 0
 90 402 l 0
 91 396 97 385 109 369 c 0
 125 349 l 0
 129 347 l 0
 136 342 146 333 160 318 c 0
 175 307 l 0
 279 238 331 169 331 100 c 0
 331 81 326 62 317 41 c 0
 297 -4 262 -29 213 -35 c 0
 179 -35 l 0
 152 -33 126 -24 102 -7 c 0
 23 49 -23 123 -35 214 c 0
 -38 227 -39 243 -39 261 c 1
EndSplineSet
Comment: "Avagraha (Itrans: .a)" 
Colour: ffffff
EndChar
StartChar: uni093E
Encoding: 2366 2366 56
Width: 329
Flags: W
HStem: 519 77<-38 46 -38 301>
VStem: 46 77<33 519>
Fore
-38 596 m 1
 266 596 l 0
 288 596 300 596 301 596 c 1
 306 594 314 588 323 580 c 0
 352 557 366 534 374 519 c 1
 363 519 353 519 344 519 c 0
 293 519 l 0
 123 519 l 0
 123 -38 l 0
 110 -37 90 -22 64 7 c 0
 61 11 l 0
 52 22 47 29 46 34 c 0
 46 61 l 0
 46 83 l 0
 46 519 l 0
 27 519 4 534 -22 565 c 0
 -31 578 -37 588 -38 596 c 1
EndSplineSet
AnchorPoint: "Anchor-0" 85 596 basechar 0
Comment: "AA (Itrans: aa or A)" 
Colour: ffffff
EndChar
StartChar: uni093F
Encoding: 2367 2367 57
Width: 329
Flags: W
HStem: 519 77<-38 46 123 301>
VStem: 46 77<33 519 595 714>
Fore
46 596 m 1
 46 756 l 0
 46 793 51 819 62 832 c 0
 66 838 72 844 80 850 c 0
 105 865 135 873 170 873 c 0
 181 873 190 873 196 872 c 0
 257 867 333 843 425 802 c 0
 454 788 480 769 502 746 c 0
 514 733 521 721 522 712 c 0
 513 713 493 722 461 737 c 0
 447 744 l 0
 363 779 298 797 252 797 c 0
 241 797 227 796 210 793 c 0
 163 785 135 764 126 731 c 0
 124 723 123 706 123 681 c 0
 123 596 l 0
 244 596 l 0
 291 596 l 0
 301 596 l 0
 306 594 314 588 323 580 c 0
 352 557 391 519 373 519 c 0
 362 519 353 519 344 519 c 0
 293 519 l 0
 123 519 l 0
 123 -38 l 0
 110 -37 90 -22 64 7 c 0
 61 11 l 0
 52 22 47 29 46 34 c 0
 46 61 l 0
 46 83 l 0
 46 519 l 0
 27 519 4 534 -22 565 c 0
 -31 578 -37 588 -38 596 c 0
 46 596 l 1
EndSplineSet
Comment: "I (Itrans: i)" 
Colour: ffffff
EndChar
StartChar: uni0940
Encoding: 2368 2368 58
Width: 329
Flags: W
HStem: 519 77<-38 46 155 293>
VStem: 46 77<82 519>
Fore
-287 656 m 1
 -302 658 -323 675 -351 707 c 0
 -359 718 -363 726 -364 729 c 0
 -362 746 l 0
 -355 765 l 0
 -338 810 -308 842 -266 859 c 0
 -253 866 -239 870 -223 872 c 0
 -186 873 l 0
 -117 867 -51 825 12 746 c 0
 41 704 l 0
 54 685 69 659 84 627 c 0
 89 612 93 603 96 600 c 0
 97 599 98 598 100 597 c 0
 103 595 109 594 119 594 c 0
 156 596 l 0
 256 596 l 0
 297 596 l 0
 300 595 302 594 303 594 c 0
 314 589 329 577 346 559 c 0
 362 542 371 529 373 520 c 0
 362 517 353 516 344 516 c 0
 293 519 l 0
 123 519 l 0
 123 -38 l 0
 110 -37 90 -22 64 7 c 0
 61 11 l 0
 52 22 48 29 47 34 c 0
 45 61 l 0
 46 83 l 0
 46 519 l 0
 27 519 4 534 -22 565 c 0
 -31 578 -37 588 -38 596 c 0
 45 596 l 0
 -2 708 l 0
 -6 718 l 0
 -7 719 l 0
 -22 748 -34 766 -41 771 c 0
 -58 785 -81 793 -109 795 c 0
 -144 795 l 0
 -191 789 -230 766 -260 727 c 0
 -274 705 -283 681 -287 656 c 1
EndSplineSet
Comment: "II (Itrans: ii or I)" 
Colour: ffffff
EndChar
StartChar: uni0941
Encoding: 2369 2369 59
Width: 0
GlyphClass: 4
Flags: W
HStem: -152 57<-295 -242>
Fore
-585 -97 m 1
 -511 -171 l 0
 -475 -219 -428 -251 -369 -268 c 0
 -348 -274 -328 -277 -308 -277 c 0
 -293 -277 -280 -276 -270 -273 c 0
 -235 -266 -213 -249 -202 -220 c 0
 -201 -216 -199 -210 -198 -202 c 0
 -199 -179 l 0
 -201 -167 -205 -160 -212 -157 c 0
 -220 -154 -228 -152 -236 -152 c 0
 -239 -152 -239 -152 -242 -152 c 0
 -265 -152 -287 -159 -308 -173 c 0
 -333 -198 l 0
 -341 -200 l 0
 -354 -199 -369 -186 -385 -163 c 0
 -390 -158 -392 -152 -392 -145 c 0
 -387 -132 -370 -119 -343 -106 c 0
 -327 -99 -311 -95 -295 -95 c 0
 -252 -95 -213 -116 -178 -157 c 0
 -171 -164 -165 -173 -159 -183 c 0
 -147 -202 -141 -224 -141 -247 c 0
 -141 -257 -143 -268 -146 -280 c 0
 -158 -299 l 0
 -163 -304 -167 -307 -168 -308 c 0
 -189 -326 -217 -335 -251 -335 c 0
 -257 -335 -265 -334 -274 -333 c 0
 -369 -323 -457 -270 -537 -174 c 0
 -550 -157 -562 -142 -571 -128 c 0
 -585 -97 l 1
EndSplineSet
AnchorPoint: "Virama" -294 -20 mark 0
Substitution: 0 65534 'U101' usign3
Substitution: 0 65534 'U100' usign2
Comment: "U (Itrans: u)" 
Colour: ffffff
EndChar
StartChar: uni0942
Encoding: 2370 2370 60
Width: 0
Flags: W
HStem: -153 58<-486 -432>
VStem: -578 57<-222 -169>
DStem: -409 -263 -409 -263 -453 -271 -403 -264
Fore
-161 -367 m 1
 -177 -366 -197 -350 -220 -319 c 0
 -232 -301 l 0
 -268 -256 l 0
 -326 -187 -381 -153 -432 -153 c 0
 -439 -153 -445 -153 -450 -154 c 0
 -474 -157 -493 -165 -506 -180 c 0
 -516 -192 -521 -206 -521 -222 c 0
 -521 -235 -517 -245 -510 -252 c 0
 -495 -265 -476 -271 -453 -271 c 0
 -409 -263 l 0
 -403 -264 l 0
 -402 -264 l 0
 -390 -269 -377 -281 -362 -301 c 0
 -357 -306 -355 -310 -355 -313 c 0
 -358 -319 l 0
 -360 -321 l 0
 -368 -326 -380 -329 -395 -329 c 0
 -425 -326 l 0
 -472 -317 -514 -288 -551 -237 c 0
 -554 -233 -556 -230 -558 -227 c 0
 -571 -205 -578 -186 -578 -169 c 0
 -574 -146 l 0
 -572 -140 -568 -134 -563 -127 c 0
 -547 -106 -521 -95 -486 -95 c 0
 -471 -95 -454 -98 -437 -103 c 0
 -367 -126 -296 -184 -223 -276 c 0
 -210 -292 -194 -312 -177 -336 c 0
 -168 -349 -162 -360 -161 -367 c 1
EndSplineSet
AnchorPoint: "Virama" -434 -20 mark 0
Substitution: 0 65534 'U101' uusign3
Substitution: 0 65534 'U100' uusign2
Comment: "UU (Itrans: uu or U)" 
Colour: ffffff
EndChar
StartChar: uni0943
Encoding: 2371 2371 61
Width: 0
Flags: W
HStem: -212 56<-410 -352> -212 68<-332 -324>
Fore
-421 23 m 0
 -398 22 l 0
 -386 19 -373 10 -358 -5 c 0
 -349 -16 -344 -24 -344 -30 c 0
 -345 -32 -350 -33 -358 -33 c 0
 -363 -33 -377 -34 -400 -37 c 0
 -472 -47 -512 -69 -521 -102 c 0
 -523 -117 l 0
 -521 -130 -509 -139 -487 -146 c 0
 -460 -153 -435 -156 -410 -156 c 0
 -397 -156 -382 -155 -367 -153 c 0
 -332 -144 l 0
 -324 -144 l 0
 -310 -147 -296 -159 -282 -180 c 0
 -277 -185 -275 -190 -275 -194 c 0
 -275 -197 -276 -199 -277 -200 c 0
 -287 -208 -307 -212 -337 -212 c 0
 -352 -212 l 0
 -433 -212 -496 -188 -543 -139 c 0
 -566 -114 -579 -89 -580 -65 c 0
 -580 -58 -578 -50 -575 -41 c 0
 -570 -29 -561 -19 -550 -12 c 0
 -528 4 -487 15 -428 22 c 0
 -425 23 -423 23 -421 23 c 0
EndSplineSet
AnchorPoint: "Virama" -385 -20 mark 0
Substitution: 0 65534 'U101' risign3
Substitution: 0 65534 'U100' risign2
Comment: "Vocalic R (Itrans: RRi or R^i)" 
Colour: ffffff
EndChar
StartChar: uni0944
Encoding: 2372 2372 62
Width: 0
Flags: W
HStem: -355 58<-404 -354> -209 58<-417 -369>
VStem: -549 57<-262 -211>
Fore
-309 -125 m 0
 -297 -125 -283 -135 -268 -154 c 0
 -258 -172 l 0
 -257 -177 l 0
 -257 -184 -275 -192 -311 -201 c 0
 -331 -206 -350 -209 -369 -209 c 0
 -376 -209 -381 -209 -384 -208 c 0
 -434 -201 l 0
 -448 -203 l 0
 -467 -211 -481 -224 -488 -243 c 0
 -492 -262 l 0
 -492 -267 -491 -271 -490 -274 c 0
 -486 -283 -472 -289 -447 -293 c 0
 -436 -296 -421 -297 -404 -297 c 0
 -371 -297 -340 -290 -311 -276 c 0
 -281 -259 l 0
 -274 -252 -269 -249 -267 -249 c 0
 -254 -252 l 0
 -241 -261 -231 -272 -222 -286 c 0
 -217 -291 -215 -296 -215 -301 c 0
 -215 -304 -216 -306 -217 -307 c 0
 -228 -320 -249 -332 -280 -343 c 0
 -304 -351 -329 -355 -354 -355 c 0
 -404 -355 -448 -340 -485 -311 c 0
 -528 -278 -549 -244 -549 -211 c 0
 -545 -190 l 0
 -544 -187 -543 -183 -540 -178 c 0
 -538 -175 -529 -165 -513 -150 c 0
 -520 -145 -530 -134 -542 -117 c 0
 -555 -96 -562 -77 -562 -62 c 0
 -559 -42 l 0
 -549 -12 -509 6 -438 13 c 0
 -391 17 l 0
 -390 17 -384 16 -374 14 c 0
 -361 11 -348 -1 -334 -20 c 0
 -326 -34 l 0
 -327 -39 l 0
 -328 -40 l 0
 -332 -42 -346 -43 -370 -43 c 0
 -375 -43 l 0
 -420 -45 -455 -54 -479 -69 c 0
 -495 -78 -504 -91 -506 -109 c 0
 -505 -123 l 0
 -504 -126 -502 -129 -499 -132 c 0
 -494 -138 -482 -143 -464 -146 c 0
 -451 -149 -436 -151 -417 -151 c 0
 -392 -151 -371 -148 -354 -142 c 0
 -314 -125 l 0
 -309 -125 l 0
EndSplineSet
AnchorPoint: "Virama" -368 -20 mark 0
Substitution: 0 65534 'U101' rrisign3
Substitution: 0 65534 'U100' rrisign2
Comment: "Vocalic RR (Itrans: R^I or RRI)" 
Colour: ffffff
EndChar
StartChar: uni0945
Encoding: 2373 2373 63
Width: 401
Flags: W
VStem: 249 58<783 828>
DStem: 247 861 247 861 244 858 256 859
Fore
-26 861 m 0
 -20 861 l 0
 -11 856 l 0
 0 850 11 840 21 826 c 0
 26 815 26 815 39 785 c 0
 42 778 46 771 50 764 c 0
 65 741 97 728 144 725 c 0
 168 727 l 0
 199 732 222 750 238 781 c 0
 245 796 249 811 249 828 c 0
 249 832 248 839 247 848 c 0
 244 858 l 0
 247 861 l 0
 256 859 l 0
 257 859 259 858 263 855 c 0
 276 847 287 835 296 820 c 0
 303 810 307 798 307 783 c 0
 307 780 307 780 307 778 c 0
 307 745 295 717 270 693 c 0
 269 692 267 691 263 688 c 0
 243 673 221 666 197 666 c 0
 150 666 101 689 50 734 c 0
 38 745 28 755 21 764 c 0
 3 787 -11 811 -21 836 c 0
 -25 845 -27 852 -27 857 c 0
 -27 859 -27 860 -26 861 c 0
EndSplineSet
Comment: "Chandra E (Itrans: .c)" 
Colour: ffffff
EndChar
StartChar: uni0946
Encoding: 2374 2374 64
Width: 0
Flags: W
HStem: 701 61<-313 -238>
Fore
-84 597 m 1
 -89 591 -91 588 -92 588 c 0
 -104 613 l 0
 -115 654 -129 677 -148 683 c 0
 -186 695 -216 701 -238 701 c 0
 -313 699 l 0
 -380 699 -416 728 -420 787 c 0
 -421 790 -421 794 -421 801 c 0
 -421 820 -420 830 -418 831 c 0
 -414 824 l 0
 -405 801 l 0
 -398 782 -379 771 -348 766 c 0
 -337 763 -326 762 -313 762 c 0
 -270 762 -221 757 -164 746 c 0
 -155 744 -149 742 -146 741 c 0
 -106 723 -85 704 -83 685 c 0
 -82 677 l 0
 -82 676 l 0
 -80 635 l 0
 -81 616 l 0
 -84 597 l 1
EndSplineSet
AnchorPoint: "Anchor-0" -91 599 mark 0
Comment: "Short E (Itrans: )" 
Colour: ffffff
EndChar
StartChar: uni0947
Encoding: 2375 2375 65
Width: 0
Flags: W
Fore
-639 875 m 1
 -523 875 -409 818 -296 703 c 0
 -277 685 -256 661 -233 631 c 0
 -220 614 -214 603 -213 596 c 0
 -225 596 -240 606 -258 626 c 0
 -326 705 l 0
 -346 722 l 0
 -390 756 -440 779 -495 791 c 0
 -500 792 -517 795 -548 798 c 0
 -570 800 l 0
 -585 807 -604 823 -625 849 c 0
 -634 858 -638 866 -639 875 c 1
EndSplineSet
AnchorPoint: "Anchor-0" -218 610 mark 0
Comment: "E (Itrans: e)" 
Colour: ffffff
EndChar
StartChar: uni0948
Encoding: 2376 2376 66
Width: 0
Flags: W
Fore
-562 900 m 1
 -475 900 -393 857 -314 771 c 0
 -295 748 -279 727 -266 707 c 0
 -233 657 -215 619 -213 594 c 0
 -218 594 -233 601 -256 616 c 0
 -261 619 -264 621 -265 622 c 0
 -350 675 -444 705 -545 712 c 0
 -570 714 l 0
 -585 721 -604 737 -625 763 c 0
 -634 774 -639 783 -639 789 c 0
 -531 789 -416 752 -294 678 c 0
 -309 722 -328 754 -349 774 c 0
 -362 788 -382 800 -411 810 c 0
 -432 817 -449 820 -462 821 c 0
 -493 824 l 0
 -502 828 -516 839 -535 857 c 0
 -539 861 l 0
 -554 877 -562 890 -562 900 c 1
EndSplineSet
AnchorPoint: "Anchor-0" -213 594 mark 0
Comment: "AI (Itrans: ai)" 
Colour: ffffff
EndChar
StartChar: uni0949
Encoding: 2377 2377 67
Width: 329
Flags: W
HStem: 519 77<-38 46 -38 293>
VStem: 46 77<82 519> 158 59<778 828>
Fore
-117 861 m 0
 -110 861 l 0
 -102 856 l 0
 -91 850 -81 840 -70 826 c 0
 -66 821 -60 806 -52 783 c 0
 -49 776 -46 770 -41 764 c 0
 -25 741 6 728 53 725 c 0
 77 727 l 0
 109 732 132 750 147 781 c 0
 154 798 158 813 158 828 c 0
 158 837 157 843 156 848 c 0
 154 858 l 0
 154 860 155 861 156 861 c 0
 165 859 l 0
 172 855 l 0
 186 847 197 835 205 820 c 0
 213 809 217 795 217 778 c 0
 217 746 204 718 178 693 c 0
 173 689 l 0
 172 688 l 0
 151 673 129 666 105 666 c 0
 58 666 9 689 -41 734 c 0
 -51 743 -60 753 -69 764 c 0
 -87 783 -101 807 -112 836 c 0
 -117 845 -119 852 -119 857 c 0
 -119 858 -118 860 -117 861 c 0
-38 596 m 1
 195 596 l 0
 266 596 l 0
 288 596 300 596 301 595 c 0
 306 593 314 588 323 580 c 0
 352 557 368 537 373 520 c 0
 362 517 353 516 344 516 c 0
 293 519 l 0
 123 519 l 0
 123 -38 l 0
 110 -37 90 -22 64 7 c 0
 61 11 l 0
 52 22 48 29 47 34 c 0
 45 61 l 0
 46 83 l 0
 46 519 l 0
 27 519 4 534 -22 565 c 0
 -31 578 -37 588 -38 596 c 1
EndSplineSet
Comment: "Chandra O (Itrans: aa.c or A.c)" 
Colour: ffffff
EndChar
StartChar: uni094A
Encoding: 2378 2378 68
Width: 329
Flags: W
HStem: 519 77<-38 46 90 293> 701 61<-134 -59>
VStem: 46 77<82 519>
Fore
88 596 m 1
 88 597 l 0
 78 645 59 674 31 683 c 0
 -6 695 -36 701 -59 701 c 0
 -134 699 l 0
 -201 699 -236 728 -240 787 c 0
 -241 790 -241 794 -241 801 c 0
 -241 820 -240 830 -238 831 c 0
 -234 824 l 0
 -226 801 l 0
 -219 783 -199 771 -168 766 c 0
 -157 763 -146 762 -134 762 c 0
 -91 762 -40 757 17 746 c 0
 22 745 28 743 34 741 c 0
 68 724 88 705 94 684 c 0
 95 676 l 0
 95 647 94 626 92 615 c 0
 92 613 91 607 90 596 c 0
 195 596 l 0
 266 596 l 0
 288 596 300 596 301 595 c 0
 306 593 314 588 323 580 c 0
 352 557 368 537 373 520 c 0
 362 517 353 516 344 516 c 0
 293 519 l 0
 123 519 l 0
 123 -38 l 0
 110 -37 90 -22 64 7 c 0
 61 11 l 0
 52 22 48 29 47 34 c 0
 45 61 l 0
 46 83 l 0
 46 519 l 0
 27 519 4 534 -22 565 c 0
 -31 578 -37 588 -38 596 c 0
 88 596 l 1
EndSplineSet
Comment: "Short O (Itrans: )" 
Colour: ffffff
EndChar
StartChar: uni094B
Encoding: 2379 2379 69
Width: 329
Flags: W
HStem: 519 77<-38 46 84 293>
VStem: 46 77<82 519>
Fore
75 596 m 1
 66 598 54 607 39 624 c 0
 -29 703 l 0
 -49 720 l 0
 -93 754 -143 777 -198 789 c 0
 -203 790 -220 793 -251 796 c 0
 -273 798 l 0
 -288 805 -307 821 -328 847 c 0
 -337 856 -341 864 -342 873 c 0
 -227 873 -113 816 2 701 c 0
 26 676 46 652 63 629 c 0
 76 613 83 602 84 596 c 0
 195 596 l 0
 266 596 l 0
 288 596 300 596 301 595 c 0
 306 593 314 588 323 580 c 0
 352 557 368 537 373 520 c 0
 362 517 353 516 344 516 c 0
 293 519 l 0
 123 519 l 0
 123 -38 l 0
 110 -37 90 -22 64 7 c 0
 61 11 l 0
 52 22 48 29 47 34 c 0
 45 61 l 0
 46 83 l 0
 46 519 l 0
 27 519 4 534 -22 565 c 0
 -31 578 -37 588 -38 596 c 0
 75 596 l 1
EndSplineSet
Comment: "O (Itrans: o)" 
Colour: ffffff
EndChar
StartChar: uni094C
Encoding: 2380 2380 70
Width: 329
Flags: W
HStem: 519 77<-38 46 85 293>
VStem: 46 77<82 519>
Fore
76 596 m 1
 68 600 56 607 41 617 c 0
 34 622 l 0
 33 622 l 0
 -53 675 -146 705 -247 712 c 0
 -272 714 l 0
 -286 719 -304 736 -327 763 c 0
 -335 772 -340 781 -341 789 c 0
 -232 789 -117 752 4 678 c 0
 -12 723 -30 755 -51 774 c 0
 -63 787 -84 799 -113 810 c 0
 -134 817 -151 820 -164 821 c 0
 -195 824 l 0
 -204 827 -219 840 -240 861 c 0
 -255 876 -264 889 -265 900 c 0
 -176 900 -92 855 -13 766 c 0
 4 749 19 729 32 707 c 0
 65 658 82 621 85 596 c 0
 195 596 l 0
 266 596 l 0
 288 596 300 596 301 595 c 0
 306 593 314 588 323 580 c 0
 352 557 368 537 373 520 c 0
 362 517 353 516 344 516 c 0
 293 519 l 0
 123 519 l 0
 123 -38 l 0
 110 -37 90 -22 64 7 c 0
 61 11 l 0
 52 22 48 29 47 34 c 0
 45 61 l 0
 46 83 l 0
 46 519 l 0
 27 519 4 534 -22 565 c 0
 -31 578 -37 588 -38 596 c 0
 76 596 l 1
EndSplineSet
Comment: "AU (Itrans: au)" 
Colour: ffffff
EndChar
StartChar: uni094D
Encoding: 2381 2381 71
Width: 0
Flags: W
Fore
-21 -89 m 1
 67 -89 149 -127 225 -203 c 0
 238 -216 253 -233 270 -253 c 0
 276 -263 279 -270 279 -273 c 0
 279 -278 l 0
 264 -273 248 -259 229 -237 c 0
 220 -226 209 -217 198 -208 c 0
 169 -191 141 -179 112 -173 c 0
 55 -167 l 0
 52 -166 50 -165 49 -165 c 0
 37 -159 26 -150 15 -139 c 0
 -6 -118 -17 -106 -18 -101 c 0
 -20 -97 -21 -93 -21 -89 c 1
EndSplineSet
AnchorPoint: "ra_to_virama" 76 -44 mark 0
AnchorPoint: "Virama" 77 -20 mark 0
Substitution: 0 65534 'U101' virama3
Substitution: 0 65534 'U100' virama2
Comment: "Virama (Itrans: the consonant form is written without the vowel)" 
Colour: ffffff
EndChar
StartChar: uni0950
Encoding: 2384 2384 72
Width: 1018
Flags: W
HStem: 194 78<111 197> 379 242<710 777>
VStem: 301 76<336 408>
Fore
620 667 m 1
 676 613 l 0
 676 611 l 0
 621 558 l 0
 620 558 l 0
 565 611 l 0
 565 613 l 0
 620 667 l 1
392 621 m 0
 398 621 l 0
 402 619 405 617 408 614 c 0
 423 605 437 592 450 575 c 0
 455 568 464 554 477 531 c 0
 481 521 486 513 492 507 c 0
 517 480 558 463 617 457 c 0
 652 457 l 0
 703 464 740 490 762 533 c 0
 763 535 764 537 765 540 c 0
 773 561 777 580 777 596 c 0
 777 601 l 0
 775 618 l 0
 775 620 776 621 777 621 c 0
 786 619 l 0
 788 618 790 617 793 614 c 0
 806 605 818 594 831 579 c 0
 846 563 854 543 854 518 c 0
 854 481 838 447 807 416 c 0
 793 405 l 0
 770 388 743 379 710 379 c 0
 698 379 686 380 673 382 c 0
 606 393 538 432 470 500 c 0
 445 525 421 556 400 594 c 0
 394 604 391 612 391 617 c 0
 392 621 l 0
111 272 m 1
 173 272 225 293 266 335 c 0
 289 360 301 384 301 408 c 0
 300 413 l 0
 300 414 l 0
 299 421 291 426 276 428 c 0
 255 432 236 434 221 434 c 0
 214 434 209 434 206 433 c 0
 156 426 128 421 121 419 c 0
 79 407 l 0
 72 407 l 0
 68 408 61 413 50 420 c 0
 25 439 8 458 1 475 c 0
 2 482 l 0
 5 485 13 488 25 491 c 0
 62 501 93 507 118 509 c 0
 180 509 l 0
 208 506 231 500 250 492 c 0
 290 475 323 448 350 410 c 0
 368 385 377 360 377 336 c 0
 377 327 l 0
 375 302 362 278 338 254 c 0
 361 243 380 226 396 201 c 0
 399 198 400 196 401 195 c 0
 408 204 427 219 458 238 c 0
 461 239 463 241 465 242 c 0
 514 271 563 286 612 286 c 0
 651 283 l 0
 672 280 692 273 711 264 c 0
 738 249 764 229 787 206 c 0
 828 166 849 131 852 102 c 0
 851 84 l 0
 848 66 835 55 812 51 c 0
 789 47 776 44 773 43 c 0
 745 30 729 8 725 -25 c 0
 724 -28 723 -32 723 -38 c 0
 714 -37 702 -29 687 -16 c 0
 664 4 650 21 646 34 c 0
 646 53 l 0
 648 66 654 80 664 94 c 0
 679 111 697 122 718 126 c 0
 750 130 l 0
 758 134 l 0
 769 141 775 153 775 170 c 0
 773 184 l 0
 772 186 770 188 768 190 c 0
 761 196 742 202 709 207 c 0
 670 209 l 0
 624 206 577 189 530 158 c 0
 518 151 500 137 475 117 c 0
 462 106 456 100 455 99 c 0
 454 83 l 0
 456 62 l 0
 453 22 438 -7 409 -24 c 0
 394 -34 376 -39 355 -39 c 0
 313 -35 l 0
 218 -25 132 13 57 80 c 0
 40 94 27 107 18 118 c 0
 6 131 0 142 0 149 c 0
 9 148 21 141 35 128 c 0
 54 113 71 101 86 92 c 0
 127 66 179 49 244 42 c 0
 291 39 l 0
 296 39 301 40 308 41 c 0
 339 49 361 71 373 107 c 0
 376 117 378 129 378 144 c 0
 378 151 378 156 377 160 c 0
 373 185 368 199 362 203 c 0
 347 216 329 223 308 225 c 0
 300 225 l 0
 298 225 288 220 269 211 c 0
 241 200 217 194 197 194 c 0
 186 195 l 0
 185 195 l 0
 177 197 162 208 140 229 c 0
 123 247 113 261 111 272 c 1
EndSplineSet
Comment: "OM (Itrans: OM or AUM)" 
Colour: ffffff
EndChar
StartChar: uni0951
Encoding: 2385 2385 73
Width: 0
VWidth: 1024
Flags: W
Fore
-178 1083 m 1
 -61 1083 l 0
 -102 796 l 0
 -140 796 l 0
 -178 1083 l 1
EndSplineSet
Comment: "UDATTA (Itrans: +AFwA')" 
Colour: ffffff
EndChar
StartChar: uni0952
Encoding: 2386 2386 74
Width: 0
VWidth: 1024
Flags: W
HStem: -631 61<-553 -183>
Fore
-553 -570 m 1
 -183 -570 l 0
 -183 -631 l 0
 -553 -631 l 0
 -553 -570 l 1
EndSplineSet
Comment: "Anudatta (Itrans: +AFwA`)" 
Colour: ffffff
EndChar
StartChar: uni0953
Encoding: 2387 2387 75
Width: 45
Flags: W
DStem: -609 807 -504 821 -427 657 -323 674
Fore
-576 879 m 0
 -572 878 -565 872 -555 862 c 0
 -504 821 l 0
 -323 674 l 0
 -305 658 l 0
 -304 657 l 0
 -303 648 l 0
 -311 637 l 0
 -325 616 -339 604 -352 603 c 0
 -356 603 l 0
 -363 605 -370 610 -379 618 c 0
 -427 657 l 0
 -609 807 l 0
 -619 813 -626 818 -629 823 c 0
 -631 830 l 0
 -629 834 -627 838 -624 842 c 0
 -605 867 -590 879 -580 879 c 0
 -576 879 l 0
EndSplineSet
Comment: "Grave Accent (Itrans: )" 
Colour: ffffff
EndChar
StartChar: uni0954
Encoding: 2388 2388 76
Width: 470
Flags: W
DStem: 79 821 145 773 -102 674 -46 618
Fore
145 773 m 2
 -46 618 l 0
 -56 609 -63 604 -68 603 c 0
 -80 604 l 0
 -92 609 -103 620 -114 637 c 0
 -119 646 -122 651 -122 652 c 0
 -121 657 l 0
 -102 674 l 0
 79 821 l 0
 130 862 l 0
 146 877 l 0
 149 878 150 879 151 879 c 0
 162 878 l 0
 175 872 187 860 199 842 c 0
 203 834 205 829 205 828 c 0
 204 823 l 0
 203 822 197 816 186 807 c 0
 145 773 l 2
EndSplineSet
Comment: "Acute Accent (Itrans: )" 
Colour: ffffff
EndChar
StartChar: uni0958
Encoding: 2392 2392 77
Width: 721
Flags: W
HStem: 158 78<147 219> 375 78<145 215> 519 77<-38 269 -38 683>
VStem: 0 75<269 342> 269 77<73 165 405 519>
Fore
269 369 m 1
 250 373 232 375 215 375 c 0
 163 375 124 358 98 325 c 0
 83 308 75 289 75 269 c 0
 75 260 77 254 80 250 c 0
 81 249 87 247 98 242 c 0
 114 238 130 236 147 236 c 0
 194 236 230 251 254 280 c 0
 259 286 264 294 267 305 c 0
 269 312 270 321 270 332 c 0
 269 369 l 1
-38 596 m 1
 653 596 l 0
 678 596 691 595 694 594 c 0
 705 591 720 579 739 558 c 0
 754 541 763 528 765 520 c 0
 639 519 l 0
 634 519 l 0
 346 519 l 0
 346 409 l 0
 367 418 383 422 395 423 c 0
 426 422 l 0
 463 415 502 392 541 353 c 0
 572 321 590 292 596 266 c 0
 599 232 l 0
 595 182 l 0
 590 137 579 83 564 18 c 0
 549 18 529 33 503 64 c 0
 500 67 l 0
 491 80 487 88 487 92 c 0
 487 97 491 114 499 143 c 0
 501 149 l 0
 501 150 l 0
 509 188 515 228 519 270 c 0
 523 312 l 0
 522 325 520 334 517 337 c 0
 514 343 501 346 478 346 c 0
 435 346 398 326 368 286 c 0
 353 265 346 236 346 198 c 0
 346 165 l 0
 346 -38 l 0
 334 -37 320 -27 303 -10 c 0
 283 10 272 24 270 31 c 0
 268 54 l 0
 269 74 l 0
 269 165 l 0
 253 160 236 158 219 158 c 0
 158 158 100 187 47 246 c 0
 46 247 45 249 43 251 c 0
 14 282 0 313 0 342 c 0
 0 350 1 356 2 360 c 0
 8 394 31 420 72 438 c 0
 96 448 120 453 145 453 c 0
 192 453 233 437 269 405 c 0
 269 519 l 0
 104 519 l 0
 46 517 l 0
 37 518 32 519 31 520 c 0
 16 526 -3 542 -24 568 c 0
 -32 577 -37 587 -38 596 c 1
114 92 m 1
 169 37 l 0
 169 36 l 0
 144 10 126 -7 115 -16 c 0
 59 37 l 0
 114 92 l 1
EndSplineSet
AnchorPoint: "Virama" 346 -38 basechar 0
AnchorPoint: "Anchor-0" 315 610 basechar 0
Ligature: 0 0 'nukt' uni0915 uni093C
LCarets: 0 65535 '    ' 1 0 
Comment: "QA (Itrans: q)" 
Colour: ffffff
EndChar
StartChar: uni095A
Encoding: 2394 2394 79
Width: 673
Flags: W
HStem: 518 78<-38 90 -38 391 -38 638>
VStem: 113 75<220 291> 391 77<82 519>
Fore
250 87 m 1
 306 32 l 0
 306 31 l 0
 276 1 258 -16 251 -21 c 0
 240 -11 221 7 196 32 c 0
 250 87 l 1
EndSplineSet
AnchorPoint: "Virama" 467 -40 basechar 0
AnchorPoint: "Anchor-0" 440 610 basechar 0
Ref: 2327 2327 N 1 0 0 1 0 0
Ligature: 0 0 'nukt' uni0917 uni093C
LCarets: 0 65535 '    ' 1 0 
Comment: "GHHA (Itrans: G)" 
Colour: ffffff
EndChar
StartChar: uni095B
Encoding: 2395 2395 80
Width: 789
Flags: W
HStem: 328 77<301 507> 520 76<-38 32 -38 39 39.0117 506 -38 754>
VStem: 504 81<54 519> 507 78<128 519>
Fore
412 39 m 1
 467 -16 l 0
 467 -17 l 0
 444 -41 426 -58 413 -68 c 0
 408 -65 390 -47 357 -16 c 0
 412 39 l 1
EndSplineSet
AnchorPoint: "Virama" 585 -39 basechar 0
AnchorPoint: "Anchor-0" 559 610 basechar 0
Ref: 2332 2332 N 1 0 0 1 0 0
Ligature: 0 0 'nukt' uni091C uni093C
LCarets: 0 65535 '    ' 1 0 
Comment: "ZA (Itrans: z)" 
Colour: ffffff
EndChar
StartChar: uni095C
Encoding: 2396 2396 81
Width: 632
Flags: W
HStem: 375 78<265 295> 517 79<-38 356 -38 600>
Fore
292 -9 m 1
 348 -64 l 0
 348 -65 l 0
 334 -80 316 -98 293 -117 c 0
 278 -105 260 -87 238 -64 c 0
 292 -9 l 1
EndSplineSet
AnchorPoint: "Virama" 293 -117 basechar 0
AnchorPoint: "Anchor-0" 400 610 basechar 0
Ref: 2337 2337 N 1 0 0 1 0 0
Ligature: 0 0 'nukt' uni0921 uni093C
LCarets: 0 65535 '    ' 1 0 
Comment: "DDDHA (Itrans: .D)" 
Colour: ffffff
EndChar
StartChar: uni0960
Encoding: 2400 2400 85
Width: 940
Flags: W
HStem: -208 79<693 759> 283 149<634 648> 519 77<-38 349 -38 913>
VStem: 348 80<42 240 343 519> 593 43<400 431>
DStem: 740 64 743 65 715 54 756 62
Fore
-38 596 m 1
 857 596 l 0
 904 596 l 0
 908 596 911 596 913 595 c 0
 919 592 926 587 935 580 c 0
 964 556 980 536 984 520 c 0
 821 519 l 0
 812 519 l 0
 428 519 l 0
 428 332 l 0
 604 367 l 0
 597 382 593 393 593 400 c 0
 593 417 601 428 617 432 c 0
 634 432 l 0
 635 432 636 432 636 431 c 0
 663 424 688 403 712 369 c 0
 715 366 719 359 724 350 c 0
 727 343 729 337 729 330 c 0
 727 314 l 0
 722 305 714 299 701 296 c 0
 716 251 734 195 754 129 c 0
 718 140 l 0
 691 138 l 0
 669 133 650 123 634 109 c 0
 617 95 607 79 604 62 c 0
 604 49 l 0
 604 48 604 47 605 46 c 0
 608 45 616 43 629 41 c 0
 664 41 l 0
 681 43 698 47 715 54 c 0
 740 64 l 0
 743 65 l 0
 756 62 l 0
 759 61 772 48 795 25 c 0
 807 13 815 1 818 -10 c 0
 788 -27 758 -36 727 -37 c 0
 708 -37 696 -36 691 -35 c 0
 676 -33 l 0
 674 -34 l 0
 669 -37 664 -44 659 -56 c 0
 648 -76 642 -99 642 -125 c 0
 693 -129 l 0
 706 -129 719 -127 731 -123 c 0
 739 -122 750 -117 765 -109 c 0
 780 -102 l 0
 784 -102 l 0
 797 -104 817 -121 844 -153 c 0
 851 -162 854 -168 854 -171 c 0
 854 -177 l 0
 849 -185 832 -193 805 -201 c 0
 786 -206 771 -208 759 -208 c 0
 710 -208 666 -189 627 -150 c 0
 585 -110 564 -76 564 -47 c 0
 564 -38 l 0
 565 -25 568 -12 573 0 c 0
 581 20 l 0
 581 21 l 0
 580 24 574 31 562 43 c 0
 560 46 l 0
 542 67 531 87 526 104 c 0
 524 128 l 0
 527 161 547 186 584 203 c 0
 602 211 621 215 641 215 c 0
 652 215 663 213 674 210 c 0
 658 257 649 281 648 283 c 0
 644 283 625 279 590 272 c 0
 428 240 l 0
 428 -38 l 0
 416 -37 402 -27 385 -10 c 0
 384 -9 382 -8 381 -7 c 0
 364 10 354 23 352 31 c 0
 349 39 348 47 348 55 c 0
 350 84 l 0
 350 201 l 0
 345 198 300 174 214 131 c 0
 209 129 l 0
 166 104 l 0
 152 101 l 0
 147 101 140 105 129 114 c 0
 99 138 82 159 77 177 c 0
 84 181 144 211 255 268 c 0
 328 307 l 0
 348 313 l 0
 341 324 324 336 297 347 c 0
 268 358 239 363 209 363 c 0
 186 363 161 359 136 352 c 0
 119 346 105 340 94 334 c 0
 77 324 l 0
 72 323 l 0
 69 324 62 328 52 336 c 0
 39 345 25 359 8 380 c 0
 4 385 2 390 2 395 c 0
 2 401 11 408 28 416 c 0
 59 430 91 438 122 440 c 0
 165 439 l 0
 231 432 293 400 350 343 c 0
 350 519 l 0
 67 519 l 0
 34 519 l 0
 27 521 19 526 11 533 c 0
 -20 559 -36 580 -38 596 c 1
EndSplineSet
Comment: "RR (Itrans: R^I)" 
Colour: ffffff
EndChar
StartChar: uni0961
Encoding: 2401 2401 86
Width: 803
Flags: W
HStem: -285 78<551 621> 185 224<358 480> 519 75<759 777> 519 77<-38 41 -38 480 -38 771 775 848>
VStem: 480 78<409 519>
DStem: 656 -157 664 -158 651 -159 673 -164
Fore
-38 596 m 1
 731 596 l 0
 771 596 l 0
 774 595 776 594 777 594 c 0
 789 589 803 578 820 559 c 0
 837 542 846 529 848 520 c 0
 759 519 l 0
 756 519 l 0
 558 519 l 0
 558 423 l 0
 557 391 l 0
 559 386 l 0
 560 383 567 378 578 369 c 0
 634 324 668 275 679 223 c 0
 682 190 l 0
 682 186 681 180 680 172 c 0
 674 138 651 111 611 90 c 0
 537 50 l 0
 510 33 492 12 484 -11 c 0
 481 -22 480 -33 480 -46 c 0
 523 -45 l 0
 537 -43 549 -40 558 -35 c 0
 601 -8 l 0
 602 -8 603 -8 604 -7 c 0
 613 -8 l 0
 624 -16 l 0
 641 -27 656 -42 669 -60 c 0
 676 -71 680 -77 680 -79 c 0
 680 -81 680 -82 679 -83 c 0
 676 -88 668 -94 655 -101 c 0
 628 -116 603 -124 580 -125 c 0
 546 -122 l 0
 545 -122 544 -122 542 -123 c 0
 527 -129 518 -143 513 -166 c 0
 512 -188 l 0
 517 -199 l 0
 520 -204 528 -207 543 -207 c 0
 551 -207 l 0
 573 -207 598 -198 627 -180 c 0
 651 -159 l 0
 656 -157 l 0
 664 -158 l 0
 673 -164 l 0
 683 -171 694 -181 707 -194 c 0
 722 -209 729 -221 730 -228 c 0
 727 -237 l 0
 724 -241 717 -247 704 -256 c 0
 675 -275 648 -285 621 -285 c 0
 612 -285 605 -284 598 -282 c 0
 566 -275 533 -254 500 -221 c 0
 463 -184 442 -150 437 -119 c 0
 436 -97 l 0
 436 -95 437 -89 439 -79 c 0
 447 -61 l 0
 447 -57 l 0
 445 -53 438 -43 426 -27 c 0
 420 -21 l 0
 409 -5 403 14 403 35 c 0
 403 53 408 70 418 86 c 0
 430 104 457 124 500 146 c 0
 542 167 570 186 583 203 c 0
 597 219 604 238 604 260 c 0
 604 269 603 277 602 282 c 0
 599 302 596 315 591 322 c 0
 586 329 576 333 559 333 c 0
 533 331 l 0
 460 324 410 298 382 255 c 0
 369 236 363 218 363 201 c 0
 363 190 361 185 358 185 c 0
 354 185 347 189 336 198 c 0
 305 225 288 245 285 258 c 0
 283 297 l 0
 281 304 277 308 271 311 c 0
 252 321 225 328 191 331 c 0
 152 331 l 0
 143 329 l 0
 132 326 123 321 115 315 c 0
 90 297 77 270 77 233 c 0
 77 190 93 145 125 98 c 0
 134 86 l 0
 142 75 155 59 172 39 c 0
 217 -7 l 0
 226 -18 232 -28 233 -38 c 0
 225 -37 213 -30 196 -17 c 0
 171 8 149 32 130 55 c 0
 67 126 27 188 12 241 c 0
 8 253 5 267 2 282 c 0
 0 324 l 0
 0 328 0 331 1 332 c 0
 3 343 7 352 12 360 c 0
 29 393 60 410 105 410 c 0
 139 410 174 402 209 386 c 0
 243 369 273 347 300 320 c 0
 304 334 317 349 338 365 c 0
 374 394 421 409 480 409 c 0
 480 519 l 0
 188 519 l 0
 49 518 l 0
 40 519 l 0
 39 519 l 0
 32 519 23 523 14 531 c 0
 -20 558 -37 579 -38 596 c 1
EndSplineSet
Comment: "LL (Itrans: L^I)" 
Colour: ffffff
EndChar
StartChar: uni0962
Encoding: 2402 2402 87
Width: 0
Flags: W
HStem: -396 56<-190 -135>
Fore
-459 -298 m 1
 -473 -294 -489 -282 -506 -262 c 0
 -528 -235 -539 -207 -540 -178 c 0
 -540 -169 -539 -160 -537 -152 c 0
 -530 -134 -520 -119 -507 -108 c 0
 -490 -95 -470 -88 -447 -88 c 0
 -430 -88 -414 -92 -399 -100 c 0
 -388 -106 -379 -113 -370 -120 c 0
 -363 -125 -359 -128 -358 -128 c 0
 -356 -128 -348 -123 -334 -113 c 0
 -331 -110 -330 -109 -329 -109 c 0
 -310 -100 -291 -95 -270 -95 c 0
 -264 -95 l 0
 -245 -96 -227 -104 -208 -119 c 0
 -174 -146 -153 -176 -145 -211 c 0
 -141 -238 l 0
 -141 -239 -142 -245 -144 -257 c 0
 -147 -269 -156 -285 -171 -304 c 0
 -182 -317 -188 -329 -190 -340 c 0
 -173 -340 -158 -336 -145 -328 c 0
 -124 -314 l 0
 -123 -314 -122 -314 -120 -313 c 0
 -115 -314 -104 -322 -88 -337 c 0
 -75 -350 -69 -359 -69 -364 c 0
 -70 -369 l 0
 -76 -379 -90 -387 -111 -393 c 0
 -135 -396 l 0
 -168 -396 -196 -381 -221 -351 c 0
 -234 -338 -242 -322 -245 -304 c 0
 -246 -285 l 0
 -244 -274 -235 -259 -219 -238 c 0
 -206 -219 -199 -203 -199 -189 c 0
 -199 -185 -199 -182 -200 -179 c 0
 -201 -168 -203 -161 -206 -158 c 0
 -209 -154 -213 -152 -219 -152 c 0
 -221 -152 -221 -152 -223 -152 c 0
 -229 -152 -233 -152 -236 -153 c 0
 -257 -156 -276 -165 -295 -180 c 0
 -304 -187 -309 -193 -312 -199 c 0
 -311 -217 l 0
 -310 -237 l 0
 -310 -244 -312 -248 -316 -248 c 0
 -324 -246 l 0
 -325 -245 -328 -243 -333 -239 c 0
 -355 -224 -367 -210 -368 -196 c 0
 -366 -161 l 0
 -367 -157 -369 -153 -372 -150 c 0
 -376 -146 -383 -144 -393 -144 c 0
 -403 -144 -411 -145 -417 -147 c 0
 -445 -155 -465 -172 -477 -198 c 0
 -482 -210 -485 -221 -485 -230 c 0
 -485 -233 -485 -236 -484 -238 c 0
 -483 -251 -480 -260 -475 -265 c 0
 -461 -285 l 0
 -459 -296 l 0
 -459 -298 l 1
EndSplineSet
AnchorPoint: "Virama" -358 -20 mark 0
Substitution: 0 65534 'U101' lisign3
Substitution: 0 65534 'U100' lisign2
Comment: "Vocalic L (Itrans: L^i)" 
Colour: ffffff
EndChar
StartChar: uni0963
Encoding: 2403 2403 88
Width: 0
Flags: W
HStem: -497 74<-99 -95> -396 82<-127 -121> -248 153<-316 -270>
Fore
-459 -298 m 1
 -473 -294 -489 -282 -506 -262 c 0
 -528 -235 -539 -207 -540 -178 c 0
 -540 -169 -539 -160 -537 -152 c 0
 -530 -134 -520 -119 -507 -108 c 0
 -490 -95 -470 -88 -447 -88 c 0
 -430 -88 -414 -92 -399 -100 c 0
 -388 -106 -379 -113 -370 -120 c 0
 -363 -125 -359 -128 -358 -128 c 0
 -356 -128 -348 -123 -334 -113 c 0
 -331 -110 -330 -109 -329 -109 c 0
 -310 -100 -291 -95 -270 -95 c 0
 -264 -95 l 0
 -245 -96 -227 -104 -208 -119 c 0
 -174 -146 -153 -176 -145 -211 c 0
 -141 -238 l 0
 -141 -239 -142 -245 -144 -257 c 0
 -147 -269 -156 -285 -171 -304 c 0
 -182 -317 -188 -329 -190 -340 c 0
 -173 -340 -157 -336 -144 -327 c 0
 -124 -314 l 0
 -114 -314 l 0
 -100 -321 -87 -332 -75 -349 c 0
 -71 -354 -69 -361 -69 -368 c 0
 -72 -379 -87 -387 -113 -393 c 0
 -119 -395 -124 -396 -127 -396 c 0
 -151 -396 l 0
 -152 -397 l 0
 -163 -400 -168 -410 -169 -427 c 0
 -166 -435 l 0
 -164 -439 -159 -441 -152 -441 c 0
 -140 -441 -127 -437 -112 -429 c 0
 -97 -423 l 0
 -92 -423 -84 -428 -71 -438 c 0
 -54 -453 -46 -464 -45 -472 c 0
 -48 -480 l 0
 -51 -482 l 0
 -67 -492 -83 -497 -99 -497 c 0
 -136 -497 -170 -477 -200 -438 c 0
 -201 -437 -202 -436 -203 -434 c 0
 -219 -413 -227 -394 -227 -377 c 0
 -226 -364 l 0
 -225 -362 -225 -362 -224 -360 c 0
 -223 -358 -221 -355 -218 -352 c 0
 -218 -350 l 0
 -237 -335 -246 -316 -246 -293 c 0
 -246 -286 -245 -279 -243 -274 c 0
 -239 -265 -230 -251 -215 -231 c 0
 -204 -218 -199 -204 -199 -187 c 0
 -199 -182 -199 -179 -200 -177 c 0
 -202 -167 -204 -160 -207 -155 c 0
 -209 -152 -213 -150 -220 -150 c 0
 -235 -152 l 0
 -257 -156 -277 -165 -295 -180 c 0
 -304 -187 -309 -193 -312 -199 c 0
 -311 -217 l 0
 -310 -237 l 0
 -310 -244 -312 -248 -316 -248 c 0
 -324 -246 l 0
 -325 -245 -328 -243 -333 -239 c 0
 -355 -224 -367 -210 -368 -196 c 0
 -366 -161 l 0
 -367 -157 -369 -153 -372 -150 c 0
 -376 -146 -383 -144 -393 -144 c 0
 -403 -144 -411 -145 -417 -147 c 0
 -445 -155 -465 -172 -477 -198 c 0
 -482 -210 -485 -221 -485 -230 c 0
 -485 -233 -485 -236 -484 -238 c 0
 -483 -251 -480 -260 -475 -265 c 0
 -461 -285 l 0
 -459 -296 l 0
 -459 -298 l 1
EndSplineSet
AnchorPoint: "Virama" -358 -20 mark 0
Substitution: 0 65534 'U101' llisign3
Substitution: 0 65534 'U100' llisign2
Comment: "LL (Itrans: L^I)" 
Colour: ffffff
EndChar
StartChar: uni0964
Encoding: 2404 2404 89
Width: 384
Flags: W
VStem: 352 77<36 479>
Fore
429 -38 m 1
 412 -37 391 -20 364 14 c 0
 356 24 352 32 352 38 c 0
 350 108 l 0
 351 136 352 158 352 175 c 0
 352 556 l 0
 352 589 l 0
 352 591 352 592 353 593 c 0
 359 594 l 0
 365 591 374 584 387 573 c 0
 410 552 423 536 428 523 c 0
 430 500 l 0
 429 479 l 0
 429 -38 l 1
EndSplineSet
Comment: "Danda (Purna Viram) (Itrans: danda)" 
Colour: ffffff
EndChar
StartChar: uni0965
Encoding: 2405 2405 90
Width: 462
Flags: W
VStem: 238 78<36 479> 428 78<37 479>
Fore
506 -38 m 1
 491 -37 470 -20 441 14 c 0
 434 24 430 32 429 38 c 0
 428 108 l 0
 429 175 l 0
 429 175 l 0
 429 556 l 0
 428 589 l 0
 428 590 429 592 430 593 c 0
 437 594 l 0
 464 573 l 0
 487 553 501 536 505 523 c 0
 507 500 l 0
 506 479 l 0
 506 -38 l 1
316 -38 m 1
 299 -37 278 -19 252 14 c 0
 243 25 238 33 238 38 c 0
 238 127 l 0
 238 175 l 0
 238 556 l 0
 238 587 l 0
 238 590 239 592 240 593 c 0
 246 594 l 0
 250 592 259 585 274 573 c 0
 298 552 312 536 315 523 c 0
 317 500 l 0
 316 479 l 0
 316 -38 l 1
EndSplineSet
Comment: "Double Danda (Deergha Viram) (Itrans: .. or ;)" 
Colour: ffffff
EndChar
StartChar: uni0966
Encoding: 2406 2406 91
Width: 440
Flags: W
VStem: 0 78<240 314> 278 77<240 314>
Fore
201 378 m 0
 152 371 117 348 94 308 c 0
 85 287 l 0
 80 272 78 258 78 246 c 0
 78 243 78 243 78 240 c 0
 78 229 79 220 80 214 c 0
 83 204 86 196 89 189 c 0
 99 181 116 177 139 177 c 0
 152 178 l 0
 153 178 l 0
 200 184 237 207 262 247 c 0
 265 253 268 260 271 269 c 0
 276 286 278 301 278 314 c 0
 278 323 277 333 275 342 c 0
 270 357 267 365 266 366 c 0
 258 375 242 379 219 379 c 0
 211 379 205 379 201 378 c 0
128 455 m 0
 157 455 l 0
 193 451 228 433 263 401 c 0
 324 348 355 294 355 240 c 0
 355 221 352 204 345 188 c 0
 328 145 296 118 250 105 c 0
 228 101 l 0
 197 101 l 0
 166 104 131 121 92 154 c 0
 31 209 0 263 0 314 c 0
 0 331 4 348 11 367 c 0
 27 410 58 438 105 451 c 0
 110 452 117 454 128 455 c 0
EndSplineSet
Comment: "0 (Itrans: 0)" 
Colour: ffffff
EndChar
StartChar: uni0967
Encoding: 2407 2407 92
Width: 405
Flags: W
DStem: 50 83 129 28 185 -63 229 -81
Fore
172 518 m 0
 132 512 104 486 88 441 c 0
 87 438 85 431 82 422 c 0
 78 405 76 391 76 381 c 0
 76 368 78 359 83 354 c 0
 88 347 100 343 121 343 c 0
 136 344 l 0
 137 344 l 0
 164 347 182 354 190 365 c 0
 200 377 205 397 205 424 c 0
 205 435 205 444 204 451 c 0
 200 478 197 495 196 500 c 0
 194 511 192 516 190 517 c 0
 179 519 l 0
 172 518 l 0
137 282 m 1
 127 285 110 296 86 316 c 0
 33 360 4 402 0 443 c 0
 1 477 l 0
 6 524 24 557 55 578 c 0
 70 590 87 596 105 596 c 0
 131 593 l 0
 153 587 177 572 202 547 c 0
 256 493 283 431 283 361 c 0
 283 354 283 349 282 345 c 0
 277 281 231 210 146 133 c 0
 100 90 l 0
 92 85 86 81 83 80 c 0
 85 77 97 62 120 37 c 0
 129 28 l 0
 229 -81 l 0
 268 -123 l 0
 276 -134 280 -142 280 -146 c 0
 277 -154 l 0
 277 -157 269 -165 254 -178 c 0
 232 -201 l 0
 230 -203 227 -205 223 -206 c 0
 212 -203 l 0
 201 -195 l 0
 188 -186 174 -172 160 -154 c 0
 152 -145 148 -139 148 -136 c 0
 150 -128 l 0
 150 -127 152 -125 157 -121 c 0
 186 -92 l 0
 193 -87 196 -82 196 -77 c 0
 195 -75 192 -70 185 -63 c 0
 50 83 l 0
 28 106 15 120 12 125 c 0
 5 133 1 140 1 146 c 0
 5 155 l 0
 7 157 18 166 38 182 c 0
 81 220 103 240 105 242 c 0
 116 253 126 266 137 282 c 1
EndSplineSet
Comment: "1 (Itrans: 1)" 
Colour: ffffff
EndChar
StartChar: uni0968
Encoding: 2408 2408 93
Width: 551
Flags: W
HStem: 156 87<154.487 157> 478 77<132 205>
Fore
429 -147 m 1
 418 -146 l 0
 415 -146 410 -143 402 -137 c 0
 379 -118 364 -101 355 -87 c 0
 258 84 l 0
 250 97 l 0
 249 98 l 0
 216 147 l 0
 214 150 211 153 207 157 c 0
 206 159 202 160 197 160 c 0
 175 157 l 0
 135 156 l 0
 124 157 113 160 104 167 c 0
 80 183 60 204 43 229 c 0
 36 241 33 250 33 256 c 0
 33 257 34 261 36 269 c 0
 41 282 51 289 66 289 c 0
 76 289 86 286 97 281 c 0
 108 277 120 270 133 261 c 0
 152 245 l 0
 155 244 156 243 157 243 c 0
 179 246 l 0
 212 259 l 0
 275 280 317 316 338 365 c 0
 346 383 350 400 351 415 c 0
 352 440 l 0
 350 449 343 455 331 458 c 0
 298 471 256 478 205 478 c 0
 186 478 166 477 147 475 c 0
 98 467 l 0
 76 463 l 0
 72 463 l 0
 57 465 37 482 12 514 c 0
 0 531 l 0
 1 537 l 0
 2 538 l 0
 5 541 16 543 35 546 c 0
 67 552 99 555 132 555 c 0
 198 555 251 545 290 524 c 0
 342 500 381 465 406 420 c 0
 421 394 428 369 428 345 c 0
 428 329 424 312 417 293 c 0
 405 260 380 232 341 207 c 0
 310 188 273 174 230 165 c 0
 271 120 319 51 372 -42 c 0
 424 -133 l 0
 429 -147 l 1
EndSplineSet
Comment: "2 (Itrans: 2)" 
Colour: ffffff
EndChar
StartChar: uni0969
Encoding: 2409 2409 94
Width: 493
Flags: W
HStem: 296 76<73 202> 489 78<0 94>
Fore
0 567 m 1
 83 567 135 565 154 562 c 0
 209 555 254 536 289 504 c 0
 318 479 338 454 347 430 c 0
 351 420 353 409 353 396 c 0
 353 361 339 334 311 314 c 0
 302 309 297 306 294 305 c 0
 337 264 362 221 370 176 c 0
 371 146 l 0
 369 123 357 102 334 85 c 0
 311 67 276 55 229 50 c 0
 230 49 256 14 309 -55 c 0
 329 -81 l 0
 362 -130 l 0
 364 -135 367 -140 370 -147 c 0
 358 -146 l 0
 343 -137 l 0
 340 -134 333 -127 323 -116 c 0
 306 -99 280 -65 246 -13 c 0
 233 7 225 18 223 21 c 0
 204 44 l 0
 201 46 l 0
 186 47 l 0
 168 45 l 0
 135 45 l 0
 122 47 112 51 105 56 c 0
 70 79 48 105 37 133 c 0
 35 148 l 0
 35 164 44 174 62 178 c 0
 81 176 l 0
 92 173 108 163 130 146 c 0
 152 129 l 0
 154 128 l 0
 174 129 l 0
 199 136 l 0
 248 148 278 172 289 209 c 0
 292 234 l 0
 292 238 291 245 290 256 c 0
 287 271 284 280 280 284 c 0
 271 293 256 297 234 297 c 0
 203 296 l 0
 202 296 l 0
 132 296 l 0
 102 295 l 0
 98 297 l 0
 87 300 74 311 57 330 c 0
 53 334 l 0
 38 349 29 362 27 372 c 0
 51 374 l 0
 73 373 l 0
 164 372 l 0
 219 375 254 397 269 436 c 0
 273 447 275 460 275 477 c 0
 234 483 l 0
 233 483 l 0
 204 487 175 489 146 489 c 0
 94 489 l 0
 79 489 70 490 66 492 c 0
 50 501 33 516 15 538 c 0
 5 551 0 561 0 567 c 1
EndSplineSet
Comment: "3 (Itrans: 3)" 
Colour: ffffff
EndChar
StartChar: uni096A
Encoding: 2410 2410 95
Width: 680
Flags: W
HStem: 72 78<212 303>
VStem: 131 76<166 242> 309 78<167 236>
DStem: 404 535 498 472 281 440 367 371
Fore
289 311 m 1
 281 307 272 299 262 287 c 0
 235 262 218 231 211 196 c 0
 208 185 207 175 207 166 c 0
 209 152 l 0
 210 151 211 150 212 150 c 0
 227 148 l 0
 236 148 245 150 256 154 c 0
 291 166 309 193 309 236 c 0
 309 255 306 272 301 285 c 0
 298 292 294 300 289 311 c 1
1 595 m 0
 1 596 l 0
 16 591 40 572 71 539 c 0
 85 524 l 0
 86 523 l 0
 115 494 162 452 227 397 c 0
 232 403 250 417 281 440 c 0
 404 535 l 0
 456 575 l 0
 469 586 477 593 480 594 c 0
 489 594 l 0
 493 592 498 588 503 583 c 0
 517 573 531 560 544 543 c 0
 552 533 556 526 556 522 c 0
 556 520 552 515 543 507 c 0
 498 472 l 0
 367 371 l 0
 311 327 l 0
 310 326 308 325 307 324 c 0
 320 311 330 299 338 287 c 0
 371 246 387 206 387 167 c 0
 387 156 386 149 385 144 c 0
 383 131 379 120 372 111 c 0
 356 85 333 72 303 72 c 0
 269 72 237 85 207 110 c 0
 199 117 l 0
 154 157 131 199 131 242 c 0
 131 257 134 273 140 290 c 0
 149 318 165 343 188 365 c 0
 203 381 l 0
 203 387 l 0
 203 388 l 0
 200 392 187 404 162 424 c 0
 153 432 l 0
 98 482 98 482 45 534 c 0
 29 549 17 562 9 574 c 0
 4 581 1 588 1 595 c 0
EndSplineSet
Comment: "4 (Itrans: 4)" 
Colour: ffffff
EndChar
StartChar: uni096B
Encoding: 2411 2411 96
Width: 609
Flags: W
HStem: 0 154<90 145>
VStem: 0 77<496 567>
DStem: 0 591 6 594 0 567 14 590
Fore
212 258 m 1
 174 255 l 0
 165 256 l 0
 138 261 112 277 87 304 c 0
 68 321 51 342 36 366 c 0
 19 397 9 439 4 492 c 0
 1 521 0 546 0 567 c 0
 0 591 l 0
 1 593 l 0
 6 594 l 0
 14 590 l 0
 19 587 28 580 42 567 c 0
 60 548 71 535 74 529 c 0
 76 526 l 0
 76 525 l 0
 77 498 l 0
 77 496 l 0
 77 464 80 426 86 381 c 0
 98 332 l 0
 140 332 181 343 221 365 c 0
 241 376 253 385 258 392 c 0
 263 397 269 417 274 451 c 0
 280 478 286 514 293 561 c 0
 297 590 l 0
 298 593 299 594 300 594 c 0
 309 592 l 0
 315 589 323 583 332 573 c 0
 357 552 371 535 374 522 c 0
 373 498 l 0
 370 481 l 0
 355 376 331 283 297 201 c 0
 254 115 l 0
 263 113 279 103 303 86 c 0
 306 85 307 84 308 83 c 0
 350 53 393 16 437 -28 c 0
 468 -60 484 -81 484 -90 c 0
 484 -93 483 -94 482 -94 c 0
 473 -91 l 0
 461 -81 l 0
 456 -77 441 -62 417 -37 c 0
 416 -35 414 -33 412 -32 c 0
 355 25 297 59 238 72 c 0
 227 72 l 0
 220 69 209 61 195 47 c 0
 186 38 l 0
 155 13 123 0 90 0 c 0
 79 0 l 0
 71 2 62 7 53 15 c 0
 14 45 -6 69 -6 88 c 0
 -6 101 2 112 19 123 c 0
 46 143 75 154 108 156 c 0
 145 154 l 0
 146 154 147 154 148 155 c 0
 153 158 160 166 169 181 c 0
 186 204 200 229 212 258 c 1
EndSplineSet
Comment: "5 (Itrans: 5)" 
Colour: ffffff
EndChar
StartChar: uni096C
Encoding: 2412 2412 97
Width: 551
Flags: W
HStem: 285 88<268 276>
VStem: 0 76<406 479>
Fore
104 328 m 1
 84 340 62 361 38 390 c 0
 13 419 0 449 0 479 c 0
 0 492 2 504 5 514 c 0
 22 571 83 600 187 600 c 0
 214 600 l 0
 239 598 254 596 261 594 c 0
 275 588 291 574 310 552 c 0
 323 536 330 525 331 519 c 0
 236 523 l 0
 228 522 223 521 220 521 c 0
 149 514 104 490 85 447 c 0
 79 432 76 419 76 406 c 0
 76 393 79 384 86 379 c 0
 95 374 107 371 122 368 c 0
 141 363 161 361 184 361 c 0
 185 361 197 362 221 364 c 0
 270 373 l 0
 272 373 275 372 279 371 c 0
 293 367 313 350 338 320 c 0
 346 309 350 302 350 299 c 0
 350 296 343 293 330 291 c 0
 303 287 283 285 268 285 c 0
 243 285 229 285 228 284 c 0
 201 277 178 256 160 221 c 0
 159 218 156 210 151 196 c 0
 148 181 146 167 146 154 c 0
 146 135 150 121 159 113 c 0
 168 104 184 100 207 100 c 0
 209 100 218 101 234 103 c 0
 257 104 271 110 275 121 c 0
 274 134 l 0
 273 135 273 137 273 139 c 0
 272 170 l 0
 273 183 279 191 292 193 c 0
 306 192 l 0
 313 190 319 186 325 181 c 0
 359 156 380 133 388 112 c 0
 390 96 l 0
 389 85 384 73 374 60 c 0
 359 45 l 0
 357 39 l 0
 372 -10 l 0
 428 -144 l 0
 428 -145 428 -146 429 -147 c 0
 416 -146 l 0
 409 -145 399 -136 384 -119 c 0
 366 -103 347 -72 328 -25 c 0
 312 16 l 0
 311 19 310 21 309 21 c 0
 307 23 303 24 297 24 c 0
 275 23 l 0
 242 25 205 42 164 74 c 0
 102 128 70 182 69 235 c 0
 69 250 72 265 77 281 c 0
 84 301 93 317 104 328 c 1
EndSplineSet
Comment: "6 (Itrans: 6)" 
Colour: ffffff
EndChar
StartChar: uni096D
Encoding: 2413 2413 98
Width: 680
Flags: W
HStem: 0 77<275 350> 185 77<360 446>
VStem: 232 77<335 409> 479 80<244 345>
Fore
456 440 m 1
 412 443 l 0
 388 443 368 437 353 426 c 0
 325 407 310 376 309 335 c 0
 309 333 310 324 312 308 c 0
 315 289 320 277 326 271 c 0
 333 265 345 262 360 262 c 0
 391 262 421 272 450 292 c 0
 467 303 477 311 479 316 c 0
 480 330 l 0
 479 345 l 0
 479 358 472 387 459 430 c 0
 458 435 457 439 456 440 c 1
1 595 m 0
 1 596 l 0
 18 590 38 574 61 547 c 0
 71 534 76 525 77 520 c 0
 86 434 l 0
 107 291 141 185 189 114 c 0
 208 89 236 77 275 77 c 0
 329 77 376 99 417 143 c 0
 428 154 437 168 446 185 c 0
 403 185 359 205 316 246 c 0
 314 249 311 252 308 255 c 0
 273 289 250 324 239 359 c 0
 234 376 232 392 232 409 c 0
 232 444 243 472 265 492 c 0
 286 512 313 522 348 522 c 0
 376 520 l 0
 381 519 386 518 391 516 c 0
 401 512 l 0
 402 511 l 0
 431 497 459 474 486 442 c 0
 535 387 559 321 559 244 c 0
 559 188 544 137 513 91 c 0
 481 45 439 16 387 4 c 0
 376 1 363 0 350 0 c 0
 333 0 317 2 303 7 c 0
 272 16 238 37 203 68 c 0
 117 144 57 263 22 426 c 0
 21 435 19 443 18 450 c 0
 9 497 4 532 3 554 c 0
 0 585 l 0
 0 590 0 593 1 595 c 0
EndSplineSet
Comment: "7 (Itrans: 7)" 
Colour: ffffff
EndChar
StartChar: uni096E
Encoding: 2414 2414 99
Width: 589
Flags: W
HStem: 99 79<311 387> 407 77<-38 391>
Fore
-38 484 m 1
 345 484 l 0
 392 484 l 0
 395 484 403 479 416 470 c 0
 447 445 464 424 467 408 c 0
 456 405 447 404 439 404 c 0
 391 407 l 0
 171 407 l 0
 157 407 149 406 146 405 c 0
 144 403 141 397 136 388 c 0
 97 304 77 221 77 140 c 0
 122 137 l 0
 133 138 141 140 147 141 c 0
 268 174 l 0
 288 177 302 178 311 178 c 0
 334 178 356 172 377 161 c 0
 411 142 436 119 453 90 c 0
 460 79 465 67 466 56 c 0
 465 33 l 0
 463 22 458 10 450 -3 c 0
 437 -24 428 -35 422 -37 c 0
 412 -36 l 0
 398 -26 l 0
 380 -11 366 4 356 17 c 0
 350 25 347 31 347 35 c 0
 350 42 355 49 360 56 c 0
 367 63 376 78 387 99 c 0
 356 99 323 94 290 85 c 0
 215 62 l 0
 178 59 l 0
 169 60 l 0
 168 60 l 0
 119 62 74 87 33 136 c 0
 15 156 4 175 1 192 c 0
 0 223 l 0
 3 256 l 0
 8 305 18 356 35 407 c 0
 21 412 2 428 -23 456 c 0
 -32 465 -37 475 -38 484 c 1
EndSplineSet
Comment: "8 (Itrans: 8)" 
Colour: ffffff
EndChar
StartChar: uni096F
Encoding: 2415 2415 99
Width: 589
Flags: W
VStem: 0 78<410 482> 236 77<420 496>
Fore
192 518 m 0
 140 511 105 489 88 453 c 0
 87 450 85 446 82 439 c 0
 79 431 78 421 78 410 c 0
 78 395 81 381 87 367 c 0
 94 355 98 348 100 347 c 0
 103 344 108 343 115 343 c 0
 125 344 l 0
 126 344 l 0
 164 348 194 371 215 412 c 0
 229 439 236 467 236 496 c 0
 236 507 235 513 232 516 c 0
 228 519 222 520 215 520 c 0
 192 518 l 0
141 279 m 1
 160 252 210 194 289 104 c 0
 294 98 l 0
 295 97 l 0
 319 69 361 25 421 -34 c 0
 457 -70 l 0
 466 -81 471 -93 473 -104 c 0
 472 -118 l 0
 469 -129 461 -137 447 -143 c 0
 435 -148 423 -151 411 -151 c 0
 401 -150 l 0
 400 -150 l 0
 391 -147 382 -142 373 -134 c 0
 349 -114 334 -97 327 -83 c 0
 326 -74 l 0
 327 -73 l 0
 346 -73 l 0
 365 -70 379 -63 390 -52 c 0
 393 -49 395 -45 395 -42 c 0
 394 -37 l 0
 391 -31 380 -20 361 -4 c 0
 361 -3 360 -2 358 0 c 0
 341 16 317 41 285 76 c 0
 205 163 145 232 105 283 c 0
 65 338 38 378 24 405 c 0
 8 439 0 465 0 482 c 0
 0 489 l 0
 3 531 25 561 66 580 c 0
 89 591 112 596 133 596 c 0
 140 596 144 596 147 595 c 0
 183 592 219 573 255 537 c 0
 294 499 313 460 313 420 c 0
 313 414 l 0
 312 371 297 334 268 303 c 0
 248 280 225 268 199 266 c 0
 175 268 l 0
 141 279 l 1
EndSplineSet
Comment: "9 (Itrans: 9)" 
Colour: ffffff
EndChar
StartChar: uni0970
Encoding: 2416 2416 100
Width: 606
Flags: W
Fore
320 489 m 0
 276 482 246 459 230 419 c 0
 229 418 229 417 229 415 c 0
 225 402 223 389 223 376 c 0
 223 357 227 344 235 336 c 0
 244 328 258 324 279 324 c 0
 290 324 l 0
 333 330 363 352 379 390 c 0
 380 393 382 396 383 400 c 0
 387 412 389 425 389 438 c 0
 389 457 385 470 376 478 c 0
 368 486 354 490 334 490 c 0
 327 490 323 490 320 489 c 0
268 546 m 0
 297 547 l 0
 338 541 375 518 408 477 c 0
 427 452 439 428 442 405 c 0
 445 377 l 0
 443 338 426 308 393 285 c 0
 367 273 l 0
 358 270 350 269 345 268 c 0
 316 268 l 0
 273 273 236 296 204 338 c 0
 186 360 174 383 169 408 c 0
 166 438 l 0
 168 477 186 508 221 529 c 0
 234 538 250 543 268 546 c 0
EndSplineSet
Comment: "Abbreviation sign (Itrans: )" 
Colour: ffffff
EndChar
StartChar: afii61664
Encoding: 8204 8204 101
Width: 0
VWidth: 1024
Flags: W
HStem: 0 21G<-37 33>
VStem: -37 70<0 680>
Fore
-37 0 m 1
 -37 680 l 0
 33 680 l 0
 33 0 l 0
 -37 0 l 1
EndSplineSet
EndChar
StartChar: afii301
Encoding: 8205 8205 102
Width: 0
VWidth: 1024
Flags: W
HStem: 0 21G<-37 33>
VStem: -37 70<0 629>
DStem: -112 741 -83 778 -38 685 -2 715 -38 685 -37 624 -125 612 -94 576 33 629 36 686 97 580 126 617 77 782 107 746 -2 715 36 686
Fore
33 629 m 1
 33 0 l 0
 -37 0 l 0
 -37 624 l 0
 -94 576 l 0
 -125 612 l 0
 -38 685 l 0
 -112 741 l 0
 -83 778 l 0
 -2 715 l 0
 77 782 l 0
 107 746 l 0
 36 686 l 0
 126 617 l 0
 97 580 l 0
 33 629 l 1
EndSplineSet
EndChar
StartChar: uni25CC
Encoding: 9676 9676 103
Width: 836
VWidth: 1024
Flags: W
DStem: 409 610 415 610 361 606 462 605
Fore
415 610 m 1
 462 605 l 0
 456 539 l 0
 412 543 l 0
 367 539 l 0
 361 606 l 0
 409 610 l 0
 412 610 l 0
 415 610 l 1
610 525 m 1
 640 488 l 0
 589 446 l 0
 561 481 l 0
 526 509 l 0
 568 560 l 0
 604 531 l 0
 608 528 l 0
 610 525 l 1
688 329 m 1
 684 281 l 0
 617 288 l 0
 622 332 l 0
 617 376 l 0
 684 382 l 0
 688 335 l 0
 688 331 l 0
 688 329 l 1
604 133 m 1
 567 103 l 0
 525 155 l 0
 560 183 l 0
 588 218 l 0
 640 175 l 0
 609 138 l 0
 608 135 l 0
 604 133 l 1
408 54 m 1
 360 59 l 0
 366 125 l 0
 411 121 l 0
 455 125 l 0
 462 59 l 0
 415 54 l 0
 411 54 l 0
 408 54 l 1
212 139 m 1
 182 176 l 0
 234 218 l 0
 262 183 l 0
 296 155 l 0
 253 104 l 0
 216 133 l 0
 214 136 l 0
 212 139 l 1
134 335 m 1
 138 383 l 0
 205 377 l 0
 201 332 l 0
 205 288 l 0
 138 282 l 0
 133 330 l 0
 133 333 l 0
 134 335 l 1
217 531 m 1
 254 561 l 0
 297 509 l 0
 263 481 l 0
 235 446 l 0
 182 489 l 0
 213 526 l 0
 215 529 l 0
 217 531 l 1
EndSplineSet
EndChar
StartChar: uniE900
Encoding: 59648 59648 101
Width: 750
Flags: W
HStem: -10 76<151 227> 518 78<383 428 428.012 467.988 383 715>
VStem: 0 78<140 212> 244 77<404 479> 465 80<46 519> 468 77<113 519>
Fore
202 518 m 0
 165 512 137 492 120 459 c 0
 114 446 110 435 109 425 c 0
 109 393 l 0
 113 365 124 351 142 350 c 0
 143 350 144 350 146 351 c 0
 153 352 164 357 177 366 c 0
 222 395 244 432 244 479 c 0
 244 488 244 494 243 498 c 0
 241 507 239 512 237 514 c 0
 234 518 228 520 219 520 c 0
 202 518 l 0
303 342 m 1
 304 341 l 0
 303 342 l 1
112 334 m 1
 57 400 l 0
 50 410 45 420 41 429 c 0
 34 444 31 460 31 477 c 0
 31 490 34 505 39 521 c 0
 53 558 78 582 113 592 c 0
 122 595 132 596 143 596 c 0
 150 596 l 0
 177 594 206 579 238 551 c 0
 293 504 321 455 321 404 c 0
 321 382 315 361 304 342 c 0
 346 344 387 360 426 391 c 0
 430 394 433 395 434 396 c 0
 453 409 464 420 467 429 c 0
 468 455 l 0
 468 457 l 0
 468 519 l 0
 428 518 l 0
 425 518 423 518 422 519 c 0
 411 521 397 532 378 553 c 0
 377 555 375 557 373 559 c 0
 361 572 355 580 354 583 c 0
 352 592 l 0
 353 594 l 0
 354 596 358 597 365 597 c 0
 383 596 l 0
 642 596 l 0
 706 598 l 0
 707 598 713 597 723 595 c 0
 731 591 738 586 744 580 c 0
 774 556 791 536 795 520 c 0
 784 517 775 516 766 516 c 0
 715 519 l 0
 545 519 l 0
 545 -38 l 0
 536 -37 528 -32 520 -25 c 0
 492 -4 475 15 469 32 c 0
 466 43 465 53 465 62 c 0
 468 114 l 0
 468 293 l 0
 405 269 354 257 314 257 c 0
 294 257 274 259 255 263 c 0
 219 271 l 0
 189 259 l 0
 159 245 133 230 112 215 c 0
 89 194 78 169 78 140 c 0
 78 129 79 120 80 114 c 0
 84 93 90 81 97 78 c 0
 113 70 131 66 151 66 c 0
 174 66 195 71 214 80 c 0
 219 83 230 90 247 103 c 0
 251 105 l 0
 252 105 l 0
 252 107 l 0
 237 118 229 133 227 153 c 0
 229 170 l 0
 234 186 247 195 266 197 c 0
 272 196 l 0
 283 195 296 189 313 176 c 0
 343 151 363 128 374 107 c 0
 377 99 379 92 379 86 c 0
 379 66 369 53 350 47 c 0
 345 45 l 0
 358 9 369 -18 377 -36 c 0
 380 -42 l 0
 391 -70 l 0
 391 -77 l 0
 360 -66 334 -41 313 0 c 0
 312 5 311 9 308 14 c 0
 281 -2 254 -10 227 -10 c 0
 169 -10 114 19 62 76 c 0
 59 80 49 93 33 114 c 0
 11 146 0 179 0 212 c 0
 0 237 7 259 22 278 c 0
 31 288 45 299 62 310 c 0
 90 325 107 333 112 334 c 1
EndSplineSet
AnchorPoint: "Ra_Vattu2" 506.001 -8 basechar 0
AnchorPoint: "Virama" 509 -50 basechar 0
AnchorPoint: "Anchor-0" 506.001 596 basechar 0
Ligature: 0 0 'akhn' uni0915 uni094D uni0937
LCarets: 0 65535 '    ' 2 0 0 
Comment: "Itrans: kSha or xa+AAoA-Liga" 
Colour: ffffff
EndChar
StartChar: uniE901
Encoding: 59649 59649 102
Width: 673
Flags: W
HStem: 350 78<0 391> 519 77<-38 391 -38 638>
VStem: 391 77<34 519>
Fore
-38 596 m 1
 609 596 l 0
 632 596 644 595 646 594 c 0
 657 591 672 579 691 558 c 0
 706 543 715 531 718 520 c 0
 707 517 697 516 688 516 c 0
 638 519 l 0
 468 519 l 0
 468 -38 l 0
 454 -37 434 -22 408 7 c 0
 407 8 406 9 405 11 c 0
 398 19 393 27 392 34 c 0
 391 35 391 46 391 67 c 0
 391 350 l 0
 170 350 l 0
 170 349 l 0
 178 346 194 333 219 312 c 0
 240 293 258 275 272 256 c 0
 303 219 318 184 318 150 c 0
 318 143 316 134 313 124 c 0
 310 114 304 105 293 96 c 0
 278 83 255 74 226 69 c 0
 257 28 273 -8 274 -38 c 0
 267 -37 255 -30 240 -19 c 0
 212 6 195 34 188 65 c 0
 164 63 l 0
 117 61 l 0
 95 65 l 0
 74 74 51 92 28 121 c 0
 9 144 -1 162 -1 177 c 0
 -1 186 2 193 9 199 c 0
 14 204 20 207 29 207 c 0
 31 207 31 207 33 207 c 0
 40 207 45 207 48 206 c 0
 72 202 99 189 128 167 c 0
 148 150 l 0
 149 149 150 148 153 147 c 0
 174 150 l 0
 175 150 179 152 186 155 c 0
 221 168 239 192 240 225 c 0
 236 250 l 0
 231 269 218 284 195 297 c 0
 184 304 l 0
 104 337 l 0
 72 350 49 364 35 377 c 0
 16 397 5 410 3 415 c 0
 0 428 l 0
 391 428 l 0
 391 519 l 0
 152 519 l 0
 59 516 l 0
 57 516 49 517 35 519 c 0
 28 521 20 525 12 532 c 0
 -21 557 -37 579 -38 596 c 1
EndSplineSet
AnchorPoint: "Ra_Vattu2" 428 -14 basechar 0
AnchorPoint: "Virama" 428 -50 basechar 0
AnchorPoint: "Anchor-0" 428 596 basechar 0
Ligature: 0 0 'akhn' uni091C uni094D uni091E
LCarets: 0 65535 '    ' 2 0 0 
Comment: "Itrans: j+AH4A-na or GYa+AAoA-Liga" 
Colour: ffffff
EndChar
StartChar: uniE902
Encoding: 59650 59650 103
Width: 750
Flags: W
HStem: 332 77<0 118 0 467> 519 77<-38 41 -38 467 -38 715>
VStem: 109 80<218 286> 465 80<57 519> 468 77<129 519>
Fore
-38 596 m 1
 683 596 l 0
 721 596 l 0
 722 595 724 594 725 594 c 0
 736 589 751 577 769 558 c 0
 784 543 792 530 795 520 c 0
 784 517 775 516 766 516 c 0
 715 519 l 0
 545 519 l 0
 545 -38 l 0
 532 -37 512 -22 486 7 c 0
 482 11 l 0
 474 22 470 30 469 34 c 0
 466 46 465 57 465 68 c 0
 468 130 l 0
 468 332 l 0
 332 332 l 0
 293 332 270 331 264 328 c 0
 255 326 l 0
 211 311 189 275 189 218 c 0
 189 202 191 184 195 165 c 0
 202 138 213 116 226 97 c 0
 235 82 257 63 291 41 c 0
 317 24 333 13 339 6 c 0
 358 -15 368 -30 369 -38 c 0
 363 -37 352 -32 336 -23 c 0
 317 -12 296 3 271 21 c 0
 194 84 145 150 122 219 c 0
 113 241 109 263 109 286 c 0
 109 300 112 315 118 332 c 0
 76 332 l 0
 73 332 71 332 70 333 c 0
 68 334 61 339 49 348 c 0
 16 375 0 395 0 409 c 0
 468 409 l 0
 468 519 l 0
 182 519 l 0
 48 518 l 0
 40 519 l 0
 39 519 l 0
 32 519 23 523 14 531 c 0
 -20 558 -37 579 -38 596 c 1
EndSplineSet
AnchorPoint: "Anchor-0" 507 596 baselig 0
AnchorPoint: "Virama" 545 -38 baselig 0
Ligature: 0 0 'akhn' uni0924 uni094D uni0924
LCarets: 0 65535 '    ' 2 0 0 
Comment: "Itrans: tta+AAoA-Liga" 
Colour: ffffff
EndChar
StartChar: uniE903
Encoding: 59651 59651 104
Width: 634
Flags: W
HStem: 363 77<123 209> 519 77<-38 351 -38 598>
VStem: 352 77<83 519>
Fore
-38 596 m 1
 572 596 l 0
 593 596 605 595 607 594 c 0
 616 591 631 579 652 558 c 0
 667 543 676 530 678 520 c 0
 667 517 657 516 648 516 c 0
 598 519 l 0
 429 519 l 0
 429 -38 l 0
 418 -37 402 -26 383 -7 c 0
 364 12 354 24 353 31 c 0
 350 55 l 0
 352 84 l 0
 352 201 l 0
 334 194 292 173 227 139 c 0
 223 136 217 133 209 129 c 0
 166 104 l 0
 152 101 l 0
 147 101 140 105 129 114 c 0
 99 138 82 159 77 177 c 0
 348 313 l 0
 341 324 324 336 297 347 c 0
 268 358 239 363 209 363 c 0
 186 363 161 359 136 352 c 0
 119 346 105 340 94 334 c 0
 77 324 l 0
 72 323 l 0
 69 324 62 328 52 336 c 0
 39 345 25 359 8 380 c 0
 4 385 2 390 2 395 c 0
 2 401 11 408 28 416 c 0
 58 430 90 438 123 440 c 0
 165 439 l 0
 230 432 292 400 352 342 c 0
 352 519 l 0
 67 519 l 0
 34 519 l 0
 27 521 19 526 11 533 c 0
 -20 559 -36 580 -38 596 c 1
EndSplineSet
AnchorPoint: "Anchor-0" 391 596 baselig 0
AnchorPoint: "Virama" 429 -38 baselig 0
Ligature: 0 0 'vatu' uni0924 uniE97F
Ligature: 0 0 'akhn' uni0924 uni094D uni0930
LCarets: 0 65535 '    ' 2 0 0 
Comment: "Itrans: tra+AAoA-Liga" 
Colour: ffffff
EndChar
StartChar: uniE904
Encoding: 59652 59652 105
Width: 750
Flags: W
HStem: 146 77<148 150 150 217 150 381> 520 76<-38 242.269 -38 468 -38 715>
VStem: 260 32<504 519> 468 77<143 519>
DStem: 305 319 323 366 419 281 468 317
Fore
209 518 m 0
 180 513 161 494 152 461 c 0
 150 451 l 0
 150 450 l 0
 148 429 l 0
 152 418 l 0
 153 417 l 0
 157 412 165 410 178 410 c 0
 205 413 l 0
 230 417 248 435 258 468 c 0
 260 478 l 0
 260 479 l 0
 260 504 l 0
 260 505 259 508 257 512 c 0
 253 517 244 520 229 520 c 0
 209 518 l 0
292 519 m 1
 292 518 301 506 318 481 c 0
 321 477 l 0
 331 460 336 443 336 424 c 0
 336 407 332 388 323 366 c 0
 468 317 l 0
 468 519 l 0
 292 519 l 1
292 55 m 1
 338 56 l 0
 369 59 399 69 428 87 c 0
 451 104 464 115 467 122 c 0
 468 144 l 0
 468 146 l 0
 379 146 l 0
 356 146 342 145 339 144 c 0
 316 135 301 111 294 70 c 0
 292 55 l 1
-38 596 m 1
 683 596 l 0
 721 596 l 0
 722 595 724 594 725 594 c 0
 736 589 751 577 769 558 c 0
 784 543 792 530 795 520 c 0
 784 517 775 516 766 516 c 0
 715 519 l 0
 545 519 l 0
 545 -38 l 0
 536 -37 523 -29 506 -14 c 0
 497 -5 491 0 488 1 c 0
 475 -2 l 0
 457 -12 l 0
 440 -19 420 -23 397 -24 c 0
 363 -22 l 0
 322 -16 284 8 248 50 c 0
 226 76 215 101 215 125 c 0
 215 134 216 141 217 146 c 0
 161 145 l 0
 150 146 l 0
 149 146 l 0
 142 149 134 154 126 161 c 0
 97 187 80 207 77 221 c 0
 88 224 98 225 107 225 c 0
 149 223 l 0
 150 223 l 0
 366 223 l 0
 385 223 396 222 397 221 c 0
 411 216 429 202 450 177 c 0
 461 164 467 155 468 150 c 0
 468 232 l 0
 468 260 l 0
 468 261 468 262 467 263 c 0
 465 265 460 267 453 269 c 0
 420 281 l 0
 419 281 l 0
 305 319 l 0
 270 332 l 0
 261 332 l 0
 249 329 210 316 145 292 c 0
 126 285 l 0
 83 269 l 0
 72 268 l 0
 57 271 37 289 12 320 c 0
 5 329 1 337 1 344 c 0
 3 347 14 350 33 355 c 0
 36 356 37 357 38 357 c 0
 128 389 l 0
 137 392 l 0
 98 433 76 471 72 506 c 0
 72 519 l 0
 37 519 l 0
 36 519 35 519 32 520 c 0
 30 520 23 524 11 533 c 0
 -20 559 -36 580 -38 596 c 1
EndSplineSet
AnchorPoint: "Anchor-0" 507 596 baselig 0
AnchorPoint: "Virama" 545 -38 baselig 0
Ligature: 0 0 'akhn' uni0936 uni094D uni091A
LCarets: 0 65535 '    ' 2 0 0 
Comment: "Itrans: shcha+AAoA-Liga" 
Colour: ffffff
EndChar
StartChar: uniE905
Encoding: 59653 59653 106
Width: 750
Flags: W
HStem: 519 77<345 467 345 715>
VStem: 221 78<419 493> 467 78<41 519>
Fore
219 514 m 1
 180 518 l 0
 174 518 l 0
 145 516 124 499 111 467 c 0
 110 463 109 460 108 457 c 0
 104 426 l 0
 105 417 107 412 109 410 c 0
 113 406 120 404 131 404 c 0
 146 405 l 0
 180 405 203 422 215 457 c 0
 219 469 221 481 221 493 c 0
 221 498 220 505 219 514 c 1
105 376 m 1
 97 381 86 391 71 408 c 0
 52 431 40 450 35 467 c 0
 31 480 29 491 29 501 c 0
 29 503 29 503 29 506 c 0
 29 543 43 570 70 586 c 0
 73 587 75 588 77 589 c 0
 87 594 99 596 113 596 c 0
 145 596 177 583 210 558 c 0
 268 511 298 465 299 419 c 0
 299 414 299 411 298 408 c 0
 297 393 290 376 279 356 c 0
 468 290 l 0
 468 519 l 0
 402 519 l 0
 374 519 l 0
 370 520 l 0
 361 522 346 534 325 556 c 0
 312 570 303 583 300 594 c 0
 303 595 318 596 345 596 c 0
 629 596 l 0
 705 598 l 0
 713 597 719 596 722 595 c 0
 727 594 735 589 744 580 c 0
 774 556 791 536 795 520 c 0
 784 517 775 516 766 516 c 0
 715 519 l 0
 545 519 l 0
 545 -38 l 0
 535 -37 520 -27 500 -8 c 0
 483 9 473 22 470 31 c 0
 468 37 467 44 467 53 c 0
 468 79 l 0
 468 179 l 0
 457 175 403 152 307 110 c 0
 303 108 297 106 289 103 c 0
 240 81 l 0
 218 73 l 0
 217 73 l 0
 213 73 207 76 198 83 c 0
 180 98 166 112 156 125 c 0
 149 134 145 141 145 145 c 0
 145 147 145 148 146 149 c 0
 146 150 153 154 168 160 c 0
 171 161 221 184 318 227 c 0
 402 261 l 0
 395 264 349 281 266 310 c 0
 229 324 l 0
 217 324 l 0
 212 322 203 316 189 305 c 0
 185 300 l 0
 111 240 l 0
 83 216 l 0
 73 212 l 0
 68 212 62 216 55 223 c 0
 36 236 21 250 12 265 c 0
 5 271 1 277 0 283 c 0
 1 287 l 0
 2 292 11 300 27 311 c 0
 84 359 l 0
 105 373 l 0
 105 376 l 1
EndSplineSet
AnchorPoint: "Anchor-0" 507 596 baselig 0
AnchorPoint: "Virama" 545 -38 baselig 0
LCarets: 0 65535 '    ' 1 0 
Ligature: 0 0 'vatu' uni0936 uniE97F
Comment: "Itrans: shra" 
Colour: ffffff
EndChar
StartChar: uniE906
Encoding: 59654 59654 107
Width: 750
Flags: W
HStem: 25 80<336 404> 207 78<328 385> 520 76<-38 242.269 -38 468 -38 715>
VStem: 260 32<504 519> 468 77<240 262.983 317 519>
DStem: 297 322 323 366 383 293 468 317
Fore
209 518 m 0
 180 513 161 494 152 461 c 0
 150 451 l 0
 150 450 l 0
 148 429 l 0
 152 418 l 0
 153 417 l 0
 157 412 165 410 178 410 c 0
 205 413 l 0
 230 417 248 435 258 468 c 0
 260 478 l 0
 260 479 l 0
 260 504 l 0
 260 505 259 508 257 512 c 0
 253 517 244 520 229 520 c 0
 209 518 l 0
292 519 m 1
 292 518 301 506 318 481 c 0
 321 477 l 0
 331 460 336 443 336 424 c 0
 336 407 332 388 323 366 c 0
 468 317 l 0
 468 519 l 0
 292 519 l 1
266 114 m 1
 291 108 315 105 336 105 c 0
 368 105 398 112 426 126 c 0
 449 137 463 147 467 154 c 0
 469 172 l 0
 468 198 l 0
 430 206 l 0
 385 207 l 0
 322 201 284 180 271 143 c 0
 268 133 266 123 266 114 c 1
-38 596 m 1
 683 596 l 0
 721 596 l 0
 722 595 724 594 725 594 c 0
 736 589 751 577 769 558 c 0
 784 543 792 530 795 520 c 0
 784 517 775 516 766 516 c 0
 715 519 l 0
 545 519 l 0
 545 -38 l 0
 536 -37 527 -32 519 -24 c 0
 491 -3 474 17 468 37 c 0
 447 29 425 25 404 25 c 0
 345 25 290 51 237 104 c 0
 204 135 188 164 188 191 c 0
 188 199 l 0
 191 232 215 257 259 273 c 0
 281 281 304 285 328 285 c 0
 381 285 427 270 468 240 c 0
 468 243 468 250 467 263 c 0
 464 266 456 269 443 272 c 0
 383 293 l 0
 297 322 l 0
 267 333 l 0
 262 333 l 0
 260 332 244 327 215 316 c 0
 212 315 211 314 210 314 c 0
 125 285 l 0
 86 270 l 0
 73 268 l 0
 68 268 61 272 53 279 c 0
 37 291 23 305 12 320 c 0
 5 329 1 337 1 344 c 0
 3 347 14 350 33 355 c 0
 36 356 37 357 38 357 c 0
 128 389 l 0
 137 392 l 0
 98 433 76 471 72 506 c 0
 72 519 l 0
 37 519 l 0
 36 519 35 519 32 520 c 0
 30 520 23 524 11 533 c 0
 -20 559 -36 580 -38 596 c 1
EndSplineSet
AnchorPoint: "Anchor-0" 507 596 baselig 0
AnchorPoint: "Virama" 545 -38 baselig 0
LCarets: 0 65535 '    ' 2 0 0 
Ligature: 0 0 'akhn' uni0936 uni094D uni0935
Comment: "Itrans: shva" 
Colour: ffffff
EndChar
StartChar: uniE907
Encoding: 59655 59655 108
Width: 803
Flags: W
HStem: 346 79<485 561> 363 78<139 210> 518 78<-38 47 -38 352 -38 731 755 848> 519 78<721 757>
VStem: 350 79<41 201 342 519> 582 101<143 229>
Fore
604 320 m 0
 604 335 597 344 582 345 c 0
 561 346 l 0
 518 346 482 328 453 291 c 0
 450 287 l 0
 436 268 429 240 429 204 c 0
 429 170 l 0
 429 -38 l 0
 418 -37 402 -26 383 -7 c 0
 364 12 354 24 353 31 c 0
 351 37 350 44 350 51 c 0
 352 83 l 0
 352 84 l 0
 352 201 l 0
 334 194 292 173 227 139 c 0
 223 136 217 133 209 129 c 0
 166 104 l 0
 152 101 l 0
 147 101 140 105 129 114 c 0
 99 138 82 159 77 177 c 0
 348 313 l 0
 341 324 324 336 297 347 c 0
 267 358 238 363 210 363 c 0
 167 363 128 353 94 334 c 0
 84 327 77 323 73 323 c 0
 70 323 63 327 52 336 c 0
 39 345 25 359 8 380 c 0
 4 386 2 391 2 394 c 0
 2 399 9 405 23 414 c 0
 24 414 25 415 28 416 c 0
 59 433 96 441 139 441 c 0
 213 441 284 408 352 342 c 0
 352 519 l 0
 67 519 l 0
 46 518 l 0
 45 518 l 0
 34 518 22 523 11 533 c 0
 -20 559 -36 580 -38 596 c 0
 731 596 l 0
 756 597 l 0
 757 597 l 0
 764 597 771 596 777 594 c 0
 789 589 803 578 820 559 c 0
 837 542 846 529 848 520 c 0
 721 519 l 0
 716 519 l 0
 429 519 l 0
 429 409 l 0
 446 420 465 425 485 425 c 0
 534 425 584 397 635 342 c 0
 638 338 l 0
 667 305 682 269 683 229 c 0
 683 214 679 184 672 137 c 0
 666 100 660 70 655 49 c 0
 651 31 647 21 642 18 c 0
 639 18 632 22 621 30 c 0
 590 54 573 73 570 88 c 0
 569 93 l 0
 569 94 l 0
 569 96 573 111 580 138 c 0
 581 141 582 142 582 143 c 0
 590 184 597 226 602 271 c 0
 603 278 604 294 604 320 c 0
EndSplineSet
AnchorPoint: "Anchor-0" 392 596 baselig 0
AnchorPoint: "Virama" 429 -38 baselig 0
Ligature: 0 0 'vatu' uni0915 uniE97F
LCarets: 0 65535 '    ' 1 0 
Comment: "Itrans: kra" 
Colour: ffffff
EndChar
StartChar: uniE908
Encoding: 59656 59656 109
Width: 946
Flags: W
HStem: 55 78<240 317> 328 76<206 663> 518 78<-38 46 -38 663 -38 910>
VStem: -6 83<327 366> 321 76<146 221> 662 78<41 519>
DStem: 601 192 663 143 418 43 525 29
Fore
240 133 m 0
 282 133 308 152 318 191 c 0
 320 200 321 210 321 221 c 0
 321 260 311 291 291 314 c 0
 290 316 289 318 286 321 c 0
 230 366 l 0
 217 379 209 392 206 404 c 0
 342 405 l 0
 349 405 l 0
 663 405 l 0
 663 519 l 0
 61 519 l 0
 45 518 l 0
 44 518 l 0
 39 518 35 519 31 520 c 0
 20 523 6 535 -12 555 c 0
 -28 570 -37 583 -38 596 c 0
 861 596 l 0
 896 598 l 0
 896 598 l 0
 913 598 928 592 939 580 c 0
 969 557 986 537 990 520 c 0
 984 518 975 517 962 517 c 0
 911 519 l 0
 910 519 l 0
 740 519 l 0
 740 -38 l 0
 730 -37 716 -28 698 -11 c 0
 678 10 667 24 665 31 c 0
 663 37 662 43 662 49 c 0
 663 66 l 0
 663 67 l 0
 663 143 l 0
 525 29 l 0
 474 -16 l 0
 456 -26 l 0
 455 -27 454 -27 451 -27 c 0
 438 -27 424 -16 408 6 c 0
 408 7 407 9 406 10 c 0
 401 15 399 19 399 23 c 0
 399 27 405 34 418 43 c 0
 601 192 l 0
 643 227 l 0
 660 240 l 0
 663 245 664 250 664 255 c 0
 663 269 l 0
 663 270 l 0
 663 328 l 0
 308 328 l 0
 338 298 361 268 376 237 c 0
 390 213 397 183 397 146 c 0
 397 92 376 62 334 56 c 0
 317 55 l 0
 308 55 292 57 269 62 c 0
 198 82 132 127 73 197 c 0
 56 219 42 239 31 256 c 0
 6 297 -6 334 -6 366 c 0
 -6 374 l 0
 -6 395 -3 405 4 405 c 0
 7 405 14 401 23 394 c 0
 51 372 68 353 75 336 c 0
 76 331 77 328 77 327 c 0
 72 292 l 0
 72 291 l 0
 72 289 l 0
 75 246 90 211 117 184 c 0
 120 181 124 178 129 174 c 0
 167 147 204 133 240 133 c 0
EndSplineSet
AnchorPoint: "Anchor-0" 701 596 baselig 0
AnchorPoint: "Virama" 740 -38 baselig 0
Ligature: 0 0 'vatu' uni091C uniE97F
LCarets: 0 65535 '    ' 1 0 
EndChar
StartChar: uniE909
Encoding: 59657 59657 110
Width: 946
Flags: W
HStem: 328 76<206 663> 519 77<-38 663 -38 910>
VStem: 320 78<146 221> 663 77<41 519>
DStem: 601 192 663 143 418 43 525 29
Fore
467 276 m 1
 522 223 l 0
 522 221 l 0
 468 167 l 0
 467 167 l 0
 412 221 l 0
 412 223 l 0
 467 276 l 1
-38 596 m 1
 861 596 l 0
 908 597 l 0
 918 595 l 0
 927 592 934 587 939 580 c 0
 969 557 986 537 990 520 c 0
 979 517 970 516 961 516 c 0
 910 519 l 0
 740 519 l 0
 740 -38 l 0
 730 -37 716 -28 698 -11 c 0
 678 10 667 24 665 31 c 0
 664 36 663 48 663 67 c 0
 663 143 l 0
 525 29 l 0
 474 -16 l 0
 456 -26 l 0
 447 -27 l 0
 434 -23 420 -11 406 10 c 0
 401 15 399 19 399 23 c 0
 399 24 399 25 400 27 c 0
 401 30 407 35 418 43 c 0
 601 192 l 0
 643 227 l 0
 650 233 657 239 662 244 c 0
 663 268 l 0
 663 270 l 0
 663 328 l 0
 308 328 l 0
 338 298 361 268 376 237 c 0
 389 212 397 181 398 146 c 0
 398 127 395 111 389 98 c 0
 381 80 369 68 353 62 c 0
 328 56 l 0
 295 57 l 0
 283 59 274 61 269 62 c 0
 198 82 132 127 73 197 c 0
 56 219 42 239 31 256 c 0
 6 297 -6 334 -6 366 c 0
 -6 387 -4 399 0 403 c 0
 6 404 l 0
 9 404 15 401 23 394 c 0
 51 372 68 353 75 336 c 0
 76 320 l 0
 72 289 l 0
 75 246 90 211 117 184 c 0
 120 181 124 178 129 174 c 0
 167 147 204 133 240 133 c 0
 252 133 261 134 266 136 c 0
 302 145 320 173 320 221 c 0
 320 234 319 247 316 260 c 0
 311 287 301 307 286 321 c 0
 230 366 l 0
 217 379 209 392 206 404 c 0
 342 405 l 0
 349 405 l 0
 663 405 l 0
 663 519 l 0
 61 519 l 0
 31 520 l 0
 31 520 l 0
 20 523 6 535 -12 555 c 0
 -28 570 -37 583 -38 596 c 1
EndSplineSet
AnchorPoint: "Anchor-0" 702 596 baselig 0
AnchorPoint: "Virama" 740 -38 baselig 0
LCarets: 0 65535 '    ' 1 0 
Ligature: 0 0 'vatu' uni095B uniE97F
Comment: "Itrans: zra" 
Colour: ffffff
EndChar
StartChar: uniE90A
Encoding: 59658 59658 111
Width: 765
Flags: W
HStem: 348 76<447 520> 519 75<682 738> 519 77<-38 312 -38 733 736 809>
VStem: 311 79<41 178 384 519>
Fore
312 519 m 1
 130 519 l 0
 122 519 117 518 114 517 c 0
 113 516 110 511 107 502 c 0
 104 490 102 475 101 458 c 0
 100 404 l 0
 102 373 107 343 116 313 c 0
 123 288 129 273 135 267 c 0
 142 262 157 259 181 259 c 0
 224 259 259 272 286 297 c 0
 297 306 305 316 310 327 c 0
 311 330 312 338 312 350 c 0
 312 384 l 0
 312 519 l 1
-38 596 m 1
 694 596 l 0
 732 596 l 0
 735 595 737 594 738 594 c 0
 750 589 764 578 781 559 c 0
 798 542 807 529 809 520 c 0
 682 519 l 0
 677 519 l 0
 390 519 l 0
 390 412 l 0
 408 420 427 424 447 424 c 0
 492 424 538 401 585 354 c 0
 617 319 635 290 640 265 c 0
 642 229 l 0
 638 184 l 0
 635 148 623 93 604 18 c 0
 590 18 570 33 544 64 c 0
 541 67 l 0
 532 80 528 88 528 92 c 0
 528 95 532 113 541 146 c 0
 544 157 l 0
 551 187 557 225 562 271 c 0
 566 316 l 0
 566 326 564 334 561 339 c 0
 557 345 543 348 520 348 c 0
 477 348 441 330 412 295 c 0
 407 287 l 0
 399 276 393 267 390 258 c 0
 387 229 l 0
 390 178 l 0
 390 -38 l 0
 379 -37 364 -27 345 -8 c 0
 329 7 318 20 313 31 c 0
 312 38 311 45 311 53 c 0
 312 77 l 0
 312 177 l 0
 280 158 231 125 164 76 c 0
 133 55 l 0
 86 22 l 0
 66 10 l 0
 63 10 l 0
 51 14 l 0
 42 18 31 29 19 46 c 0
 14 53 12 58 12 62 c 0
 12 64 13 66 14 67 c 0
 20 73 36 85 62 102 c 0
 68 105 l 0
 69 105 l 0
 195 191 l 0
 170 200 146 217 122 243 c 0
 74 291 43 352 29 426 c 0
 24 449 22 469 21 485 c 0
 21 520 l 0
 21 522 l 0
 21 524 15 530 3 540 c 0
 -18 559 -30 573 -35 584 c 0
 -37 588 -38 592 -38 596 c 1
EndSplineSet
AnchorPoint: "Anchor-0" 351 596 baselig 0
AnchorPoint: "Virama" 390 -38 baselig 0
LCarets: 0 65535 '    ' 1 0 
Ligature: 0 0 'vatu' uni092B uniE97F
Comment: "Itrans: phra" 
Colour: ffffff
EndChar
StartChar: uniE90B
Encoding: 59659 59659 112
Width: 765
Flags: W
HStem: 348 76<447 520> 519 75<682 738> 519 77<-38 312 -38 732 736 809>
VStem: 312 78<31 178 384 519>
Fore
0 223 m 1
 56 168 l 0
 56 167 l 0
 1 112 l 0
 0 112 l 0
 -55 167 l 0
 -55 168 l 0
 0 223 l 1
312 519 m 1
 130 519 l 0
 122 519 117 518 114 517 c 0
 113 516 110 511 107 502 c 0
 104 490 102 475 101 458 c 0
 100 404 l 0
 102 373 107 343 116 313 c 0
 123 288 129 273 135 267 c 0
 142 262 157 259 181 259 c 0
 224 259 259 272 286 297 c 0
 297 306 305 316 310 327 c 0
 311 330 312 338 312 350 c 0
 312 384 l 0
 312 519 l 1
-38 596 m 1
 694 596 l 0
 732 596 l 0
 735 595 737 594 738 594 c 0
 750 589 764 578 781 559 c 0
 798 542 807 529 809 520 c 0
 682 519 l 0
 677 519 l 0
 390 519 l 0
 390 412 l 0
 408 420 427 424 447 424 c 0
 492 424 538 401 585 354 c 0
 617 319 635 290 640 265 c 0
 642 229 l 0
 638 184 l 0
 635 148 623 93 604 18 c 0
 590 18 570 33 544 64 c 0
 541 67 l 0
 532 80 528 88 528 92 c 0
 528 95 532 113 541 146 c 0
 544 157 l 0
 551 187 557 225 562 271 c 0
 566 316 l 0
 566 326 564 334 561 339 c 0
 557 345 543 348 520 348 c 0
 477 348 441 330 412 295 c 0
 407 287 l 0
 399 276 393 267 390 258 c 0
 387 229 l 0
 390 178 l 0
 390 -38 l 0
 379 -37 365 -28 348 -11 c 0
 327 8 316 22 313 31 c 0
 312 34 312 45 312 66 c 0
 312 140 l 0
 287 123 240 85 170 25 c 0
 119 -17 l 0
 110 -24 105 -27 102 -28 c 0
 89 -28 74 -15 57 10 c 0
 52 17 50 22 49 23 c 0
 51 28 l 0
 53 31 59 36 69 43 c 0
 112 79 l 0
 199 149 l 0
 215 163 228 174 238 181 c 0
 209 187 l 0
 193 190 176 199 157 212 c 0
 88 262 45 334 29 428 c 0
 24 450 22 469 21 485 c 0
 21 520 l 0
 21 522 l 0
 21 524 15 530 3 540 c 0
 -18 559 -30 573 -35 584 c 0
 -37 588 -38 592 -38 596 c 1
EndSplineSet
AnchorPoint: "Anchor-0" 350 596 baselig 0
AnchorPoint: "Virama" 390 -38 baselig 0
LCarets: 0 65535 '    ' 1 0 
Ligature: 0 0 'vatu' uni095E uniE97F
Comment: "Itrans: fra" 
Colour: ffffff
EndChar
StartChar: uniE90C
Encoding: 59660 59660 113
Width: 595
Flags: W
HStem: 519 77<-38 313 -38 559>
VStem: 21 80<458 488> 311 79<41 519>
DStem: 149 160 312 178 59 99 149 66
Fore
312 519 m 1
 130 519 l 0
 122 519 117 518 114 517 c 0
 113 516 110 511 107 502 c 0
 104 490 102 475 101 458 c 0
 100 404 l 0
 102 373 107 343 116 314 c 0
 123 291 128 276 131 271 c 0
 135 267 l 0
 137 265 144 263 157 261 c 0
 191 260 l 0
 204 261 214 263 221 265 c 0
 268 276 298 297 311 330 c 0
 312 338 313 345 313 352 c 0
 312 388 l 0
 312 519 l 1
-38 596 m 1
 537 596 l 0
 556 596 566 595 568 594 c 0
 580 589 595 577 614 556 c 0
 629 541 637 529 639 520 c 0
 628 517 618 516 609 516 c 0
 559 519 l 0
 390 519 l 0
 390 -38 l 0
 379 -37 364 -27 345 -8 c 0
 329 7 318 20 313 31 c 0
 312 38 311 45 311 53 c 0
 312 77 l 0
 312 178 l 0
 149 66 l 0
 87 21 l 0
 67 12 l 0
 57 12 l 0
 42 16 29 28 18 47 c 0
 14 53 12 58 12 63 c 0
 12 64 16 69 25 76 c 0
 34 80 45 88 59 99 c 0
 149 160 l 0
 189 188 l 0
 190 189 192 190 194 192 c 0
 177 195 153 212 122 243 c 0
 71 292 39 358 26 442 c 0
 23 470 21 485 21 488 c 0
 21 520 l 0
 21 522 l 0
 21 524 15 530 3 540 c 0
 -18 559 -30 573 -35 584 c 0
 -37 588 -38 592 -38 596 c 1
EndSplineSet
AnchorPoint: "Anchor-0" 351 596 baselig 0
AnchorPoint: "Virama" 390 -38 baselig 0
Ligature: 0 0 'vatu' uni092A uniE97F
LCarets: 0 65535 '    ' 1 0 
Comment: "Itrans: pra" 
Colour: ffffff
EndChar
StartChar: uniE90D
Encoding: 59661 59661 114
Width: 750
Flags: W
HStem: 243 79<284 348> 519 77<-38 129 -38 468 -38 715>
VStem: 468 77<38 519>
Fore
203 519 m 1
 206 505 207 489 207 470 c 0
 207 439 200 393 186 332 c 0
 219 325 252 322 284 322 c 0
 327 322 366 328 402 341 c 0
 423 348 439 355 450 360 c 0
 465 369 l 0
 467 370 l 0
 469 387 l 0
 468 412 l 0
 468 519 l 0
 203 519 l 1
-38 596 m 1
 683 596 l 0
 721 596 l 0
 722 595 724 594 725 594 c 0
 736 589 751 577 769 558 c 0
 784 543 792 530 795 520 c 0
 784 517 775 516 766 516 c 0
 715 519 l 0
 545 519 l 0
 545 -38 l 0
 534 -37 520 -28 505 -12 c 0
 486 5 475 19 470 31 c 0
 469 36 468 48 468 65 c 0
 468 136 l 0
 359 51 l 0
 326 23 l 0
 314 19 l 0
 305 20 l 0
 294 27 l 0
 281 38 267 52 251 70 c 0
 244 81 240 87 240 90 c 0
 240 92 241 94 242 95 c 0
 245 99 260 111 286 131 c 0
 293 135 297 138 299 140 c 0
 397 217 l 0
 433 246 l 0
 445 252 l 0
 445 254 l 0
 408 247 376 243 348 243 c 0
 313 244 283 248 258 255 c 0
 245 258 223 266 194 277 c 0
 171 289 l 0
 167 289 l 0
 164 289 157 282 146 268 c 0
 127 254 109 246 91 245 c 0
 94 232 102 212 116 185 c 0
 135 146 167 99 211 45 c 0
 258 -10 l 0
 266 -21 271 -30 272 -37 c 0
 262 -36 l 0
 246 -25 l 0
 244 -23 l 0
 235 -17 216 4 186 39 c 0
 114 126 67 192 44 239 c 0
 33 261 24 282 18 301 c 0
 9 328 4 352 1 373 c 0
 0 396 l 0
 1 397 l 0
 8 398 l 0
 15 395 20 393 21 390 c 0
 42 375 57 359 67 343 c 0
 69 343 l 0
 97 381 l 0
 98 382 98 383 99 384 c 0
 113 412 123 457 129 519 c 0
 63 519 l 0
 31 520 l 0
 31 520 l 0
 20 523 6 535 -12 555 c 0
 -28 570 -37 583 -38 596 c 1
EndSplineSet
AnchorPoint: "Anchor-0" 507 596 baselig 0
AnchorPoint: "Virama" 545 -38 baselig 0
LCarets: 0 65535 '    ' 1 0 
Ligature: 0 0 'vatu' uni0938 uniE97F
Comment: "Itrans: sra" 
Colour: ffffff
EndChar
StartChar: uniE90E
Encoding: 59662 59662 115
Width: 634
Flags: W
HStem: 350 56<328 383> 518 78<-38 215 -38 587> 519 77<561 572>
VStem: 216 77<443 519> 367 133<202 266>
Fore
-38 596 m 1
 572 596 l 0
 593 596 605 595 607 594 c 0
 616 591 631 579 652 558 c 0
 667 543 676 530 678 520 c 0
 561 519 l 0
 556 519 l 0
 287 519 l 0
 291 502 293 477 293 443 c 0
 293 422 292 408 290 402 c 0
 307 405 320 406 328 406 c 0
 383 406 428 387 463 350 c 0
 475 337 485 322 492 305 c 0
 497 294 500 281 500 266 c 0
 500 242 493 220 480 199 c 0
 463 178 l 0
 463 177 462 176 460 174 c 0
 439 157 426 148 421 148 c 0
 407 152 l 0
 397 157 386 167 375 184 c 0
 370 192 367 198 367 202 c 0
 368 204 376 210 393 221 c 0
 395 222 397 224 398 225 c 0
 423 244 438 270 442 305 c 0
 442 326 l 0
 441 335 437 340 430 342 c 0
 417 347 402 350 383 350 c 0
 359 350 335 345 312 336 c 0
 290 327 277 320 272 315 c 0
 271 314 266 305 258 289 c 0
 254 282 l 0
 233 253 208 238 179 237 c 0
 213 178 l 0
 215 177 216 176 217 174 c 0
 244 137 288 96 348 52 c 0
 379 27 400 8 412 -4 c 0
 425 -17 432 -29 433 -38 c 0
 426 -37 415 -31 401 -21 c 0
 343 24 l 0
 237 108 163 189 120 268 c 0
 101 302 90 334 85 363 c 0
 82 393 l 0
 82 394 83 396 84 397 c 0
 90 398 l 0
 95 398 100 395 105 389 c 0
 131 370 148 351 156 334 c 0
 196 374 216 436 216 519 c 0
 90 519 l 0
 42 518 l 0
 39 518 35 519 31 520 c 0
 24 522 12 531 -4 547 c 0
 -20 563 -30 575 -35 583 c 0
 -37 588 -38 592 -38 596 c 1
EndSplineSet
AnchorPoint: "Anchor-0" 255 596 basechar 0
Comment: "Itrans: ru" 
Colour: ffffff
EndChar
StartChar: uniE90F
Encoding: 59663 59663 116
Width: 731
Flags: W
HStem: 148 67<430 443> 518 78<-38 219 -38 701 702 775> 519 75<633 705>
VStem: 219 75<416 519>
DStem: 327 38 324 69 401 -21 393 18
Fore
-38 596 m 1
 663 596 l 0
 701 596 l 0
 702 595 704 594 705 594 c 0
 714 591 729 579 750 558 c 0
 765 543 773 531 775 520 c 0
 633 519 l 0
 625 519 l 0
 293 519 l 0
 294 416 l 0
 293 394 290 376 286 363 c 0
 305 377 325 384 348 384 c 0
 367 384 385 380 402 373 c 0
 431 364 461 347 494 322 c 0
 536 291 575 252 611 205 c 0
 659 143 l 0
 670 128 676 118 676 111 c 0
 661 111 642 126 620 156 c 0
 610 170 l 0
 566 228 531 267 506 287 c 0
 481 306 453 318 423 323 c 0
 393 324 l 0
 354 321 329 306 320 279 c 0
 316 263 l 0
 318 244 l 0
 325 223 342 211 371 207 c 0
 395 207 l 0
 430 215 l 0
 433 215 435 215 436 214 c 0
 448 208 461 196 475 178 c 0
 478 173 480 168 480 164 c 0
 479 158 l 0
 470 151 458 148 443 148 c 0
 431 148 418 150 404 154 c 0
 359 166 320 195 287 240 c 0
 272 258 264 276 262 293 c 0
 261 293 l 0
 246 262 223 244 192 238 c 0
 180 237 l 0
 179 237 l 0
 212 177 260 121 324 69 c 0
 393 18 l 0
 414 0 428 -18 434 -37 c 0
 423 -36 l 0
 401 -21 l 0
 327 38 l 0
 230 119 164 189 131 248 c 0
 120 264 112 279 107 293 c 0
 94 324 86 351 84 372 c 0
 83 395 l 0
 84 396 l 0
 84 397 85 398 88 398 c 0
 94 398 100 395 105 389 c 0
 131 370 148 351 156 334 c 0
 198 376 219 438 219 519 c 0
 90 519 l 0
 42 518 l 0
 39 518 35 519 31 520 c 0
 24 522 12 531 -4 547 c 0
 -20 563 -30 575 -35 583 c 0
 -37 588 -38 592 -38 596 c 1
EndSplineSet
AnchorPoint: "Anchor-0" 255 596 basechar 0
Comment: "Itrans: rU or ruu" 
Colour: ffffff
EndChar
StartChar: uniE910
Encoding: 59664 59664 117
Width: 0
Flags: W
Fore
24 806 m 1
 80 751 l 0
 80 750 l 0
 25 695 l 0
 24 695 l 0
 -30 750 l 0
 -30 751 l 0
 24 806 l 1
57 847 m 1
 41 846 l 0
 17 853 l 0
 -14 859 -36 862 -49 862 c 0
 -60 862 -69 861 -76 858 c 0
 -107 850 -124 826 -126 785 c 0
 -123 754 l 0
 -119 733 -110 715 -97 700 c 0
 -90 693 -70 682 -37 667 c 0
 -34 666 -26 663 -15 657 c 0
 0 646 12 635 21 623 c 0
 25 617 27 611 27 605 c 0
 21 604 l 0
 -6 614 l 0
 -53 635 -93 664 -126 701 c 0
 -161 743 -180 784 -184 825 c 0
 -184 854 l 0
 -180 875 -168 893 -149 906 c 0
 -139 914 -124 918 -105 918 c 0
 -97 918 -90 918 -84 917 c 0
 -28 912 10 903 29 888 c 0
 33 885 39 879 47 871 c 0
 56 852 l 0
 57 847 l 1
EndSplineSet
AnchorPoint: "Anchor-0" 21 604 mark 0
LCarets: 0 65535 '    ' 1 0 
Ligature: 0 0 'abvs' uniE97E uni0902
Comment: "Itrans: K" 
Colour: ffffff
EndChar
StartChar: uniE911
Encoding: 59665 59665 118
Width: 329
Flags: W
HStem: 519 77<-38 46 155 293> 810 78<87 106>
VStem: 46 77<82 519>
Fore
-287 656 m 1
 -302 658 -323 675 -351 707 c 0
 -359 718 -363 726 -364 729 c 0
 -362 746 l 0
 -355 765 l 0
 -338 810 -308 842 -266 859 c 0
 -253 866 -239 870 -223 872 c 0
 -186 873 l 0
 -117 867 -51 825 12 746 c 0
 41 704 l 0
 54 685 69 659 84 627 c 0
 89 612 93 603 96 600 c 0
 97 599 98 598 100 597 c 0
 103 595 109 594 119 594 c 0
 156 596 l 0
 256 596 l 0
 297 596 l 0
 300 595 302 594 303 594 c 0
 314 589 329 577 346 559 c 0
 362 542 371 529 373 520 c 0
 362 517 353 516 344 516 c 0
 293 519 l 0
 123 519 l 0
 123 -38 l 0
 110 -37 90 -22 64 7 c 0
 61 11 l 0
 52 22 48 29 47 34 c 0
 45 61 l 0
 46 83 l 0
 46 519 l 0
 27 519 4 534 -22 565 c 0
 -31 578 -37 588 -38 596 c 0
 45 596 l 0
 -2 708 l 0
 -6 718 l 0
 -7 719 l 0
 -22 748 -34 766 -41 771 c 0
 -58 785 -81 793 -109 795 c 0
 -144 795 l 0
 -191 789 -230 766 -260 727 c 0
 -274 705 -283 681 -287 656 c 1
217 721 m 5
 160 786 l 4
 137 803 l 4
 127 807 116 810 106 810 c 4
 84 810 65 798 50 773 c 4
 38 752 35 732 40 712 c 4
 41 705 50 691 64 670 c 4
 68 663 71 657 74 652 c 4
 80 637 83 623 83 610 c 4
 82 599 l 4
 78 597 l 4
 76 598 l 4
 68 606 l 4
 64 612 l 4
 53 626 44 642 37 660 c 4
 7 726 1 784 19 833 c 4
 32 857 l 4
 47 878 66 888 87 888 c 4
 96 888 106 885 117 879 c 4
 122 876 128 872 134 868 c 4
 172 840 197 812 211 782 c 4
 222 755 225 736 220 726 c 4
 217 721 l 5
EndSplineSet
LCarets: 0 65535 '    ' 1 0 
Ligature: 0 0 'abvs' uni0940 uniE97E
Comment: "II (Itrans: ii or I)" 
EndChar
StartChar: uniE912
Encoding: 59666 59666 119
Width: 401
Flags: W
VStem: 227 58<1001 1046>
DStem: 225 1079 225 1079 222 1076 234 1077
Fore
-48 1079 m 0
 -42 1079 l 0
 -33 1074 l 0
 -22 1068 -11 1058 -1 1044 c 0
 4 1033 4 1033 17 1003 c 0
 20 996 24 989 28 982 c 0
 43 959 75 946 122 943 c 0
 146 945 l 0
 177 950 200 968 216 999 c 0
 223 1014 227 1029 227 1046 c 0
 227 1050 226 1057 225 1066 c 0
 222 1076 l 0
 225 1079 l 0
 234 1077 l 0
 235 1077 237 1076 241 1073 c 0
 254 1065 265 1053 274 1038 c 0
 281 1028 285 1016 285 1001 c 0
 285 998 285 998 285 996 c 0
 285 963 273 935 248 911 c 0
 247 910 245 909 241 906 c 0
 221 891 199 884 175 884 c 0
 128 884 79 907 28 952 c 0
 16 963 6 973 -1 982 c 0
 -19 1005 -33 1029 -43 1054 c 0
 -47 1063 -49 1070 -49 1075 c 0
 -49 1077 -49 1078 -48 1079 c 0
493 796 m 5
 412 824 l 4
 383 827 l 4
 372 826 361 823 352 818 c 4
 333 807 323 787 323 758 c 4
 323 734 330 715 344 700 c 4
 349 695 363 687 386 676 c 4
 393 672 399 668 404 665 c 4
 417 655 426 644 433 633 c 4
 437 623 l 4
 435 620 l 4
 433 619 l 4
 422 622 l 4
 415 625 l 4
 399 632 383 641 368 653 c 4
 309 696 275 743 266 794 c 4
 265 822 l 4
 268 847 279 865 297 876 c 4
 305 881 315 883 328 883 c 4
 334 883 341 883 348 882 c 4
 395 877 431 865 458 846 c 4
 481 828 493 813 494 802 c 4
 493 796 l 5
EndSplineSet
Ligature: 0 0 'abvs' uni0945 uniE97E
LCarets: 0 65535 '    ' 1 0 
EndChar
StartChar: uniE913
Encoding: 59667 59667 120
Width: 673
Flags: W
HStem: 518 78<-38 90 -38 391 -38 638>
VStem: 113 75<220 291> 391 77<82 519>
Fore
256 94 m 1
 312 39 l 0
 312 38 l 0
 258 -17 l 0
 256 -17 l 0
 202 38 l 0
 202 39 l 0
 256 94 l 1
188 220 m 0
 188 179 184 154 176 145 c 0
 167 134 155 129 138 129 c 0
 132 129 128 129 125 130 c 0
 114 131 105 134 99 137 c 0
 78 146 53 165 25 196 c 0
 13 211 5 223 2 234 c 0
 0 259 l 0
 0 285 8 299 24 301 c 0
 41 299 l 0
 50 296 61 289 74 279 c 0
 82 273 93 263 108 248 c 0
 111 261 113 276 113 291 c 0
 113 296 112 313 109 342 c 0
 104 430 l 0
 104 436 l 0
 90 519 l 0
 42 518 l 0
 39 518 35 519 31 520 c 0
 22 523 7 535 -14 556 c 0
 -29 572 -37 585 -38 596 c 0
 609 596 l 0
 632 596 644 595 646 594 c 0
 657 591 672 579 691 558 c 0
 706 543 715 531 718 520 c 0
 707 517 697 516 688 516 c 0
 638 519 l 0
 468 519 l 0
 468 -38 l 0
 454 -37 434 -22 408 7 c 0
 407 8 406 9 405 11 c 0
 398 19 393 27 392 34 c 0
 390 61 l 0
 391 83 l 0
 391 519 l 0
 146 519 l 0
 153 499 161 472 169 438 c 0
 182 381 188 308 188 220 c 0
EndSplineSet
AnchorPoint: "Anchor-0" 430 596 basechar 0
Comment: "Itrans: Ga" 
Colour: ffffff
EndChar
StartChar: uniE914
Encoding: 59668 59668 121
Width: 774
Flags: W
HStem: 131 78<371 439> 348 76<367 440> 519 77<-38 129 -38 491 -38 738>
VStem: 221 76<244 314> 492 76<28 519>
Fore
343 56 m 1
 398 1 l 0
 398 0 l 0
 345 -55 l 0
 343 -55 l 0
 289 0 l 0
 289 1 l 0
 343 56 l 1
425 347 m 0
 368 339 330 319 309 287 c 0
 301 273 297 259 297 244 c 0
 297 233 298 226 301 223 c 0
 303 221 311 218 324 214 c 0
 342 211 358 209 371 209 c 0
 421 209 456 224 477 255 c 0
 486 270 491 291 491 317 c 0
 491 330 490 337 489 340 c 0
 474 344 l 0
 459 347 448 348 440 348 c 0
 433 348 428 348 425 347 c 0
206 461 m 0
 206 384 191 325 160 286 c 0
 142 261 119 248 90 247 c 0
 103 196 135 133 188 60 c 0
 189 56 192 52 195 48 c 0
 234 -7 l 0
 246 -21 252 -31 252 -38 c 0
 245 -37 235 -31 221 -21 c 0
 208 -10 189 11 166 42 c 0
 94 140 46 220 23 283 c 0
 18 299 l 0
 18 300 l 0
 9 322 3 346 1 373 c 0
 0 395 l 0
 1 396 l 0
 2 397 3 398 5 398 c 0
 14 398 32 384 57 356 c 0
 62 351 67 349 72 349 c 0
 81 356 90 368 99 387 c 0
 111 412 119 442 124 477 c 0
 129 519 l 0
 63 519 l 0
 31 520 l 0
 31 520 l 0
 20 523 6 535 -12 555 c 0
 -28 570 -37 583 -38 596 c 0
 702 596 l 0
 742 596 l 0
 745 595 746 594 747 594 c 0
 756 590 770 578 791 559 c 0
 807 543 816 530 818 520 c 0
 809 517 799 516 789 516 c 0
 738 519 l 0
 568 519 l 0
 568 -38 l 0
 558 -37 544 -28 526 -11 c 0
 507 9 496 22 494 27 c 0
 493 28 492 30 492 31 c 0
 490 50 l 0
 491 66 l 0
 491 139 l 0
 474 134 456 131 439 131 c 0
 382 131 326 159 271 214 c 0
 238 247 221 281 221 314 c 0
 221 322 221 328 222 332 c 0
 229 367 252 392 290 408 c 0
 313 419 339 424 367 424 c 0
 413 424 454 408 491 377 c 0
 491 519 l 0
 203 519 l 0
 205 512 206 492 206 461 c 0
EndSplineSet
AnchorPoint: "Anchor-0" 528 596 basechar 0
Comment: "Itrans: Ka" 
Colour: ffffff
EndChar
StartChar: uniE915
Encoding: 59669 59669 117
Width: 520
Flags: W
HStem: 158 78<147 219> 375 78<145 215> 519 77<-38 269 -38 494>
VStem: 0 75<269 342> 269 77<73 241 405 519>
DStem: 477 598 477 598 412 596 491 595
Fore
269 369 m 1
 250 373 232 375 215 375 c 0
 163 375 124 358 98 325 c 0
 83 308 75 289 75 269 c 0
 75 260 77 254 80 250 c 0
 81 249 87 247 98 242 c 0
 114 238 130 236 147 236 c 0
 194 236 230 251 254 280 c 0
 259 286 264 294 267 305 c 0
 269 312 270 321 270 332 c 0
 269 369 l 1
-38 596 m 1
 412 596 l 0
 477 598 l 0
 491 595 l 0
 496 594 504 589 514 580 c 0
 545 556 561 536 564 520 c 0
 558 518 549 517 538 517 c 0
 494 519 l 0
 346 519 l 0
 346 402 l 0
 379 405 l 0
 427 404 475 378 522 328 c 0
 543 307 556 290 561 279 c 0
 562 268 l 0
 549 270 533 281 516 301 c 0
 499 318 l 0
 491 325 477 329 457 329 c 0
 427 326 l 0
 388 318 363 300 350 273 c 0
 349 272 349 271 348 270 c 0
 347 269 346 259 346 241 c 0
 346 -38 l 0
 334 -37 320 -27 303 -10 c 0
 283 10 272 24 270 31 c 0
 268 54 l 0
 269 74 l 0
 269 165 l 0
 253 160 236 158 219 158 c 0
 158 158 100 187 47 246 c 0
 46 247 45 249 43 251 c 0
 14 282 0 313 0 342 c 0
 0 350 1 356 2 360 c 0
 8 394 31 420 72 438 c 0
 96 448 120 453 145 453 c 0
 192 453 233 437 269 405 c 0
 269 519 l 0
 104 519 l 0
 46 517 l 0
 37 518 32 519 31 520 c 0
 16 526 -3 542 -24 568 c 0
 -32 577 -37 587 -38 596 c 1
EndSplineSet
LCarets: 0 65535 '    ' 1 0 
Ligature: 0 0 'half' uni0915 uni094D
Comment: "Itrans: k" 
Colour: ffffff
EndChar
StartChar: uniE916
Encoding: 59670 59670 118
Width: 524
Flags: W
HStem: 519 77<-38 132 -38 453>
VStem: 132 77<454 519>
DStem: 480 598 480 598 416 596 495 595
Fore
415 351 m 0
 355 343 318 318 305 277 c 0
 301 268 299 257 299 244 c 0
 299 238 l 0
 299 223 302 215 309 213 c 0
 312 211 315 210 320 209 c 0
 335 206 348 204 359 204 c 0
 372 205 l 0
 373 205 l 0
 443 215 482 247 490 300 c 0
 491 316 l 0
 491 317 l 0
 491 332 487 341 480 344 c 0
 479 345 476 346 470 347 c 0
 455 350 443 352 433 352 c 0
 424 352 418 352 415 351 c 0
342 428 m 0
 375 428 l 0
 420 424 465 400 510 355 c 0
 533 332 549 311 558 292 c 0
 565 273 568 257 568 244 c 0
 568 203 550 172 514 149 c 0
 495 138 476 132 457 129 c 0
 420 128 l 0
 362 133 312 160 270 209 c 0
 253 227 241 244 233 261 c 0
 225 277 221 295 221 314 c 0
 221 349 233 376 256 395 c 0
 279 413 307 424 342 428 c 0
-38 596 m 1
 416 596 l 0
 480 598 l 0
 495 595 l 0
 500 594 508 589 519 580 c 0
 546 558 563 538 568 520 c 0
 458 519 l 0
 453 519 l 0
 203 519 l 0
 207 506 209 485 209 454 c 0
 209 387 199 335 178 296 c 0
 158 259 131 239 97 237 c 0
 129 180 l 0
 132 177 l 0
 157 143 197 104 252 61 c 0
 291 31 312 14 316 9 c 0
 329 -4 l 0
 341 -17 348 -28 350 -38 c 0
 344 -38 333 -32 318 -21 c 0
 259 25 l 0
 159 106 89 181 49 248 c 0
 37 269 l 0
 18 308 6 340 2 365 c 0
 -1 393 l 0
 1 397 l 0
 6 398 l 0
 10 398 16 395 23 389 c 0
 48 370 65 352 74 335 c 0
 102 372 l 0
 102 373 102 373 103 374 c 0
 122 413 132 461 132 519 c 0
 63 519 l 0
 31 520 l 0
 31 520 l 0
 20 523 6 535 -12 555 c 0
 -28 570 -37 583 -38 596 c 1
EndSplineSet
LCarets: 0 65535 '    ' 1 0 
Ligature: 0 0 'half' uni0916 uni094D
Comment: "Itrans: kh" 
Colour: ffffff
EndChar
StartChar: uniE917
Encoding: 59671 59671 119
Width: 423
Flags: W
HStem: 518 78<-38 90 -38 392>
VStem: 113 75<223 287>
Fore
-38 596 m 1
 345 596 l 0
 374 596 390 596 392 595 c 0
 399 593 407 588 416 580 c 0
 446 556 463 536 467 520 c 0
 369 519 l 0
 365 519 l 0
 146 519 l 0
 174 432 188 333 188 223 c 0
 188 184 185 159 179 149 c 0
 173 138 163 131 150 129 c 0
 123 129 l 0
 94 134 62 156 25 196 c 0
 13 211 5 223 2 234 c 0
 0 259 l 0
 0 285 8 299 24 301 c 0
 41 299 l 0
 50 296 61 289 74 279 c 0
 82 273 93 263 108 248 c 0
 111 261 113 274 113 287 c 0
 113 292 112 307 109 334 c 0
 103 445 l 0
 90 519 l 0
 42 518 l 0
 39 518 35 519 31 520 c 0
 22 523 7 535 -14 556 c 0
 -29 572 -37 585 -38 596 c 1
EndSplineSet
LCarets: 0 65535 '    ' 1 0 
Ligature: 0 0 'half' uni0917 uni094D
Comment: "Itrans: g" 
Colour: ffffff
EndChar
StartChar: uniE918
Encoding: 59672 59672 120
Width: 423
Flags: W
HStem: 137 76<174 245> 323 77<230 316> 518 78<-38 140 -38 383>
Fore
-38 596 m 1
 345 596 l 0
 374 596 390 596 392 595 c 0
 399 593 407 588 416 580 c 0
 446 556 463 536 467 520 c 0
 456 517 446 516 437 516 c 0
 383 519 l 0
 220 519 l 0
 148 519 l 0
 140 518 l 0
 139 518 l 0
 113 513 94 498 82 471 c 0
 78 456 l 0
 78 432 l 0
 81 424 l 0
 84 419 96 414 116 408 c 0
 139 401 153 397 160 397 c 0
 230 400 l 0
 236 400 240 400 243 399 c 0
 254 397 271 384 293 360 c 0
 302 350 309 341 314 333 c 0
 315 329 316 326 316 323 c 0
 259 323 218 321 195 316 c 0
 174 311 161 306 154 302 c 0
 132 289 119 272 115 251 c 0
 115 231 l 0
 117 227 l 0
 117 226 l 0
 118 222 123 219 132 217 c 0
 149 214 163 213 174 213 c 0
 241 213 310 244 379 307 c 0
 386 312 390 315 393 315 c 0
 395 315 396 315 397 314 c 0
 414 308 432 292 453 265 c 0
 461 254 465 247 465 245 c 0
 465 241 l 0
 463 237 455 229 440 217 c 0
 418 198 393 181 365 167 c 0
 326 147 286 137 245 137 c 0
 223 137 203 140 184 146 c 0
 162 153 141 164 121 181 c 0
 66 228 37 271 36 312 c 0
 39 336 l 0
 42 345 47 353 52 358 c 0
 56 363 68 371 88 384 c 0
 83 387 73 395 59 409 c 0
 26 443 6 473 1 500 c 0
 0 523 l 0
 1 540 l 0
 -1 545 -8 553 -21 566 c 0
 -31 575 -37 585 -38 596 c 1
EndSplineSet
LCarets: 0 65535 '    ' 1 0 
Ligature: 0 0 'half' uni0918 uni094D
Comment: "Itrans: gh" 
Colour: ffffff
EndChar
StartChar: uniE919
Encoding: 59673 59673 121
Width: 708
Flags: W
HStem: 375 78<265 295> 517 79<-38 356 -38 667>
Fore
547 366 m 1
 603 312 l 0
 603 311 l 0
 548 256 l 0
 547 256 l 0
 492 311 l 0
 492 312 l 0
 547 366 l 1
-38 596 m 1
 643 596 l 0
 667 596 680 595 683 594 c 0
 692 591 706 579 727 558 c 0
 742 543 750 530 753 520 c 0
 656 519 l 0
 652 519 l 0
 434 519 l 0
 434 373 l 0
 295 375 l 0
 279 375 268 374 261 373 c 0
 220 369 194 356 183 334 c 0
 180 328 177 318 174 304 c 0
 302 312 l 0
 328 312 l 0
 368 307 404 287 436 252 c 0
 461 223 473 195 473 166 c 0
 473 151 468 134 458 116 c 0
 439 84 405 62 356 50 c 0
 329 44 308 41 292 41 c 0
 211 42 137 80 69 156 c 0
 23 207 0 251 0 289 c 0
 8 288 17 282 27 273 c 0
 53 254 69 236 76 217 c 0
 92 167 l 0
 103 150 l 0
 104 149 l 0
 122 133 150 123 189 119 c 0
 234 119 l 0
 299 123 345 144 374 183 c 0
 386 198 393 215 395 234 c 0
 266 225 l 0
 243 225 221 228 201 235 c 0
 190 239 178 247 164 259 c 0
 127 290 105 318 99 343 c 0
 96 371 l 0
 97 401 109 422 130 434 c 0
 148 443 172 449 203 452 c 0
 265 453 l 0
 356 450 l 0
 356 519 l 0
 140 519 l 0
 54 517 l 0
 49 517 43 518 35 519 c 0
 28 521 20 525 12 532 c 0
 -21 557 -37 579 -38 596 c 1
EndSplineSet
Comment: "Itrans: +AH4A-Na or N^a" 
Colour: ffffff
EndChar
StartChar: uniE91A
Encoding: 59674 59674 122
Width: 462
Flags: W
HStem: 322 78<0 128 238 332> 518 78<-38 424>
VStem: 126 77<237 304>
Fore
0 400 m 1
 238 400 l 0
 330 402 l 0
 333 402 341 401 355 399 c 0
 363 398 371 393 379 386 c 0
 412 361 428 340 429 323 c 0
 293 323 l 0
 252 324 l 0
 247 323 244 322 241 320 c 0
 222 307 209 283 204 250 c 0
 203 247 203 242 203 237 c 0
 203 219 205 209 210 207 c 0
 228 205 l 0
 251 207 l 0
 291 209 335 219 383 238 c 0
 422 258 l 0
 425 259 428 260 432 260 c 0
 436 260 442 256 451 249 c 0
 466 238 480 225 492 209 c 0
 500 199 504 191 504 185 c 0
 503 183 494 178 479 171 c 0
 450 156 425 147 404 144 c 0
 362 133 329 127 305 127 c 0
 296 127 284 128 271 131 c 0
 252 135 231 147 206 168 c 0
 153 215 126 260 126 304 c 0
 126 307 127 314 128 323 c 0
 80 322 l 0
 69 324 l 0
 60 328 45 340 24 360 c 0
 8 378 0 391 0 400 c 1
-38 596 m 1
 369 596 l 0
 424 597 l 0
 434 595 l 0
 440 592 447 587 456 580 c 0
 485 556 502 536 506 520 c 0
 484 518 l 0
 456 519 l 0
 141 519 l 0
 53 518 l 0
 46 518 40 518 37 519 c 0
 30 520 21 525 12 532 c 0
 -21 557 -37 579 -38 596 c 1
EndSplineSet
LCarets: 0 65535 '    ' 1 0 
Ligature: 0 0 'half' uni091A uni094D
Comment: "Itrans: ch" 
Colour: ffffff
EndChar
StartChar: uniE91B
Encoding: 59675 59675 123
Width: 862
Flags: W
HStem: -35 74<232 276> 520 76<-38 487 -38 828>
VStem: 487 77<438 519> 598 78<242 301>
Fore
559 186 m 1
 572 203 582 225 589 250 c 0
 595 270 598 287 598 301 c 0
 598 338 l 0
 596 347 594 353 591 356 c 0
 588 361 581 363 568 363 c 0
 557 363 546 362 536 359 c 0
 503 352 481 332 471 299 c 0
 467 288 465 277 465 266 c 0
 465 244 469 230 476 225 c 0
 479 222 488 218 505 211 c 0
 556 187 l 0
 557 186 558 186 559 186 c 1
-38 596 m 1
 785 596 l 0
 826 596 l 0
 830 596 833 595 836 594 c 0
 844 591 858 580 878 561 c 0
 895 544 904 530 906 520 c 0
 803 519 l 0
 799 519 l 0
 564 519 l 0
 564 445 l 0
 564 418 l 0
 564 417 564 416 565 415 c 0
 568 412 577 404 593 391 c 0
 597 388 600 386 601 385 c 0
 639 347 662 312 671 279 c 0
 674 267 676 255 676 242 c 0
 676 223 667 187 649 135 c 0
 646 126 l 0
 653 123 667 111 690 88 c 0
 736 43 764 6 773 -22 c 0
 776 -31 778 -42 778 -53 c 0
 775 -74 l 0
 770 -90 751 -107 718 -125 c 0
 700 -133 l 0
 672 -146 l 0
 660 -147 l 0
 646 -142 627 -125 604 -97 c 0
 597 -89 593 -81 593 -73 c 0
 597 -68 610 -61 631 -53 c 0
 664 -36 684 -23 691 -12 c 0
 698 -2 701 8 701 18 c 0
 701 23 701 26 700 28 c 0
 695 48 685 64 672 77 c 0
 655 90 643 99 635 102 c 0
 627 99 l 0
 604 72 l 0
 552 16 478 -19 383 -33 c 0
 374 -34 359 -36 339 -37 c 0
 284 -37 l 0
 280 -36 277 -35 276 -35 c 0
 253 -30 230 -17 207 4 c 0
 156 49 129 93 125 136 c 0
 126 162 l 0
 140 210 l 0
 125 217 103 236 74 265 c 0
 69 270 l 0
 36 304 15 336 5 365 c 0
 3 370 1 378 0 389 c 0
 0 396 2 403 6 410 c 0
 21 443 70 461 151 463 c 0
 206 461 l 0
 229 459 244 457 250 454 c 0
 257 451 270 441 289 422 c 0
 304 407 313 396 316 387 c 0
 316 381 l 0
 309 379 l 0
 305 380 l 0
 287 383 272 385 259 385 c 0
 193 386 l 0
 158 383 128 374 105 361 c 0
 88 351 78 335 77 314 c 0
 80 295 l 0
 84 287 89 280 94 275 c 0
 112 259 132 250 154 248 c 0
 171 249 l 0
 174 250 183 255 200 266 c 0
 206 269 l 0
 239 284 269 291 295 291 c 0
 299 291 306 290 316 288 c 0
 325 286 340 275 359 256 c 0
 362 252 l 0
 377 237 387 224 390 213 c 0
 387 212 371 210 342 208 c 0
 332 207 l 0
 331 207 l 0
 271 195 232 168 213 125 c 0
 212 121 211 117 209 114 c 0
 204 101 202 88 202 76 c 0
 202 69 202 64 203 61 c 0
 205 50 207 44 208 43 c 0
 212 40 220 39 232 39 c 0
 248 39 269 40 294 43 c 0
 394 56 474 93 533 153 c 0
 523 156 507 166 485 185 c 0
 429 230 398 273 391 314 c 0
 389 344 l 0
 391 381 407 409 438 427 c 0
 451 435 468 439 487 439 c 0
 487 519 l 0
 69 519 l 0
 37 519 l 0
 36 519 35 519 32 520 c 0
 30 520 23 524 11 533 c 0
 -20 559 -36 580 -38 596 c 1
EndSplineSet
Comment: "Itrans: Cha or chha" 
Colour: ffffff
EndChar
StartChar: uniE91C
Encoding: 59676 59676 124
Width: 539
Flags: W
HStem: 328 77<276 496> 520 76<-38 429>
Fore
0 405 m 1
 6 404 14 399 25 392 c 0
 51 371 68 352 75 336 c 0
 79 320 82 306 84 293 c 0
 86 286 l 0
 107 221 136 177 175 154 c 0
 190 145 205 139 220 136 c 0
 250 133 l 0
 253 133 254 133 255 134 c 0
 294 139 316 164 320 209 c 0
 318 243 l 0
 316 262 311 280 303 296 c 0
 298 308 281 324 254 345 c 0
 227 366 211 385 206 404 c 0
 213 406 221 407 232 407 c 0
 276 405 l 0
 485 405 l 0
 514 404 l 0
 514 404 l 0
 536 390 l 0
 563 367 580 347 585 330 c 0
 577 327 565 326 549 326 c 0
 496 328 l 0
 308 328 l 0
 368 269 398 209 398 146 c 0
 398 110 385 83 360 66 c 0
 349 60 339 57 328 56 c 0
 297 57 l 0
 264 62 229 79 191 108 c 0
 114 169 58 237 24 313 c 0
 8 350 0 380 0 405 c 1
-38 596 m 1
 429 596 l 0
 496 598 l 0
 504 597 509 596 512 595 c 0
 515 594 523 589 534 580 c 0
 563 557 580 537 585 520 c 0
 561 518 l 0
 531 519 l 0
 73 519 l 0
 37 519 l 0
 36 519 35 519 32 520 c 0
 30 520 23 524 11 533 c 0
 -20 559 -36 580 -38 596 c 1
EndSplineSet
LCarets: 0 65535 '    ' 1 0 
Ligature: 0 0 'half' uni091C uni094D
Comment: "Itrans: j" 
Colour: ffffff
EndChar
StartChar: uniE91D
Encoding: 59677 59677 125
Width: 559
Flags: W
HStem: 40 148<115 192> 384 66<134 228> 519 77<31 259 336 523>
VStem: -2 83<361 375>
DStem: 272 302 272 302 140 297 292 300
Fore
538 316 m 2
 551 313 l 0
 568 304 584 290 599 271 c 0
 604 261 l 0
 604 261 l 0
 571 244 518 230 447 219 c 0
 420 215 397 213 378 213 c 0
 373 213 368 213 363 214 c 0
 371 201 375 187 375 171 c 0
 375 138 361 109 334 84 c 0
 325 75 315 69 306 66 c 0
 398 -64 l 0
 411 -109 l 0
 412 -112 412 -115 412 -118 c 0
 377 -105 345 -67 318 -4 c 0
 306 25 296 43 288 51 c 0
 287 52 285 53 284 54 c 0
 275 55 l 0
 262 50 l 0
 237 43 214 40 192 40 c 0
 141 40 99 57 65 91 c 0
 44 112 32 128 31 139 c 0
 32 150 36 158 44 163 c 0
 61 173 l 0
 77 182 95 187 115 188 c 0
 128 188 140 186 153 182 c 0
 163 179 172 174 181 169 c 0
 219 145 l 0
 228 143 l 0
 244 152 l 0
 274 169 292 197 297 234 c 0
 172 227 l 0
 130 227 98 235 77 252 c 0
 47 279 l 0
 46 281 44 283 42 285 c 0
 13 316 -2 346 -2 375 c 0
 -2 425 43 451 134 453 c 0
 259 450 l 0
 259 519 l 0
 31 519 l 0
 19 522 4 535 -15 556 c 0
 -28 571 -36 585 -38 596 c 0
 84 597 268 598 515 598 c 0
 538 598 563 581 589 546 c 0
 603 522 l 0
 604 521 604 520 604 519 c 0
 336 519 l 0
 336 375 l 0
 228 384 l 0
 158 385 l 0
 90 377 l 0
 84 373 81 368 81 363 c 0
 81 356 88 343 101 323 c 0
 140 297 l 0
 272 302 l 0
 292 300 l 0
 295 300 309 296 333 289 c 0
 353 286 l 0
 390 288 448 298 529 315 c 0
 538 316 l 2
EndSplineSet
LCarets: 0 65535 '    ' 1 0 
Ligature: 0 0 'half' uni091D uni094D
Comment: "Itrans: jh" 
Colour: ffffff
EndChar
StartChar: uniE91E
Encoding: 59678 59678 126
Width: 462
Flags: W
HStem: 518 78<-38 424>
DStem: 427 316 427 316 388 305 438 314
Fore
0 261 m 1
 9 260 17 255 25 247 c 0
 51 226 68 208 75 191 c 0
 80 154 l 0
 82 149 86 146 91 146 c 0
 110 146 129 155 146 174 c 0
 173 200 189 239 194 292 c 0
 195 330 l 0
 194 339 192 345 188 350 c 0
 186 353 178 355 165 356 c 0
 141 355 l 0
 111 353 l 0
 103 354 97 356 94 359 c 0
 75 373 59 389 46 407 c 0
 40 414 37 420 37 423 c 0
 39 428 l 0
 40 429 41 430 42 430 c 0
 54 435 66 438 78 438 c 0
 91 438 105 435 121 429 c 0
 156 416 189 391 222 353 c 0
 247 320 l 0
 260 303 l 0
 261 301 l 0
 262 300 272 299 290 297 c 0
 338 297 l 0
 353 298 369 300 388 305 c 0
 427 316 l 0
 438 314 l 0
 455 307 473 290 493 263 c 0
 500 256 504 249 504 242 c 0
 504 241 499 239 489 234 c 0
 475 230 461 227 447 224 c 0
 433 221 416 220 396 220 c 0
 371 220 336 224 291 233 c 0
 272 237 l 0
 272 190 260 148 236 112 c 0
 216 84 191 70 162 70 c 0
 157 70 148 71 135 74 c 0
 121 78 108 85 95 96 c 0
 32 145 0 200 0 261 c 1
-38 596 m 1
 369 596 l 0
 424 597 l 0
 434 595 l 0
 440 592 447 587 456 580 c 0
 485 556 502 536 506 520 c 0
 484 518 l 0
 456 519 l 0
 141 519 l 0
 53 518 l 0
 46 518 40 518 37 519 c 0
 30 520 21 525 12 532 c 0
 -21 557 -37 579 -38 596 c 1
EndSplineSet
LCarets: 0 65535 '    ' 1 0 
Ligature: 0 0 'half' uni091E uni094D
Comment: "Itrans: +AH4A-n or JN" 
Colour: ffffff
EndChar
StartChar: uniE923
Encoding: 59683 59683 127
Width: 423
Flags: W
HStem: 519 77<-38 214 -38 392>
VStem: 0 77<352 519> 214 78<352 519>
Fore
77 519 m 1
 77 293 l 0
 77 263 79 242 82 230 c 0
 84 219 86 212 89 210 c 0
 92 207 101 206 116 206 c 0
 147 208 171 224 190 255 c 0
 206 279 214 316 214 367 c 0
 214 380 l 0
 214 519 l 0
 77 519 l 1
-38 596 m 1
 345 596 l 0
 374 596 390 596 392 595 c 0
 399 593 407 588 416 580 c 0
 446 556 463 536 467 520 c 0
 301 519 l 0
 292 519 l 0
 292 297 l 0
 292 234 279 189 254 162 c 0
 243 151 l 0
 225 136 206 129 186 129 c 0
 175 129 164 131 152 135 c 0
 129 143 104 160 77 185 c 0
 44 218 23 247 14 271 c 0
 5 292 0 330 0 383 c 0
 0 536 l 0
 0 541 -5 547 -14 556 c 0
 -29 572 -37 585 -38 596 c 1
EndSplineSet
LCarets: 0 65535 '    ' 1 0 
Ligature: 0 0 'half' uni0923 uni094D
Comment: "Itrans: N" 
Colour: ffffff
EndChar
StartChar: uniE924
Encoding: 59684 59684 128
Width: 384
Flags: W
HStem: 332 77<130 358> 518 78<-38 354>
Fore
252 -38 m 1
 244 -37 230 -30 210 -18 c 0
 173 5 141 31 114 59 c 0
 74 98 44 136 23 175 c 0
 4 214 -6 253 -6 292 c 0
 -5 347 16 383 57 401 c 0
 71 406 89 409 110 409 c 0
 130 409 l 0
 318 409 l 0
 354 409 l 0
 355 409 356 409 358 408 c 0
 369 404 384 392 402 372 c 0
 417 357 426 344 429 334 c 0
 420 331 410 330 401 330 c 0
 366 332 l 0
 365 332 l 0
 217 332 l 0
 182 332 160 331 149 330 c 0
 141 327 135 325 132 323 c 0
 95 308 75 275 72 224 c 0
 74 185 l 0
 76 175 l 0
 76 174 l 0
 80 150 90 125 106 99 c 0
 116 84 139 65 174 43 c 0
 199 25 215 13 221 7 c 0
 240 -14 251 -29 252 -38 c 1
-38 596 m 1
 313 596 l 0
 340 596 354 596 355 595 c 0
 360 594 368 589 379 580 c 0
 408 556 425 536 429 520 c 0
 405 518 l 0
 385 519 l 0
 122 519 l 0
 48 518 l 0
 42 518 38 518 35 519 c 0
 28 521 20 525 12 532 c 0
 -21 557 -37 579 -38 596 c 1
EndSplineSet
LCarets: 0 65535 '    ' 1 0 
Ligature: 0 0 'half' uni0924 uni094D
Comment: "Itrans: t" 
Colour: ffffff
EndChar
StartChar: uniE925
Encoding: 59685 59685 129
Width: 423
Flags: W
HStem: 123 78<196 270> 268 156<79 98>
Fore
158 517 m 1
 133 516 l 0
 104 512 86 494 80 461 c 0
 78 436 l 0
 78 435 79 432 81 428 c 0
 84 425 89 424 98 424 c 0
 108 424 115 425 119 426 c 0
 137 428 148 430 151 433 c 0
 153 434 156 441 160 454 c 0
 162 485 l 0
 158 517 l 1
271 594 m 1
 297 597 l 0
 324 596 l 0
 382 598 l 0
 385 597 390 596 395 595 c 0
 402 592 409 587 416 580 c 0
 446 556 463 536 467 520 c 0
 443 518 l 0
 414 519 l 0
 355 516 l 0
 343 519 l 0
 321 533 l 0
 291 559 274 579 271 594 c 1
102 372 m 1
 65 393 37 423 18 460 c 0
 9 477 4 492 2 505 c 0
 2 530 l 0
 6 560 22 580 49 590 c 0
 57 594 65 596 74 596 c 0
 83 596 92 594 102 591 c 0
 123 584 147 567 174 541 c 0
 203 512 221 487 229 464 c 0
 236 446 240 427 240 408 c 0
 240 389 236 369 227 348 c 0
 218 331 208 317 195 307 c 0
 164 281 125 268 79 268 c 0
 84 250 91 237 98 230 c 0
 109 219 128 211 157 205 c 0
 174 202 187 201 196 201 c 0
 251 201 299 222 339 263 c 0
 357 284 370 303 378 318 c 0
 389 342 l 0
 389 343 390 344 391 344 c 0
 400 342 l 0
 414 332 l 0
 440 311 457 292 464 275 c 0
 465 264 l 0
 455 242 l 0
 446 228 l 0
 419 180 378 148 325 132 c 0
 307 126 289 123 270 123 c 0
 197 123 125 164 56 245 c 0
 27 281 9 309 2 329 c 0
 1 336 0 341 0 345 c 0
 33 345 67 353 102 370 c 0
 102 372 l 1
EndSplineSet
LCarets: 0 65535 '    ' 1 0 
Ligature: 0 0 'half' uni0925 uni094D
Comment: "Itrans: th" 
Colour: ffffff
EndChar
StartChar: uniE927
Encoding: 59687 59687 130
Width: 423
Flags: W
HStem: 137 76<174 245>
DStem: 229 402 229 402 160 397 244 399
Fore
271 594 m 1
 297 597 l 0
 324 596 l 0
 382 598 l 0
 385 597 390 596 395 595 c 0
 402 592 409 587 416 580 c 0
 446 556 463 536 467 520 c 0
 443 518 l 0
 414 519 l 0
 355 516 l 0
 343 519 l 0
 321 533 l 0
 291 559 274 579 271 594 c 1
88 384 m 1
 76 390 59 406 37 433 c 0
 21 452 10 471 3 491 c 0
 0 516 l 0
 2 545 13 568 33 584 c 0
 44 592 55 596 66 596 c 0
 70 596 73 596 74 595 c 0
 83 594 98 584 117 565 c 0
 118 564 119 563 122 561 c 0
 139 542 148 528 149 519 c 0
 122 518 101 505 86 479 c 0
 82 470 80 463 79 458 c 0
 77 434 l 0
 78 428 80 424 83 422 c 0
 84 421 90 419 102 414 c 0
 129 403 148 397 160 397 c 0
 229 402 l 0
 244 399 l 0
 256 396 270 385 287 366 c 0
 304 350 312 339 313 334 c 0
 315 330 316 326 316 323 c 0
 259 323 218 321 195 316 c 0
 174 311 161 306 154 302 c 0
 132 289 119 272 115 251 c 0
 115 231 l 0
 117 227 l 0
 117 226 l 0
 118 222 123 219 132 217 c 0
 149 214 163 213 174 213 c 0
 241 213 310 244 379 307 c 0
 386 312 390 315 393 315 c 0
 395 315 396 315 397 314 c 0
 414 308 432 292 453 265 c 0
 461 254 465 247 465 245 c 0
 465 241 l 0
 463 237 455 229 440 217 c 0
 418 198 393 181 365 167 c 0
 326 147 286 137 245 137 c 0
 223 137 203 140 184 146 c 0
 162 153 141 164 121 181 c 0
 66 228 37 271 36 312 c 0
 39 336 l 0
 42 345 47 353 52 358 c 0
 56 363 68 371 88 384 c 1
EndSplineSet
LCarets: 0 65535 '    ' 1 0 
Ligature: 0 0 'half' uni0927 uni094D
Comment: "Itrans: dh" 
Colour: ffffff
EndChar
StartChar: uniE928
Encoding: 59688 59688 131
Width: 384
Flags: W
HStem: 286 77<115 346> 518 78<-38 355>
Fore
170 286 m 1
 183 266 190 250 191 238 c 0
 189 218 l 0
 184 195 169 180 146 174 c 0
 126 172 l 0
 110 174 94 181 79 193 c 0
 26 234 0 271 0 303 c 0
 0 308 0 312 1 313 c 0
 6 344 29 361 72 363 c 0
 115 363 l 0
 281 363 l 0
 341 365 l 0
 343 365 348 364 356 362 c 0
 361 361 368 356 379 349 c 0
 408 324 425 303 429 287 c 0
 418 284 408 283 398 283 c 0
 346 286 l 0
 170 286 l 1
-38 596 m 1
 313 596 l 0
 340 596 354 596 355 595 c 0
 360 594 368 589 379 580 c 0
 408 556 425 536 429 520 c 0
 405 518 l 0
 385 519 l 0
 122 519 l 0
 48 518 l 0
 42 518 38 518 35 519 c 0
 28 521 20 525 12 532 c 0
 -21 557 -37 579 -38 596 c 1
EndSplineSet
Ligature: 0 0 'half' uni0928 uni094D
LCarets: 0 65535 '    ' 1 0 
Comment: "Itrans: n" 
Colour: ffffff
EndChar
StartChar: uniE929
Encoding: 59689 59689 132
Width: 384
Flags: W
HStem: 286 77<115 346> 518 78<-38 355>
Fore
195 94 m 5
 251 39 l 0
 251 38 l 0
 203 -8 l 0
 200 -11 198 -13 196 -14 c 0
 184 -3 166 14 141 39 c 0
 195 94 l 5
170 286 m 1
 183 266 190 250 191 238 c 0
 189 218 l 0
 184 195 169 180 146 174 c 0
 126 172 l 0
 110 174 94 181 79 193 c 0
 26 234 0 271 0 303 c 0
 0 308 0 312 1 313 c 0
 6 344 29 361 72 363 c 0
 115 363 l 0
 281 363 l 0
 341 365 l 0
 343 365 348 364 356 362 c 0
 361 361 368 356 379 349 c 0
 408 324 425 303 429 287 c 0
 418 284 408 283 398 283 c 0
 346 286 l 0
 170 286 l 1
-38 596 m 1
 229 596 l 0
 313 596 l 0
 340 596 354 596 355 595 c 0
 360 594 368 589 379 580 c 0
 408 556 425 536 429 520 c 0
 405 518 l 0
 385 519 l 0
 300 519 l 0
 122 519 l 0
 48 518 l 0
 42 518 38 518 35 519 c 0
 28 521 20 525 12 532 c 0
 -21 557 -37 579 -38 596 c 1
EndSplineSet
LCarets: 0 65535 '    ' 1 0 
Ligature: 0 0 'half' uni0929 uni094D
EndChar
StartChar: uniE92A
Encoding: 59690 59690 133
Width: 345
Flags: W
HStem: 182 77<182 250> 519 77<-38 316>
Fore
-38 596 m 1
 278 596 l 0
 302 596 315 596 316 595 c 0
 320 594 328 589 339 580 c 0
 368 557 385 537 390 520 c 0
 383 518 375 517 365 517 c 0
 324 519 l 0
 136 519 l 0
 125 519 118 518 115 517 c 0
 112 516 109 507 104 489 c 0
 100 471 98 453 98 434 c 0
 98 427 99 419 100 408 c 0
 104 367 110 334 118 308 c 0
 125 285 131 271 135 268 c 0
 141 262 157 259 182 259 c 0
 226 260 261 274 287 300 c 0
 299 311 307 323 312 334 c 0
 329 332 350 314 376 281 c 0
 385 272 389 264 389 259 c 0
 389 257 389 256 388 255 c 0
 377 224 348 202 303 189 c 0
 285 186 l 0
 250 182 l 0
 187 183 133 216 88 281 c 0
 63 316 45 355 35 398 c 0
 28 425 23 454 21 484 c 0
 21 520 l 0
 21 522 l 0
 21 524 15 530 3 540 c 0
 -18 559 -30 573 -35 584 c 0
 -37 588 -38 592 -38 596 c 1
EndSplineSet
LCarets: 0 65535 '    ' 1 0 
Ligature: 0 0 'half' uni092A uni094D
Comment: "Itrans: p" 
Colour: ffffff
EndChar
StartChar: uniE92B
Encoding: 59691 59691 134
Width: 579
Flags: W
HStem: 182 77<181 250> 519 77<-38 312 -38 548>
VStem: 311 79<41 230 384 519>
Fore
312 519 m 1
 130 519 l 0
 122 519 117 518 114 517 c 0
 113 516 110 511 107 502 c 0
 104 490 102 475 101 458 c 0
 100 404 l 0
 102 373 107 343 116 313 c 0
 123 288 129 273 135 267 c 0
 142 262 157 259 181 259 c 0
 224 259 259 272 286 297 c 0
 297 306 305 316 310 327 c 0
 311 330 312 338 312 350 c 0
 312 384 l 0
 312 519 l 1
-38 596 m 1
 457 596 l 0
 532 598 l 0
 537 597 542 596 549 595 c 0
 552 594 560 589 572 580 c 0
 599 560 616 540 623 520 c 0
 612 517 603 516 596 516 c 0
 548 519 l 0
 390 519 l 0
 390 395 l 0
 417 398 432 400 436 400 c 0
 440 400 l 0
 483 397 527 372 572 327 c 0
 597 303 614 280 623 258 c 0
 611 260 l 0
 610 260 606 262 600 267 c 0
 595 271 582 283 562 303 c 0
 556 310 l 0
 545 319 525 323 496 323 c 0
 462 321 433 308 410 285 c 0
 402 279 396 270 391 259 c 0
 390 232 l 0
 390 230 l 0
 390 -38 l 0
 379 -37 365 -28 346 -10 c 0
 343 -7 l 0
 326 10 316 23 313 31 c 0
 312 39 311 47 311 55 c 0
 312 83 l 0
 312 192 l 0
 287 185 266 182 250 182 c 0
 238 182 l 0
 175 186 121 224 78 297 c 0
 59 327 45 360 35 396 c 0
 28 423 23 452 21 484 c 0
 21 520 l 0
 21 522 l 0
 21 524 15 530 3 540 c 0
 -18 559 -30 573 -35 584 c 0
 -37 588 -38 592 -38 596 c 1
EndSplineSet
LCarets: 0 65535 '    ' 1 0 
Ligature: 0 0 'half' uni092B uni094D
Comment: "Itrans: ph" 
Colour: ffffff
EndChar
